<svg viewBox="0 0 1514 1578" height="1578" width="1514" xmlns="http://www.w3.org/2000/svg" xmlns:xlink="http://www.w3.org/1999/xlink" xmlns:ev="http://www.w3.org/2001/xml-events"><defs/><g transform="translate(5.5,5.5)" id="page1"><rect x="0" height="1568" width="1504" fill="none" y="0"/><g transform="translate(652.000000,19.000000)" id="group1"><path d="M.0,.0L200.0,.0L200.0,55.4L.0,55.4L.0,.0z" stroke="#b0bffe" fill="#002060" stroke-width="1" fill-rule="nonzero" id="shape2"/><text xml:space="preserve" style="fill:#ffffff;font-family:SF Mono;font-size:24.00pt;font-weight:bold"><tspan x="30.0" y="40.0">Ismayel</tspan></text></g><g transform="translate(176.500000,164.350400)" id="group3"><path d="M.0,.0L200.0,.0L200.0,55.4L.0,55.4L.0,.0z" stroke="#b0bffe" fill="#ffa3a0" stroke-width="1" fill-rule="nonzero" id="shape4"/><text xml:space="preserve" style="fill:#ffffff;font-family:SF Mono;font-size:16.00pt;font-weight:bold"><tspan x="48.0" y="37.0">Mosharof</tspan></text></g><path transform="translate(752.000000,74.350400)" stroke="#9b9b9b" d="M.0,.0L.0,46.0L-476.0,46.0L-476.0,90.0" stroke-width="2.666666746139526" fill="none" id="shape5"/><g transform="translate(493.500000,164.350400)" id="group6"><path d="M.0,.0L200.0,.0L200.0,55.4L.0,55.4L.0,.0z" stroke="#b0bffe" fill="#ffa3a0" stroke-width="1" fill-rule="nonzero" id="shape7"/><text xml:space="preserve" style="fill:#ffffff;font-family:SF Mono;font-size:16.00pt;font-weight:bold"><tspan x="93.5" y="37.0">x</tspan></text></g><path transform="translate(752.000000,74.350400)" stroke="#9b9b9b" d="M.0,.0L.0,46.0L-159.0,46.0L-159.0,90.0" stroke-width="2.666666746139526" fill="none" id="shape8"/><g transform="translate(810.500000,164.350400)" id="group9"><path d="M.0,.0L200.0,.0L200.0,55.4L.0,55.4L.0,.0z" stroke="#b0bffe" fill="#ffa3a0" stroke-width="1" fill-rule="nonzero" id="shape10"/><text xml:space="preserve" style="fill:#ffffff;font-family:SF Mono;font-size:16.00pt;font-weight:bold"><tspan x="61.0" y="37.0">Younus</tspan></text></g><path transform="translate(752.000000,74.350400)" stroke="#9b9b9b" d="M.0,.0L.0,46.0L158.0,46.0L158.0,90.0" stroke-width="2.666666746139526" fill="none" id="shape11"/><g transform="translate(1127.500000,164.350400)" id="group12"><path d="M.0,.0L200.0,.0L200.0,55.4L.0,55.4L.0,.0z" stroke="#b0bffe" fill="#ffa3a0" stroke-width="1" fill-rule="nonzero" id="shape13"/><text xml:space="preserve" style="fill:#ffffff;font-family:SF Mono;font-size:16.00pt;font-weight:bold"><tspan x="74.0" y="37.0">Anis</tspan></text></g><path transform="translate(752.000000,74.350400)" stroke="#9b9b9b" d="M.0,.0L.0,46.0L475.0,46.0L475.0,90.0" stroke-width="2.666666746139526" fill="none" id="shape14"/><g transform="translate(1.000000,309.700800)" id="group15"><path d="M.0,.0L200.0,.0L200.0,55.4L.0,55.4L.0,.0z" stroke="#b0bffe" fill="#878fd3" stroke-width="1" fill-rule="nonzero" id="shape16"/><text xml:space="preserve" style="fill:#ffffff;font-family:SF Mono;font-size:16.00pt;font-weight:bold"><tspan x="74.0" y="37.0">Azad</tspan></text></g><path transform="translate(276.500000,219.700800)" stroke="#9b9b9b" d="M.0,.0L.0,117.0L-75.0,117.0" stroke-width="2.666666746139526" fill="none" id="shape17"/><g transform="translate(1.000000,455.051200)" id="group18"><path d="M.0,.0L200.0,.0L200.0,55.4L.0,55.4L.0,.0z" stroke="#b0bffe" fill="#878fd3" stroke-width="1" fill-rule="nonzero" id="shape19"/><text xml:space="preserve" style="fill:#ffffff;font-family:SF Mono;font-size:16.00pt;font-weight:bold"><tspan x="74.0" y="37.0">Akis</tspan></text></g><path transform="translate(276.500000,219.700800)" stroke="#9b9b9b" d="M.0,.0L.0,263.0L-75.0,263.0" stroke-width="2.666666746139526" fill="none" id="shape20"/><g transform="translate(1.000000,600.401600)" id="group21"><path d="M.0,.0L200.0,.0L200.0,55.4L.0,55.4L.0,.0z" stroke="#b0bffe" fill="#878fd3" stroke-width="1" fill-rule="nonzero" id="shape22"/><text xml:space="preserve" style="fill:#ffffff;font-family:SF Mono;font-size:16.00pt;font-weight:bold"><tspan x="67.5" y="37.0">Happy</tspan></text></g><path transform="translate(276.500000,219.700800)" stroke="#9b9b9b" d="M.0,.0L.0,408.0L-75.0,408.0" stroke-width="2.666666746139526" fill="none" id="shape23"/><g transform="translate(1303.000000,309.700800)" id="group24"><path d="M.0,.0L200.0,.0L200.0,55.4L.0,55.4L.0,.0z" stroke="#b0bffe" fill="#878fd3" stroke-width="1" fill-rule="nonzero" id="shape25"/><text xml:space="preserve" style="fill:#ffffff;font-family:SF Mono;font-size:16.00pt;font-weight:bold"><tspan x="67.5" y="37.0">Tayem</tspan></text></g><path transform="translate(1227.500000,219.700800)" stroke="#9b9b9b" d="M.0,.0L.0,117.0L76.0,117.0" stroke-width="2.666666746139526" fill="none" id="shape26"/><g transform="translate(1303.000000,455.051200)" id="group27"><path d="M.0,.0L200.0,.0L200.0,55.4L.0,55.4L.0,.0z" stroke="#b0bffe" fill="#878fd3" stroke-width="1" fill-rule="nonzero" id="shape28"/><text xml:space="preserve" style="fill:#ffffff;font-family:SF Mono;font-size:16.00pt;font-weight:bold"><tspan x="61.0" y="37.0">Tanvir</tspan></text></g><path transform="translate(1227.500000,219.700800)" stroke="#9b9b9b" d="M.0,.0L.0,263.0L76.0,263.0" stroke-width="2.666666746139526" fill="none" id="shape29"/><g transform="translate(1303.000000,600.401600)" id="group30"><path d="M.0,.0L200.0,.0L200.0,55.4L.0,55.4L.0,.0z" stroke="#b0bffe" fill="#878fd3" stroke-width="1" fill-rule="nonzero" id="shape31"/><text xml:space="preserve" style="fill:#ffffff;font-family:SF Mono;font-size:16.00pt;font-weight:bold"><tspan x="61.0" y="37.0">Bushra</tspan></text></g><path transform="translate(1227.500000,219.700800)" stroke="#9b9b9b" d="M.0,.0L.0,408.0L76.0,408.0" stroke-width="2.666666746139526" fill="none" id="shape32"/><g transform="translate(986.000000,309.700800)" id="group33"><path d="M.0,.0L200.0,.0L200.0,55.4L.0,55.4L.0,.0z" stroke="#b0bffe" fill="#878fd3" stroke-width="1" fill-rule="nonzero" id="shape34"/><text xml:space="preserve" style="fill:#ffffff;font-family:SF Mono;font-size:16.00pt;font-weight:bold"><tspan x="67.5" y="37.0">Suchi</tspan></text></g><path transform="translate(910.500000,219.700800)" stroke="#9b9b9b" d="M.0,.0L.0,117.0L76.0,117.0" stroke-width="2.666666746139526" fill="none" id="shape35"/><g transform="translate(986.000000,455.051200)" id="group36"><path d="M.0,.0L200.0,.0L200.0,55.4L.0,55.4L.0,.0z" stroke="#b0bffe" fill="#878fd3" stroke-width="1" fill-rule="nonzero" id="shape37"/><text xml:space="preserve" style="fill:#ffffff;font-family:SF Mono;font-size:16.00pt;font-weight:bold"><tspan x="74.0" y="37.0">Emon</tspan></text></g><path transform="translate(910.500000,219.700800)" stroke="#9b9b9b" d="M.0,.0L.0,263.0L76.0,263.0" stroke-width="2.666666746139526" fill="none" id="shape38"/><g transform="translate(986.000000,600.401600)" id="group39"><path d="M.0,.0L200.0,.0L200.0,55.4L.0,55.4L.0,.0z" stroke="#b0bffe" fill="#878fd3" stroke-width="1" fill-rule="nonzero" id="shape40"/><text xml:space="preserve" style="fill:#ffffff;font-family:SF Mono;font-size:16.00pt;font-weight:bold"><tspan x="61.0" y="37.0">Pranty</tspan></text></g><path transform="translate(910.500000,219.700800)" stroke="#9b9b9b" d="M.0,.0L.0,408.0L76.0,408.0" stroke-width="2.666666746139526" fill="none" id="shape41"/><g transform="translate(318.000000,309.700800)" id="group42"><path d="M.0,.0L200.0,.0L200.0,55.4L.0,55.4L.0,.0z" stroke="#b0bffe" fill="#878fd3" stroke-width="1" fill-rule="nonzero" id="shape43"/><text xml:space="preserve" style="fill:#ffffff;font-family:SF Mono;font-size:16.00pt;font-weight:bold"><tspan x="67.5" y="37.0">Akman</tspan></text></g><path transform="translate(593.500000,219.700800)" stroke="#9b9b9b" d="M.0,.0L.0,117.0L-75.0,117.0" stroke-width="2.666666746139526" fill="none" id="shape44"/><g transform="translate(318.000000,455.051200)" id="group45"><path d="M.0,.0L200.0,.0L200.0,55.4L.0,55.4L.0,.0z" stroke="#b0bffe" fill="#878fd3" stroke-width="1" fill-rule="nonzero" id="shape46"/><text xml:space="preserve" style="fill:#ffffff;font-family:SF Mono;font-size:16.00pt;font-weight:bold"><tspan x="67.5" y="37.0">Aslam</tspan></text></g><path transform="translate(593.500000,219.700800)" stroke="#9b9b9b" d="M.0,.0L.0,263.0L-75.0,263.0" stroke-width="2.666666746139526" fill="none" id="shape47"/><g transform="translate(318.000000,600.401600)" id="group48"><path d="M.0,.0L200.0,.0L200.0,55.4L.0,55.4L.0,.0z" stroke="#b0bffe" fill="#878fd3" stroke-width="1" fill-rule="nonzero" id="shape49"/><text xml:space="preserve" style="fill:#ffffff;font-family:SF Mono;font-size:16.00pt;font-weight:bold"><tspan x="67.5" y="37.0">Kiron</tspan></text></g><path transform="translate(593.500000,219.700800)" stroke="#9b9b9b" d="M.0,.0L.0,408.0L-75.0,408.0" stroke-width="2.666666746139526" fill="none" id="shape50"/><g transform="translate(318.000000,745.752000)" id="group51"><path d="M.0,.0L200.0,.0L200.0,55.4L.0,55.4L.0,.0z" stroke="#b0bffe" fill="#878fd3" stroke-width="1" fill-rule="nonzero" id="shape52"/><text xml:space="preserve" style="fill:#ffffff;font-family:SF Mono;font-size:16.00pt;font-weight:bold"><tspan x="74.0" y="37.0">Hera</tspan></text></g><path transform="translate(593.500000,219.700800)" stroke="#9b9b9b" d="M.0,.0L.0,553.0L-75.0,553.0" stroke-width="2.666666746139526" fill="none" id="shape53"/></g></svg>