<svg xmlns="http://www.w3.org/2000/svg" viewBox="0 0 1132 804" height="804" width="1132" xmlns:xlink="http://www.w3.org/1999/xlink" xmlns:ev="http://www.w3.org/2001/xml-events"><defs/><g id="page1" transform="translate(5.5,5.5)"><rect x="0" y="0" height="794" width="1123" fill="#379e90"/><path stroke-width="1" id="shape1" fill-rule="nonzero" stroke="#191919" transform="matrix(0.965926,0.258819,-0.258819,0.965926,402.174769,286.298278)" fill="#d0f0ea" d="M116.1,100.6L58.1,.0L.0,100.6L116.1,100.6z"/><g id="group2" transform="translate(38.106000,129.666000)"><path stroke-width="1" id="shape3" fill-rule="nonzero" stroke="#fed372" transform="translate(41.046700,41.046700)" fill="#fed372" d="M.0,36.8C.0,16.5,16.5,.0,36.8,.0C57.2,.0,73.7,16.5,73.7,36.8C73.7,57.2,57.2,73.7,36.8,73.7C16.5,73.7,.0,57.2,.0,36.8z"/><path stroke-width="1" id="shape4" fill-rule="nonzero" stroke="#fed372" transform="translate(74.801020,-0.000200)" fill="#fed372" d="M1.9,.0L4.2,.0C5.2,.0,6.1,.9,6.1,2.0L6.1,32.3C6.1,33.4,5.2,34.3,4.2,34.3L1.9,34.3C.9,34.3,-0.0,33.4,-0.0,32.3L-0.0,2.0C-0.0,.9,.9,.0,1.9,.0z"/><path stroke-width="1" id="shape5" fill-rule="nonzero" stroke="#fed372" transform="translate(74.801020,121.452400)" fill="#fed372" d="M1.9,.0L4.2,.0C5.2,.0,6.1,.9,6.1,2.0L6.1,32.3C6.1,33.4,5.2,34.3,4.2,34.3L1.9,34.3C.9,34.3,-0.0,33.4,-0.0,32.3L-0.0,2.0C-0.0,.9,.9,.0,1.9,.0z"/><path stroke-width="1" id="shape6" fill-rule="nonzero" stroke="#fed372" transform="translate(-0.030300,74.802430)" fill="#fed372" d="M.0,4.2L.0,2.0C.0,.9,.9,.0,2.0,.0L32.3,.0C33.4,.0,34.3,.9,34.3,2.0L34.3,4.2C34.3,5.3,33.4,6.2,32.3,6.2L2.0,6.2C.9,6.2,.0,5.3,.0,4.2z"/><path stroke-width="1" id="shape7" fill-rule="nonzero" stroke="#fed372" transform="translate(121.423400,74.802430)" fill="#fed372" d="M.0,4.2L.0,2.0C.0,.9,.9,.0,2.0,.0L32.3,.0C33.4,.0,34.3,.9,34.3,2.0L34.3,4.2C34.3,5.3,33.4,6.2,32.3,6.2L2.0,6.2C.9,6.2,.0,5.3,.0,4.2z"/><path stroke-width="1" id="shape8" fill-rule="nonzero" stroke="#fed372" transform="translate(21.401500,21.417700)" fill="#fed372" d="M.6,2.1L2.1,.6C2.9,-0.2,4.2,-0.2,4.9,.6L26.4,22.0C27.2,22.8,27.2,24.1,26.4,24.8L24.8,26.4C24.1,27.2,22.8,27.2,22.0,26.4L.6,4.9C-0.2,4.2,-0.2,2.9,.6,2.1z"/><path stroke-width="1" id="shape9" fill-rule="nonzero" stroke="#fed372" transform="translate(107.281200,107.298200)" fill="#fed372" d="M.6,2.1L2.1,.6C2.9,-0.2,4.2,-0.2,4.9,.6L26.4,22.0C27.2,22.8,27.2,24.1,26.4,24.8L24.8,26.4C24.1,27.2,22.8,27.2,22.0,26.4L.6,4.9C-0.2,4.2,-0.2,2.9,.6,2.1z"/><path stroke-width="1" id="shape10" fill-rule="nonzero" stroke="#fed372" transform="translate(107.264200,21.430700)" fill="#fed372" d="M24.8,.6L26.4,2.1C27.2,2.9,27.2,4.2,26.4,4.9L4.9,26.4C4.2,27.2,2.9,27.2,2.1,26.4L.6,24.8C-0.2,24.1,-0.2,22.8,.6,22.0L22.0,.6C22.8,-0.2,24.1,-0.2,24.8,.6z"/><path stroke-width="1" id="shape11" fill-rule="nonzero" stroke="#fed372" transform="translate(21.383700,107.311200)" fill="#fed372" d="M24.8,.6L26.4,2.1C27.2,2.9,27.2,4.2,26.4,4.9L4.9,26.4C4.2,27.2,2.9,27.2,2.1,26.4L.6,24.8C-0.2,24.1,-0.2,22.8,.6,22.0L22.0,.6C22.8,-0.2,24.1,-0.2,24.8,.6z"/></g><g id="group12" transform="translate(729.426100,406.331000)"><path stroke-width="1" id="shape13" fill-rule="nonzero" stroke="#4c4c4c" transform="translate(27.500200,14.197200)" fill="#ff5572" d="M143.9,73.3C143.9,113.7,111.7,146.6,72.0,146.6C32.2,146.6,.0,113.7,.0,73.3C.0,32.8,32.2,.0,72.0,.0C111.7,.0,143.9,32.8,143.9,73.3z"/><path stroke-width="1" id="shape14" fill-rule="nonzero" stroke="#4c4c4c" transform="translate(0.000000,10.075400)" fill="#ff5572" d="M143.9,73.3C143.9,113.7,111.7,146.6,72.0,146.6C32.2,146.6,.0,113.7,.0,73.3C.0,32.8,32.2,.0,72.0,.0C111.7,.0,143.9,32.8,143.9,73.3z"/><path stroke-width="1" id="shape15" fill-rule="nonzero" stroke="#4c4c4c" transform="translate(20.166900,-0.000100)" fill="#ff5572" d="M122.8,61.4C122.8,95.3,95.3,122.7,61.4,122.7C27.5,122.7,.0,95.3,.0,61.4C.0,27.5,27.5,.0,61.4,.0C95.3,.0,122.8,27.5,122.8,61.4z"/><path stroke-width="1" id="shape16" fill-rule="nonzero" stroke="#4c4c4c" transform="translate(31.625200,1.373900)" fill="#ff5572" d="M93.5,46.7C93.5,72.5,72.6,93.4,46.8,93.4C20.9,93.4,.0,72.5,.0,46.7C.0,20.9,20.9,.0,46.8,.0C72.6,.0,93.5,20.9,93.5,46.7z"/><path stroke-width="1" id="shape17" fill-rule="nonzero" stroke="#4c4c4c" transform="translate(49.500500,25.646500)" fill="#ff5572" d="M68.8,34.3C68.8,53.3,53.4,68.7,34.4,68.7C15.4,68.7,.0,53.3,.0,34.3C.0,15.4,15.4,.0,34.4,.0C53.4,.0,68.8,15.4,68.8,34.3z"/><path stroke-width="1" id="shape18" fill-rule="nonzero" stroke="#4c4c4c" transform="translate(57.750600,24.272500)" fill="#ff5572" d="M47.7,23.8C47.7,37.0,37.0,47.6,23.8,47.6C10.7,47.6,.0,37.0,.0,23.8C.0,10.7,10.7,.0,23.8,.0C37.0,.0,47.7,10.7,47.7,23.8z"/><path stroke-width="1" id="shape19" stroke="#4c4c4c" transform="translate(83.875710,156.627500)" fill="none" d="M.0,87.9L.0,.0L.0,87.9z"/><path stroke-width="1" id="shape20" fill-rule="nonzero" stroke="#4c4c4c" transform="translate(111.374200,174.073300)" fill="#74c66d" d="M2.8,35.7C2.8,35.7,-7.8,9.1,12.4,3.2C32.1,-2.8,63.7,-0.5,78.8,11.4C78.8,11.4,63.7,53.5,32.5,55.4C.9,57.7,2.8,35.7,2.8,35.7z"/><path stroke-width="1" id="shape21" stroke="#4c4c4c" transform="translate(83.875800,195.776300)" fill="none" d="M.0,34.1C.0,34.1,14.7,15.8,27.5,10.8C60.0,-2.5,79.3,.0,79.3,.0"/></g><path stroke-width="0.3333329856395721" id="shape22" fill-rule="nonzero" stroke="#191919" transform="translate(1012.235100,177.484530)" fill="#191919" d="M13.8,8.2C13.8,7.1,14.9,6.2,16.4,6.2C17.8,6.2,19.0,7.1,19.0,8.2C19.0,9.3,17.8,10.2,16.4,10.2C14.9,10.2,13.8,9.3,13.8,8.2zM.0,8.2C.0,8.2,7.3,.0,16.4,.0C25.4,.0,32.8,8.2,32.8,8.2C32.8,8.2,25.4,16.4,16.4,16.4C7.3,16.4,.0,8.2,.0,8.2zM16.4,13.4C20.2,13.4,23.4,11.1,23.4,8.2C23.4,5.3,20.2,3.0,16.4,3.0C12.5,3.0,9.4,5.3,9.4,8.2C9.4,11.1,12.5,13.4,16.4,13.4z"/><path stroke-width="4" id="shape23" stroke="#ffffff" transform="matrix(0.919622,0.392804,-0.392804,0.919622,147.405700,232.134500)" fill="none" d="M.0,.0L295.6,.0"/><path stroke-width="1" id="shape24" stroke="#0070c0" transform="matrix(0.942682,0.333693,-0.333693,0.942682,445.247193,368.759041)" fill="none" d="M.0,.0L327.5,.0"/><path stroke-width="1" id="shape25" stroke="#ff0000" transform="matrix(0.942682,0.333693,-0.333693,0.942682,458.909193,335.969041)" fill="none" d="M.0,.0L327.5,.0"/><path stroke-width="1" id="shape26" stroke="#00b0f0" transform="matrix(0.942682,0.333693,-0.333693,0.942682,450.712193,361.928041)" fill="none" d="M.0,.0L327.5,.0"/><path stroke-width="1" id="shape27" stroke="#ff0000" transform="matrix(0.743489,-0.668748,0.668748,0.743489,754.019119,438.437747)" fill="none" d="M.0,.0L347.3,.0"/><path stroke-width="1" id="shape28" stroke="#7030a0" transform="matrix(0.942682,0.333693,-0.333693,0.942682,445.247193,381.055041)" fill="none" d="M.0,.0L327.5,.0"/><path stroke-width="1" id="shape29" stroke="#00b050" transform="matrix(0.942682,0.333693,-0.333693,0.942682,452.078193,355.097041)" fill="none" d="M.0,.0L327.5,.0"/><path stroke-width="1" id="shape30" stroke="#ffff00" transform="matrix(0.942682,0.333693,-0.333693,0.942682,450.712193,348.265041)" fill="none" d="M.0,.0L327.5,.0"/><path stroke-width="1" id="shape31" stroke="#ffc000" transform="matrix(0.942682,0.333693,-0.333693,0.942682,457.543193,342.800041)" fill="none" d="M.0,.0L327.5,.0"/><path stroke-width="1" id="shape32" stroke="#0070c0" transform="matrix(0.885720,0.464219,-0.464219,0.885720,457.542457,381.054996)" fill="none" d="M.0,.0L479.7,.0"/><path stroke-width="1" id="shape33" stroke="#00b0f0" transform="matrix(0.893859,0.448349,-0.448349,0.893859,457.543046,381.055280)" fill="none" d="M.0,.0L481.5,.0"/><path stroke-width="1" id="shape34" stroke="#7030a0" transform="matrix(0.880825,0.473443,-0.473443,0.880825,445.246464,381.055895)" fill="none" d="M.0,.0L496.4,.0"/><path stroke-width="1" id="shape35" stroke="#00b050" transform="matrix(0.900051,0.435784,-0.435784,0.900051,457.543517,381.055405)" fill="none" d="M.0,.0L479.7,.0"/><path stroke-width="1" id="shape36" stroke="#ffff00" transform="matrix(0.920200,0.391449,-0.391449,0.920200,457.542892,400.182573)" fill="none" d="M.0,.0L467.7,.0"/><path stroke-width="1" id="shape37" stroke="#ffc000" transform="matrix(0.901296,0.433203,-0.433203,0.901296,471.206299,374.225067)" fill="none" d="M.0,.0L469.9,.0"/><path stroke-width="1" id="shape38" stroke="#92d050" transform="matrix(0.286729,-0.958012,0.958012,0.286729,909.770602,594.189983)" fill="none" d="M.0,.0L405.0,.0"/><path stroke-width="4" id="shape39" stroke="#ffffff" transform="matrix(0.897779,0.440445,-0.440445,0.897779,147.405706,232.134500)" fill="none" d="M.0,.0L288.0,.0"/></g></svg>