<svg width="1379" xmlns="http://www.w3.org/2000/svg" xmlns:xlink="http://www.w3.org/1999/xlink" height="600" viewBox="0 0 1379 600" xmlns:ev="http://www.w3.org/2001/xml-events"><defs/><g transform="translate(5.5,5.5)" id="page1"><rect fill="#fff6e9" width="1369" y="0" height="590" x="0"/><g transform="translate(499.519685,171.750000)" id="shape1"><path fill="#d7dcff" stroke-width="2.333329916000366" fill-rule="nonzero" d="M.0,81.9C.0,36.7,37.4,.0,83.5,.0C129.6,.0,167.0,36.7,167.0,81.9C167.0,127.2,129.6,163.9,83.5,163.9C37.4,163.9,.0,127.2,.0,81.9z" stroke="#445295"/><text style="fill:#191919;font-family:Delius;font-size:17.00pt" xml:space="preserve"><tspan y="75.9" x="20.5">mircrobes in </tspan><tspan y="104.9" x="67.0">soil</tspan></text></g><g transform="translate(449.519685,51.000000)" id="shape2"><path fill="#e9f8f5" stroke-width="1" fill-rule="nonzero" d="M240.5,54.0L240.5,.0L.0,.0L.0,54.0L240.5,54.0z" stroke="#4ed7c5"/><text style="fill:#191919;font-family:Delius;font-size:16.00pt;font-weight:bold" xml:space="preserve"><tspan y="34.5" x="44.3">decomposition</tspan></text></g><g transform="translate(452.519685,1.000000)" id="shape3"><path fill="#ffffff" stroke-width="0.3333333432674408" fill-rule="nonzero" d="M233.0,28.0L233.0,.0L.0,.0L.0,28.0L233.0,28.0z" stroke="#d8d8d8"/><text style="fill:#191919;font-family:Delius;font-size:12.00pt" xml:space="preserve"><tspan y="20.0" x="67.0">fungi,bacteria</tspan></text></g><path stroke-width="1" fill="none" d="M.0,.0L.0,22.0" transform="translate(569.019685,29.000000)" id="shape4" stroke="#191919"/><g transform="translate(583.019685,171.750000)" id="shape5"><path stroke-width="2" fill="none" d="M.0,.0L.0,-58.3" stroke="#afafaf"/><path stroke-width="1" fill="#afafaf" d="M-4.2,-58.3L.0,-66.8L4.2,-58.3L-4.2,-58.3" stroke-linecap="round" stroke="#afafaf"/><rect fill="#ffffff" width="11.0" y="-45.8" height="30.0" x="-4.5"/><text style="fill:#000000;font-family:Delius;font-size:18.00pt;font-weight:bold" xml:space="preserve"><tspan y="-21.8" x="-4.5">1</tspan></text></g><g transform="translate(666.519685,253.675197)" id="shape6"><path stroke-width="2" fill="none" d="M.0,.0L270.0,.0L270.0,-39.0L289.5,-39.0" stroke="#afafaf"/><path stroke-width="1" fill="#afafaf" d="M289.5,-43.2L298.0,-39.0L289.5,-34.8L289.5,-43.2" stroke-linecap="round" stroke="#afafaf"/><rect fill="#ffffff" width="14.0" y="-15.0" height="30.0" x="146.9"/><text style="fill:#000000;font-family:Delius;font-size:18.00pt;font-weight:bold" xml:space="preserve"><tspan y="9.0" x="146.9">2</tspan></text></g><g transform="translate(583.019685,335.600394)" id="shape7"><path stroke-width="2" fill="none" d="M.0,.0L.0,88.5" stroke="#afafaf"/><path stroke-width="1" fill="#afafaf" d="M4.2,88.5L.0,97.0L-4.2,88.5L4.2,88.5" stroke-linecap="round" stroke="#afafaf"/><rect fill="#ffffff" width="15.0" y="29.3" height="30.0" x="-6.5"/><text style="fill:#000000;font-family:Delius;font-size:18.00pt;font-weight:bold" xml:space="preserve"><tspan y="53.3" x="-6.5">6</tspan></text></g><g transform="translate(512.917270,298.201527)" id="shape8"><path stroke-width="2" fill="none" d="M.0,.0L-234.0,.0L-234.0,33.0L-253.5,33.0" stroke="#afafaf"/><path stroke-width="1" fill="#afafaf" d="M-253.5,37.2L-262.0,33.0L-253.5,28.8L-253.5,37.2" stroke-linecap="round" stroke="#afafaf"/><rect fill="#ffffff" width="15.0" y="-15.0" height="30.0" x="-209.8"/><text style="fill:#000000;font-family:Delius;font-size:18.00pt;font-weight:bold" xml:space="preserve"><tspan y="9.0" x="-209.8">5</tspan></text></g><g transform="translate(654.520779,296.011209)" id="shape9"><path stroke-width="2" fill="none" d="M.0,.0L282.0,.0L282.0,34.0L301.5,34.0" stroke="#afafaf"/><path stroke-width="1" fill="#afafaf" d="M301.5,29.8L310.0,34.0L301.5,38.2L301.5,29.8" stroke-linecap="round" stroke="#afafaf"/><rect fill="#ffffff" width="15.0" y="-15.0" height="30.0" x="158.3"/><text style="fill:#000000;font-family:Delius;font-size:18.00pt;font-weight:bold" xml:space="preserve"><tspan y="9.0" x="158.3">3</tspan></text></g><path stroke-width="1" fill="none" d="M.0,.0L.0,.0" transform="translate(569.000000,104.000000)" id="shape10" stroke="#191919"/><g transform="translate(17.519685,74.421744)" id="group11"><g transform="translate(0.000000,60.000000)" id="shape12"><path fill="#ffecec" stroke-width="3" fill-rule="nonzero" d="M233.0,58.5L233.0,.0L.0,.0L.0,58.5L233.0,58.5z" stroke="#ffecec"/><text style="fill:#191919;font-family:Delius;font-size:16.00pt;font-weight:bold" xml:space="preserve"><tspan y="36.8" x="47.5">soil structure</tspan></text></g><path stroke-width="1" fill="none" d="M.0,.0L.0,-32.0" transform="translate(116.500000,60.000000)" id="shape13" stroke="#191919"/><g id="shape14"><path fill="#ffffff" stroke-width="0.3333333432674408" fill-rule="nonzero" d="M233.0,28.0L233.0,.0L.0,.0L.0,28.0L233.0,28.0z" stroke="#d8d8d8"/><text style="fill:#191919;font-family:Arial;font-size:12.00pt" xml:space="preserve"><tspan y="20.5" x="80.5">aggregate</tspan></text></g></g><g transform="translate(499.519685,253.675197)" id="shape15"><path stroke-width="2" fill="none" d="M.0,.0L-221.0,.0L-221.0,-90.0L-240.5,-90.0" stroke="#afafaf"/><path stroke-width="1" fill="#afafaf" d="M-240.5,-85.8L-249.0,-90.0L-240.5,-94.2L-240.5,-85.8" stroke-linecap="round" stroke="#afafaf"/><rect fill="#ffffff" width="15.0" y="-36.5" height="30.0" x="-113.4"/><text style="fill:#000000;font-family:Delius;font-size:18.00pt;font-weight:bold" xml:space="preserve"><tspan y="-12.5" x="-113.4">4</tspan></text></g><g transform="translate(1.519685,302.000000)" id="group16"><g id="shape17"><path fill="#ffecec" stroke-width="3" fill-rule="nonzero" d="M249.0,59.8L249.0,.0L.0,.0L.0,59.8L249.0,59.8z" stroke="#ffecec"/><text style="fill:#191919;font-family:Delius;font-size:16.00pt;font-weight:bold" xml:space="preserve"><tspan y="37.4" x="31.0">symbiotic relation</tspan></text></g><path stroke-width="1" fill="none" d="M.0,.0L.0,26.0" transform="translate(124.500000,59.750000)" id="shape18" stroke="#191919"/><g transform="translate(41.000000,85.000000)" id="shape19"><path fill="#ffffff" stroke-width="0.3333333432674408" fill-rule="nonzero" d="M167.0,33.0L167.0,.0L.0,.0L.0,33.0L167.0,33.0z" stroke="#d8d8d8"/><text style="fill:#191919;font-family:Delius;font-size:12.00pt" xml:space="preserve"><tspan y="22.5" x="23.0">micorhizal+rhizo</tspan></text></g></g><g transform="translate(429.519685,433.000000)" id="group20"><g id="shape21"><path fill="#e9f8f5" stroke-width="1" fill-rule="nonzero" d="M279.0,70.0L279.0,.0L.0,.0L.0,70.0L279.0,70.0z" stroke="#4ed7c5"/><text style="fill:#191919;font-family:Delius;font-size:16.00pt;font-weight:bold" xml:space="preserve"><tspan y="42.5" x="35.0">disease suppression</tspan></text></g><g transform="translate(0.000000,107.000000)" id="shape22"><path fill="#ffffff" stroke-width="0.3333333432674408" fill-rule="nonzero" d="M279.0,49.0L279.0,.0L.0,.0L.0,49.0L279.0,49.0z" stroke="#d8d8d8"/><text style="fill:#191919;font-family:Delius;font-size:12.00pt" xml:space="preserve"><tspan y="20.5" x="5.0">trichoderma+bacillus subtilis produce </tspan><tspan y="40.5" x="103.0">antibiotics</tspan></text></g><path stroke-width="1" fill="none" d="M.0,.0L.0,-37.0" transform="translate(139.500000,107.000000)" id="shape23" stroke="#191919"/></g><g transform="translate(964.932645,295.250000)" id="group24"><g id="shape25"><path fill="#e8e9f5" stroke-width="3" fill-rule="nonzero" d="M279.0,70.0L279.0,.0L.0,.0L.0,70.0L279.0,70.0z" stroke="#e8e9f5"/><text style="fill:#191919;font-family:Delius;font-size:16.00pt;font-weight:bold" xml:space="preserve"><tspan y="42.5" x="45.5">salinity regulation</tspan></text></g><path stroke-width="1" fill="none" d="M.0,.0L.0,27.0" transform="translate(139.500000,70.000000)" id="shape26" stroke="#191919"/><g transform="translate(0.000000,97.000000)" id="shape27"><path fill="#ffffff" stroke-width="0.3333333432674408" fill-rule="nonzero" d="M279.0,28.0L279.0,.0L.0,.0L.0,28.0L279.0,28.0z" stroke="#d8d8d8"/><text style="fill:#191919;font-family:Delius;font-size:12.00pt" xml:space="preserve"><tspan y="20.0" x="63.5">halotolerant bacteria</tspan></text></g></g><g transform="translate(840.519685,61.999984)" id="group28"><g transform="translate(123.819823,126.000016)" id="shape29"><path fill="#eceeff" stroke-width="3" fill-rule="nonzero" d="M255.6,52.7L255.6,.0L.0,.0L.0,52.7L255.6,52.7z" stroke="#eceeff"/><text style="fill:#191919;font-family:Delius;font-size:16.00pt;font-weight:bold" xml:space="preserve"><tspan y="33.9" x="45.8">nutrient cycling</tspan></text></g><g transform="translate(3.405189,0.000016)" id="group30"><g transform="translate(0.000000,12.029276)" id="shape31"><text style="fill:#454545;font-family:Delius;font-size:12.00pt;font-weight:bold" xml:space="preserve"><tspan style="font-size:17.00pt" y="18.2" x="32.6">atm N</tspan></text></g><g transform="translate(392.184898,12.029276)" id="shape32"><text style="fill:#454545;font-family:Delius;font-size:12.00pt;font-weight:bold" xml:space="preserve"><tspan style="font-size:17.00pt" y="18.2" x="18.6">usable N</tspan></text></g><g transform="translate(132.235834,21.683338)" id="shape33"><path stroke-width="2" fill="none" d="M.0,.0L254.7,.0" stroke="#454545"/><path stroke-width="1" fill="#454545" d="M254.7,-5.2L259.9,.0L254.7,5.3L254.7,-5.2" stroke-linecap="round" stroke="#454545"/></g><g transform="translate(130.189020,-0.000016)" id="shape34"><text style="fill:#454545;font-family:Delius;font-size:16.00pt;font-weight:bold" xml:space="preserve"><tspan y="17.2" x="11.8">rhizobium+azotobacter</tspan></text></g></g><g transform="translate(-57.692372,49.000016)" id="group35"><g transform="translate(57.692372,10.873028)" id="shape36"><text style="fill:#454545;font-family:Delius;font-size:12.00pt;font-weight:bold" xml:space="preserve"><tspan style="font-size:17.00pt" y="17.3" x="14.7">minerals</tspan></text></g><g transform="translate(437.876342,10.873057)" id="shape37"><text style="fill:#454545;font-family:Delius;font-size:12.00pt;font-weight:bold" xml:space="preserve"><tspan style="font-size:17.00pt" y="17.3" x="8.8">phosphorus</tspan></text></g><g transform="translate(182.011791,19.599170)" id="shape38"><path stroke-width="2" fill="none" d="M.0,.0L121.3,.0C121.3,-3.3,124.0,-6.0,127.3,-6.0C130.6,-6.0,133.3,-3.3,133.3,.0L250.6,.0" stroke="#454545"/><path stroke-width="1" fill="#454545" d="M250.6,-5.2L255.9,.0L250.6,5.3L250.6,-5.2" stroke-linecap="round" stroke="#454545"/></g><g transform="translate(145.356673,-0.000014)" id="shape39"><text style="fill:#454545;font-family:Delius;font-size:16.00pt;font-weight:bold" xml:space="preserve"><tspan y="16.3" x="108.3">bacillus</tspan></text></g></g><path stroke-width="1" fill="none" d="M.0,.0L.0,-58.0" transform="translate(251.615555,126.000016)" id="shape40" stroke="#9b9b9b"/></g><g transform="translate(1248.345606,551.000000)" id="shape41"><text style="fill:#c2c2c2;font-family:Delius;font-size:18.00pt;font-weight:bold" xml:space="preserve"><tspan y="28.0" x="5.5">Nh-emon</tspan></text></g></g></svg>