<svg width="1253" xmlns="http://www.w3.org/2000/svg" xmlns:xlink="http://www.w3.org/1999/xlink" height="665" viewBox="0 0 1253 665" xmlns:ev="http://www.w3.org/2001/xml-events"><defs><linearGradient x2="100%" y2="0%" x1="0%" y1="0%" id="lg1"><stop offset="0.00" stop-color="#b66559"/><stop offset="0.00" stop-color="#b66559"/><stop offset="1.00" stop-color="#912a00"/></linearGradient></defs><g transform="translate(5.5,5.5)" id="page1"><rect fill="#feccab" width="1243" y="0" height="655" x="0"/><g transform="translate(538.769185,313.581894)" id="shape1"><path fill="#ffffff" stroke-width="1" fill-rule="nonzero" d="M300.0,93.8L300.0,.0L.0,.0L.0,93.8L300.0,93.8z" stroke="#101843"/><text style="fill:#000000;font-family:Delius;font-size:18.00pt;font-weight:bold" xml:space="preserve"><tspan y="56.0" x="30.5">Microbiology in Food</tspan></text></g><g transform="translate(592.769685,500.210341)" id="shape2"><path fill="#e9f8f5" stroke-width="1" fill-rule="nonzero" d="M192.0,60.0L192.0,.0L.0,.0L.0,60.0L192.0,60.0z" stroke="#4ed7c5"/><text style="fill:#191919;font-family:Delius;font-size:18.00pt;font-weight:bold" xml:space="preserve"><tspan y="39.0" x="31.0">Bio-control</tspan></text></g><g transform="translate(1008.769685,407.581894)" id="shape3"><path fill="#fff0e7" stroke-width="1" fill-rule="nonzero" d="M192.0,60.0L192.0,.0L.0,.0L.0,60.0L192.0,60.0z" stroke="#fe9d17"/><text style="fill:#191919;font-family:Delius;font-size:18.00pt;font-weight:bold" xml:space="preserve"><tspan y="39.0" x="26.5">Food Safety</tspan></text></g><g transform="translate(1008.769685,294.581894)" id="shape4"><path fill="#fff0e7" stroke-width="1" fill-rule="nonzero" d="M192.0,60.0L192.0,.0L.0,.0L.0,60.0L192.0,60.0z" stroke="#fe9d17"/><text style="fill:#191919;font-family:Delius;font-size:18.00pt;font-weight:bold" xml:space="preserve"><tspan y="39.0" x="22.0">Preservation</tspan></text></g><g transform="translate(120.769685,313.581894)" id="shape5"><path fill="#e8e9f5" stroke-width="1" fill-rule="nonzero" d="M208.0,60.0L208.0,.0L.0,.0L.0,60.0L208.0,60.0z" stroke="#4155c6"/><text style="fill:#191919;font-family:Delius;font-size:18.00pt;font-weight:bold" xml:space="preserve"><tspan y="39.0" x="47.0">Probiotics</tspan></text></g><g transform="translate(120.769685,426.581894)" id="shape6"><path fill="#e8e9f5" stroke-width="1" fill-rule="nonzero" d="M208.0,76.0L208.0,.0L.0,.0L.0,76.0L208.0,76.0z" stroke="#4155c6"/><text style="fill:#191919;font-family:Delius;font-size:18.00pt;font-weight:bold" xml:space="preserve"><tspan y="47.0" x="8.5">Food Production</tspan></text></g><g transform="translate(592.769685,176.000000)" id="shape7"><path fill="#e9f8f5" stroke-width="1" fill-rule="nonzero" d="M192.0,60.0L192.0,.0L.0,.0L.0,60.0L192.0,60.0z" stroke="#4ed7c5"/><text style="fill:#191919;font-family:Delius;font-size:18.00pt;font-weight:bold" xml:space="preserve"><tspan y="39.0" x="17.0">Fermentation</tspan></text></g><g transform="translate(482.518685,5.537000)" id="group8"><g transform="translate(9.000000,0.000000)" id="group9"><g id="shape10"><text style="fill:#000000;font-family:Delius;font-size:12.00pt;font-weight:bold" xml:space="preserve"><tspan y="27.0" x="9.2">Milk</tspan></text></g><g transform="translate(308.639700,0.000000)" id="shape11"><text style="fill:#000000;font-family:Delius;font-size:12.00pt;font-weight:bold" xml:space="preserve"><tspan y="27.0" x="7.2">yogurt,cheese,kefir</tspan></text></g><g transform="translate(51.361000,20.832000)" id="shape12"><path stroke-width="2" fill="none" d="M.0,.0L128.6,.0L128.6,.0L252.0,.0" stroke="#000000"/><path stroke-width="1" fill="#000000" d="M252.0,-5.2L257.3,.0L252.0,5.3L252.0,-5.2" stroke-linecap="round" stroke="#000000"/></g><g transform="translate(55.373000,0.000000)" id="shape13"><text style="fill:#000000;font-family:Delius;font-size:11.00pt;font-weight:bold" xml:space="preserve"><tspan y="13.0" x="107.9">LAB</tspan></text></g></g><g transform="translate(9.000000,32.907600)" id="group14"><g id="shape15"><text style="fill:#000000;font-family:Delius;font-size:12.00pt;font-weight:bold" xml:space="preserve"><tspan y="27.0" x="10.0">grains,fruits</tspan></text></g><g transform="translate(288.001000,0.000000)" id="shape16"><text style="fill:#000000;font-family:Delius;font-size:12.00pt;font-weight:bold" xml:space="preserve"><tspan y="27.0" x="12.5">wine,bear,kombucha</tspan></text></g><g transform="translate(118.000000,20.832000)" id="shape17"><path stroke-width="2" fill="none" d="M.0,.0L128.6,.0L128.6,.0L164.8,.0" stroke="#000000"/><path stroke-width="1" fill="#000000" d="M164.8,-5.2L170.0,.0L164.8,5.3L164.8,-5.2" stroke-linecap="round" stroke="#000000"/></g><g transform="translate(55.373000,-0.000020)" id="shape18"><text style="fill:#000000;font-family:Delius;font-size:11.00pt;font-weight:bold" xml:space="preserve"><tspan y="13.5" x="101.9">yeast</tspan></text></g></g><g transform="translate(0.000000,70.926100)" id="group19"><g id="shape20"><text style="fill:#000000;font-family:Delius;font-size:12.00pt;font-weight:bold" xml:space="preserve"><tspan y="27.0" x="15.0">vegetables</tspan></text></g><g transform="translate(288.000500,0.000000)" id="shape21"><text style="fill:#000000;font-family:Delius;font-size:12.00pt;font-weight:bold" xml:space="preserve"><tspan y="27.0" x="12.0">kimchi,pickles</tspan></text></g><g transform="translate(118.000000,20.832000)" id="shape22"><path stroke-width="2" fill="none" d="M.0,.0L82.3,.0C82.3,-3.3,84.9,-6.0,88.3,-6.0C91.6,-6.0,94.3,-3.3,94.3,.0L128.6,.0L128.6,.0L164.8,.0" stroke="#000000"/><path stroke-width="1" fill="#000000" d="M164.8,-5.2L170.0,.0L164.8,5.3L164.8,-5.2" stroke-linecap="round" stroke="#000000"/></g><g transform="translate(55.373000,-0.000020)" id="shape23"><text style="fill:#000000;font-family:Delius;font-size:11.00pt;font-weight:bold" xml:space="preserve"><tspan y="13.5" x="91.4">bacteria</tspan></text></g></g></g><g transform="translate(1008.769685,218.581894)" id="shape24"><path fill="#ffffff" stroke-width="1" fill-rule="nonzero" d="M233.0,42.0L233.0,.0L.0,.0L.0,42.0L233.0,42.0z" stroke="#101843"/><text style="fill:#000000;font-family:Delius;font-size:12.00pt;font-weight:bold" xml:space="preserve"><tspan y="27.0" x="5.0">LAB inhibit,no refrigeration</tspan></text></g><g transform="translate(1008.769685,512.410341)" id="shape25"><path fill="#ffffff" stroke-width="1" fill-rule="nonzero" d="M221.0,35.6L221.0,.0L.0,.0L.0,35.6L221.0,35.6z" stroke="#101843"/><text style="fill:#000000;font-family:Delius;font-size:12.00pt;font-weight:bold" xml:space="preserve"><tspan y="23.8" x="38.0">pcr,elisa,culturing</tspan></text></g><g transform="translate(136.769685,218.581894)" id="shape26"><path fill="#ffffff" stroke-width="1" fill-rule="nonzero" d="M192.0,42.0L192.0,.0L.0,.0L.0,42.0L192.0,42.0z" stroke="#101843"/><text style="fill:#000000;font-family:Delius;font-size:12.00pt;font-weight:bold" xml:space="preserve"><tspan y="27.0" x="10.0">gut,immune,digestive</tspan></text></g><g transform="translate(1.269685,555.581894)" id="shape27"><path fill="#ffffff" stroke-width="1" fill-rule="nonzero" d="M327.5,76.0L327.5,.0L.0,.0L.0,76.0L327.5,76.0z" stroke="#101843"/><text style="fill:#000000;font-family:Delius;font-size:12.00pt;font-weight:bold" xml:space="preserve"><tspan y="24.0" x="123.8">enzymes- </tspan><tspan y="44.0" x="6.8">amylase,protease,lipase,vitamin,amino </tspan><tspan y="64.0" x="120.8">acid,flavor</tspan></text></g><path stroke-width="1" fill="none" d="M.0,.0L.0,45.0" transform="translate(688.769685,560.210341)" id="shape28" stroke="#191919"/><g transform="translate(592.769685,605.081894)" id="shape29"><path fill="#ffffff" stroke-width="1" fill-rule="nonzero" d="M192.0,41.5L192.0,7.0C192.0,3.1,188.9,.0,185.0,.0L7.0,.0C3.1,.0,.0,3.1,.0,7.0L.0,41.5C.0,45.4,3.1,48.5,7.0,48.5L185.0,48.5C188.9,48.5,192.0,45.4,192.0,41.5z" stroke="#101843"/><text style="fill:#000000;font-family:Delius;font-size:12.00pt;font-weight:bold" xml:space="preserve"><tspan y="30.2" x="10.5">extend food shelf life</tspan></text></g><g transform="translate(688.769685,313.581894)" id="shape30"><path stroke-width="1" fill="none" d="M.0,.0L.0,-71.0" stroke="#191919"/><path stroke-width="1" fill="#191919" d="M-3.0,-71.0L.0,-77.0L3.0,-71.0L-3.0,-71.0" stroke-linecap="round" stroke="#191919"/></g><g transform="translate(838.770185,360.457050)" id="shape31"><path stroke-width="1" fill="none" d="M.0,.0L142.0,.0L142.0,-36.0L164.0,-36.0" stroke="#191919"/><path stroke-width="1" fill="#191919" d="M164.0,-39.0L170.0,-36.0L164.0,-33.0L164.0,-39.0" stroke-linecap="round" stroke="#191919"/></g><g transform="translate(838.770185,386.800888)" id="shape32"><path stroke-width="1" fill="none" d="M.0,.0L142.0,.0L142.0,51.0L164.0,51.0" stroke="#191919"/><path stroke-width="1" fill="#191919" d="M164.0,48.0L170.0,51.0L164.0,54.0L164.0,48.0" stroke-linecap="round" stroke="#191919"/></g><g transform="translate(538.769185,360.457050)" id="shape33"><path stroke-width="1" fill="none" d="M.0,.0L-182.0,.0L-182.0,-29.0L-204.0,-29.0" stroke="#191919"/><path stroke-width="1" fill="#191919" d="M-204.0,-26.0L-210.0,-29.0L-204.0,-32.0L-204.0,-26.0" stroke-linecap="round" stroke="#191919"/></g><g transform="translate(538.769185,380.144616)" id="shape34"><path stroke-width="1" fill="none" d="M.0,.0L-182.0,.0L-182.0,84.0L-204.0,84.0" stroke="#191919"/><path stroke-width="1" fill="#191919" d="M-204.0,87.0L-210.0,84.0L-204.0,81.0L-204.0,87.0" stroke-linecap="round" stroke="#191919"/></g><g transform="translate(688.769685,407.332206)" id="shape35"><path stroke-width="1" fill="none" d="M.0,.0L.0,86.0" stroke="#191919"/><path stroke-width="1" fill="#191919" d="M3.0,86.0L.0,92.0L-3.0,86.0L3.0,86.0" stroke-linecap="round" stroke="#191919"/></g><path stroke-width="1" fill="none" d="M.0,.0L.0,-79.0" transform="translate(688.769685,176.000000)" id="shape36" stroke="#191919"/><path stroke-width="1" fill="none" d="M.0,.0L.0,-28.0L8.0,-28.0L8.0,-53.0" transform="translate(224.769685,313.581894)" id="shape37" stroke="#191919"/><path stroke-width="1" fill="none" d="M.0,.0L.0,28.0L-59.0,28.0L-59.0,53.0" transform="translate(224.769685,502.581894)" id="shape38" stroke="#191919"/><g transform="translate(1104.769685,294.581894)" id="shape39"><path stroke-width="1" fill="none" d="M.0,.0L.0,-28.0" stroke="#191919"/><path stroke-width="1" fill="#191919" d="M-3.0,-28.0L.0,-34.0L3.0,-28.0L-3.0,-28.0" stroke-linecap="round" stroke="#191919"/></g><g transform="translate(1104.769685,467.581894)" id="shape40"><path stroke-width="1" fill="none" d="M.0,.0L.0,28.0L14.0,28.0L14.0,39.0" stroke="#191919"/><path stroke-width="1" fill="#191919" d="M17.0,39.0L14.0,45.0L11.0,39.0L17.0,39.0" stroke-linecap="round" stroke="#191919"/></g><g transform="translate(971.519685,38.365750)" id="group41"><path fill="url(#lg1)" fill-rule="nonzero" d="M4.2,.0C4.2,.0,4.6,.2,4.4,.4C4.4,.4,4.0,1.1,4.5,1.4C4.5,1.4,4.4,2.2,4.2,3.0C3.9,3.9,3.4,6.1,3.3,10.0C3.3,10.0,3.4,11.4,1.5,13.0C1.5,13.0,.0,14.6,.0,16.8L.0,39.8C.0,39.8,-0.2,42.4,1.1,44.6C1.1,44.6,1.7,45.5,6.9,45.5C12.0,45.5,12.8,44.6,12.8,44.6C12.8,44.6,14.3,43.5,14.0,39.8L14.0,17.0C14.0,17.0,14.2,15.1,12.4,13.0C12.4,13.0,10.7,11.4,10.7,9.9C10.7,9.9,10.4,5.5,9.6,2.6C9.6,2.6,9.5,2.0,9.4,1.4C9.4,1.4,10.0,.9,9.5,.4C9.5,.4,9.4,.0,9.8,.0L4.2,.0z" transform="matrix(-1.000000,0.000000,0.000000,1.000000,14.000000,1.754276)" id="shape42"/><path fill="#482718" fill-rule="nonzero" d="M.0,1.8C.0,1.8,.0,.5,.8,.3C.8,.3,2.9,-0.4,4.7,.3C4.7,.3,5.7,.8,5.6,1.8L.0,1.8z" transform="matrix(-1.000000,0.000000,0.000000,1.000000,9.813188,-0.000274)" id="shape43"/><path fill="#ffffff" fill-rule="nonzero" fill-opacity="0.25" d="M2.5,.0L3.7,.0C3.7,.0,1.9,1.4,2.1,8.4L.1,8.4C.1,8.4,-0.7,2.8,2.5,.0z" transform="matrix(-1.000000,0.000000,0.000000,1.000000,12.029206,13.248037)" id="shape44"/><path fill="#b66559" fill-rule="nonzero" d="M.0,.0C.0,.0,2.0,1.4,2.1,4.5L2.1,7.6L2.4,7.6L2.4,4.5C2.4,4.5,2.3,1.2,.0,.0z" transform="matrix(-1.000000,0.000000,0.000000,1.000000,3.597034,14.102959)" id="shape45"/><path fill="#ffffff" fill-rule="nonzero" fill-opacity="0.25" d="M1.0,.0L1.9,.0C1.9,.0,.6,4.8,1.1,9.3L.0,9.3C.0,9.3,-0.2,4.1,1.0,.0z" transform="matrix(-1.000000,0.000000,0.000000,1.000000,9.450567,3.256067)" id="shape46"/><path fill="#671600" fill-rule="nonzero" d="M.0,1.4C.0,1.4,-0.2,.0,5.7,.0C11.5,.0,11.7,1.4,11.7,1.4C11.7,1.4,11.1,2.2,5.8,2.2C.6,2.2,.0,1.4,.0,1.4z" transform="matrix(-1.000000,0.000000,0.000000,1.000000,12.930386,44.993292)" id="shape47"/><path fill="#ffffff" fill-rule="nonzero" fill-opacity="0.18" d="M.0,-0.0C.0,-0.0,-0.2,3.7,.6,5.4C.6,5.4,1.7,5.0,2.5,5.1C2.5,5.1,1.7,1.9,2.1,-0.0L.0,-0.0z" transform="matrix(-1.000000,0.000000,0.000000,1.000000,12.307680,40.272384)" id="shape48"/><path fill="#892801" fill-rule="nonzero" fill-opacity="0.67" d="M4.2,.0C4.2,.0,4.6,.2,4.4,.4C4.4,.4,4.0,1.1,4.5,1.4C4.5,1.4,4.4,2.2,4.2,3.0C3.9,3.9,3.4,6.1,3.3,10.0C3.3,10.0,3.4,11.4,1.5,13.0C1.5,13.0,.0,14.6,.0,16.8L.0,39.8C.0,39.8,-0.2,42.4,1.1,44.6C1.1,44.6,1.7,45.3,6.5,45.5C6.5,45.5,1.6,45.0,2.0,39.1L2.0,17.1C2.0,17.1,1.9,14.0,4.2,11.6C4.2,11.6,4.4,11.3,4.4,10.4C4.4,10.4,4.3,5.5,5.9,.0L4.2,.0z" transform="matrix(-1.000000,0.000000,0.000000,1.000000,13.999972,1.754252)" id="shape49"/><path fill="#671600" fill-rule="nonzero" d="M.2,.4C.2,.4,2.1,.6,5.1,.4C5.1,.4,5.3,.4,5.4,-0.0L.0,-0.0C.0,-0.0,.1,.4,.2,.4z" transform="translate(4.351648,2.750762)" id="shape50"/><path fill="#671600" fill-rule="nonzero" d="M5.3,.4L.2,.4C.2,.4,.3,.1,-0.0,-0.0L5.4,-0.0C5.4,-0.0,5.2,.3,5.3,.4z" transform="translate(4.322353,1.769411)" id="shape51"/><path fill="#671600" fill-rule="nonzero" fill-opacity="0.58" d="M.4,-0.0C.4,-0.0,4.7,1.3,7.8,-0.0C7.8,-0.0,7.9,.5,8.2,1.1C8.2,1.1,4.0,.6,.0,1.1C.0,1.1,.4,.1,.4,-0.0z" transform="translate(2.886450,12.110807)" id="shape52"/><path fill="#892801" fill-rule="nonzero" fill-opacity="0.48" d="M1.4,.0C1.4,.0,1.0,.4,1.3,.7C1.3,.7,1.3,1.4,1.2,1.7C1.2,1.7,.3,5.8,.0,10.0C.0,10.0,2.1,10.2,2.2,10.1C2.2,10.1,1.8,7.1,2.5,1.7L2.5,1.0C2.5,1.0,2.8,.9,2.5,.5C2.5,.5,2.5,.0,2.7,.0L1.4,.0z" transform="translate(3.318679,2.148566)" id="shape53"/><path fill="#892801" fill-rule="nonzero" fill-opacity="0.83" d="M2.8,.0C2.8,.0,3.6,.0,4.5,.0C4.5,.0,2.1,1.2,1.4,3.8C1.4,3.8,1.1,5.5,1.1,8.5L1.1,30.3C1.1,30.3,1.1,32.9,6.8,34.0C6.8,34.0,3.7,34.1,1.2,33.1C1.2,33.1,-0.2,31.8,.0,28.3L.0,5.2C.0,5.2,-0.1,3.1,1.6,1.4C1.6,1.4,2.5,.5,2.8,.0z" transform="translate(0.007322,13.278005)" id="shape54"/><path fill="#e69403" fill-rule="nonzero" d="M.9,.3C.9,.3,2.9,.0,6.7,.0C10.5,.0,12.5,.3,12.5,.3C13.0,.3,13.4,.7,13.4,1.2L13.4,17.8C13.4,18.3,13.0,18.8,12.5,18.8C12.5,18.8,11.8,19.1,6.8,19.1C1.9,19.1,.9,18.8,.9,18.8C.4,18.8,.0,18.3,.0,17.8L.0,1.2C.0,.7,.4,.3,.9,.3z" transform="matrix(-1.000000,0.000000,0.000000,1.000000,13.809474,21.522577)" id="shape55"/><path fill="#e9a359" fill-rule="nonzero" d="M.9,.2C.9,.2,2.7,.0,6.1,.0C9.6,.0,11.4,.2,11.4,.2C11.9,.2,12.3,.6,12.3,1.1L12.3,16.3C12.3,16.8,11.9,17.2,11.4,17.2C11.4,17.2,10.8,17.5,6.3,17.5C1.7,17.5,.9,17.2,.9,17.2C.4,17.2,.0,16.8,.0,16.3L.0,1.1C.0,.6,.4,.2,.9,.2z" transform="matrix(-1.000000,0.000000,0.000000,1.000000,13.235103,22.340228)" id="shape56"/></g><g transform="translate(538.769185,294.581894)" id="group57"><path stroke-width="0.25" fill="none" d="M27.3,3.3C31.1,11.1,21.7,14.1,13.3,17.2C5.8,20.0,2.4,19.2,.0,13.4C1.1,7.2,2.6,5.3,12.0,2.3C21.4,-0.8,24.2,-1.1,27.3,3.3z" transform="translate(5.298294,2.039647)" id="shape58" stroke="#000000"/><path stroke-width="0.25" fill="none" d="M.0,10.1L27.3,.0" transform="translate(5.298273,5.369682)" id="shape59" stroke="#000000"/><path stroke-width="0.25" fill="none" d="M.6,20.1C-2.2,10.4,5.0,6.0,11.7,3.4C18.4,.8,28.3,-2.9,31.8,3.7C35.3,10.2,31.8,15.6,28.7,17.7C25.6,19.8,10.9,26.5,6.5,25.8C3.6,25.3,1.5,23.1,.6,20.1z" transform="translate(0.442010,0.715785)" id="shape60" stroke="#000000"/><path stroke-width="0.25" fill="none" d="M.0,12.6C.0,12.6,.5,8.4,3.0,6.2C5.4,4.1,17.0,.3,21.0,.0C24.2,-0.2,26.1,2.8,26.1,2.8C26.1,2.8,29.0,8.1,23.5,11.2C18.2,14.3,9.4,17.6,7.0,17.6C4.5,17.6,2.2,17.2,.0,12.6z" transform="translate(5.988575,2.555328)" id="shape61" stroke="#000000"/><path stroke-width="0.25" fill="none" d="M.0,11.9C.0,11.9,.4,7.9,2.9,5.9C5.5,3.9,18.5,.0,21.1,.0C23.1,.0,25.0,2.5,25.0,2.5C25.0,2.5,27.3,7.1,23.6,9.6C19.2,12.6,7.9,16.6,6.0,16.4C4.1,16.1,1.5,15.5,.0,11.9z" transform="translate(6.618329,3.132561)" id="shape62" stroke="#000000"/><path stroke-width="0.25" fill="none" d="M.1,1.9C-0.1,.6,.1,-0.3,.4,.1C.8,.5,1.0,.8,1.0,.8" transform="translate(6.830224,6.973259)" id="shape63" stroke="#000000"/><path stroke-width="0.25" fill="none" d="M.0,1.8C.8,-0.6,1.0,-0.4,.9,1.3" transform="translate(9.912309,3.886848)" id="shape64" stroke="#000000"/><path stroke-width="0.25" fill="none" d="M.6,1.2C-0.5,-0.2,.0,-0.5,1.1,.9" transform="translate(12.782496,2.678464)" id="shape65" stroke="#000000"/><path stroke-width="0.25" fill="none" d="M.0,1.5C.1,-0.2,.3,-0.7,.6,1.3" transform="translate(16.064395,1.762555)" id="shape66" stroke="#000000"/><path stroke-width="0.25" fill="none" d="M.1,1.5C-0.1,-0.9,.2,.1,1.0,1.3" transform="translate(19.491629,0.862035)" id="shape67" stroke="#000000"/><path stroke-width="0.25" fill="none" d="M.3,2.4C-0.4,-1.1,.2,-0.1,.9,1.1" transform="translate(2.936763,8.304795)" id="shape68" stroke="#000000"/><path stroke-width="0.25" fill="none" d="M1.3,.0C-0.9,-0.1,.1,.7,1.2,.7" transform="translate(0.672125,12.045394)" id="shape69" stroke="#000000"/><path stroke-width="0.25" fill="none" d="M1.4,.1C-0.5,-0.3,-0.4,.5,1.3,.9" transform="translate(0.617630,15.816801)" id="shape70" stroke="#000000"/><path stroke-width="0.25" fill="none" d="M1.4,.0C-0.3,1.2,-0.5,1.8,1.1,1.3" transform="translate(3.711816,13.476995)" id="shape71" stroke="#000000"/><path stroke-width="0.25" fill="none" d="M.7,.0C-0.3,1.4,-0.3,2.3,1.3,1.0" transform="translate(4.093302,16.801981)" id="shape72" stroke="#000000"/><path stroke-width="0.25" fill="none" d="M1.5,.0C-1.1,.0,.2,.9,1.4,.9" transform="translate(0.000000,19.264939)" id="shape73" stroke="#000000"/><path stroke-width="0.25" fill="none" d="M.5,.0C-0.6,2.1,.2,2.5,1.1,.6" transform="translate(3.487786,20.126970)" id="shape74" stroke="#000000"/><path stroke-width="0.25" fill="none" d="M.3,.0C-0.4,1.2,.3,2.0,.9,.4" transform="translate(1.229203,21.727889)" id="shape75" stroke="#000000"/><path stroke-width="0.25" fill="none" d="M.4,.0C-0.4,1.7,.0,2.8,1.1,.2" transform="translate(5.074221,22.589927)" id="shape76" stroke="#000000"/><path stroke-width="0.25" fill="none" d="M.3,.0C-0.4,2.8,.4,3.4,.9,.8" transform="translate(7.084569,24.929759)" id="shape77" stroke="#000000"/><path stroke-width="0.25" fill="none" d="M.0,.3C1.3,2.3,1.6,1.4,.5,.0" transform="translate(7.829355,21.974211)" id="shape78" stroke="#000000"/><path stroke-width="0.25" fill="none" d="M.3,.0C-0.5,2.6,.4,2.0,.9,.3" transform="translate(9.397647,23.821423)" id="shape79" stroke="#000000"/><path stroke-width="0.25" fill="none" d="M.0,.4C1.7,2.6,1.4,1.9,1.1,.0" transform="translate(10.832737,22.589941)" id="shape80" stroke="#000000"/><path stroke-width="0.25" fill="none" d="M.0,.3C1.3,2.9,1.5,1.7,.8,.0" transform="translate(13.230560,24.006132)" id="shape81" stroke="#000000"/><path stroke-width="0.25" fill="none" d="M.0,.7C2.0,1.4,1.8,1.0,.6,.0" transform="translate(14.804931,23.559725)" id="shape82" stroke="#000000"/><path stroke-width="0.25" fill="none" d="M.0,.0C1.2,2.2,1.0,2.1,.9,.1" transform="translate(15.773728,21.420036)" id="shape83" stroke="#000000"/><path stroke-width="0.25" fill="none" d="M.0,.0C.0,3.9,.7,2.6,.9,.4" transform="translate(18.534903,21.543174)" id="shape84" stroke="#000000"/><path stroke-width="0.25" fill="none" d="M.0,.7C2.1,1.2,1.5,.2,.5,.0" transform="translate(20.520999,19.572805)" id="shape85" stroke="#000000"/><path stroke-width="0.25" fill="none" d="M.0,.3C2.0,1.5,1.8,.6,.8,.0" transform="translate(22.071114,18.218197)" id="shape86" stroke="#000000"/><path stroke-width="0.25" fill="none" d="M.0,.0C.0,2.8,.8,1.8,.8,.2" transform="translate(25.558926,17.048275)" id="shape87" stroke="#000000"/><path stroke-width="0.25" fill="none" d="M.0,.0C1.0,2.6,1.6,2.2,1.1,.2" transform="translate(28.223189,15.508931)" id="shape88" stroke="#000000"/><path stroke-width="0.25" fill="none" d="M.0,.2C1.0,3.4,.8,2.5,.8,.0" transform="translate(30.160847,16.001537)" id="shape89" stroke="#000000"/><path stroke-width="0.25" fill="none" d="M.0,.5C2.6,1.7,1.9,.6,.9,.0" transform="translate(32.050082,13.045981)" id="shape90" stroke="#000000"/><path stroke-width="0.25" fill="none" d="M.0,.8C1.6,.3,.5,-0.2,.1,.1" transform="translate(33.454879,9.513177)" id="shape91" stroke="#000000"/><path stroke-width="0.25" fill="none" d="M.0,1.3C2.0,-1.3,1.1,.7,.8,1.1" transform="translate(24.783866,-0.000001)" id="shape92" stroke="#000000"/><path stroke-width="0.25" fill="none" d="M.5,.7C-0.8,-0.4,.7,-0.0,1.0,.5" transform="translate(21.641235,0.592649)" id="shape93" stroke="#000000"/><path stroke-width="0.25" fill="none" d="M.3,.9C-0.5,-0.5,.5,-0.1,.8,.9" transform="translate(27.248296,0.215509)" id="shape94" stroke="#000000"/><path stroke-width="0.25" fill="none" d="M.0,.5C1.1,-0.4,1.1,.0,.5,.7" transform="translate(29.288898,1.300749)" id="shape95" stroke="#000000"/><path stroke-width="0.25" fill="none" d="M.0,.4C1.1,-0.2,1.2,-0.1,1.3,.6C1.4,1.4,.4,1.3,.4,1.3" transform="translate(33.067359,6.011162)" id="shape96" stroke="#000000"/><path stroke-width="0.25" fill="none" d="M.0,4.3C2.0,-0.2,4.7,-1.3,6.9,1.5C9.1,4.3,10.5,8.5,6.4,14.1C2.7,19.2,7.7,23.2,8.3,24.4" transform="translate(34.133071,1.808740)" id="shape97" stroke="#000000"/><path stroke-width="0.25" fill="none" d="M.0,4.0C3.0,-0.5,4.6,-0.9,6.4,1.3C8.3,3.4,9.2,8.4,6.4,11.9C3.7,15.3,3.2,19.9,8.1,23.4" transform="translate(34.326810,2.601499)" id="shape98" stroke="#000000"/><path stroke-width="0.25" fill="none" d="M.0,.3C.0,.1,.1,.0,.3,.0C.4,.0,.5,.1,.5,.3C.5,.5,.4,.6,.3,.6C.1,.6,.0,.5,.0,.3z" transform="translate(9.379470,10.090428)" id="shape99" stroke="#000000"/><path stroke-width="0.25" fill="none" d="M.0,.3C.0,.1,.1,.0,.3,.0C.4,.0,.5,.1,.5,.3C.5,.5,.4,.6,.3,.6C.1,.6,.0,.5,.0,.3z" transform="translate(9.224522,10.706162)" id="shape100" stroke="#000000"/><path stroke-width="0.25" fill="none" d="M.0,.3C.0,.1,.1,.0,.3,.0C.4,.0,.5,.1,.5,.3C.5,.5,.4,.6,.3,.6C.1,.6,.0,.5,.0,.3z" transform="translate(9.645896,11.006331)" id="shape101" stroke="#000000"/><path stroke-width="0.25" fill="none" d="M.0,.3C.0,.1,.1,.0,.3,.0C.4,.0,.5,.1,.5,.3C.5,.5,.4,.6,.3,.6C.1,.6,.0,.5,.0,.3z" transform="translate(9.113043,12.430231)" id="shape102" stroke="#000000"/><path stroke-width="0.25" fill="none" d="M.0,.3C.0,.1,.1,.0,.3,.0C.4,.0,.5,.1,.5,.3C.5,.5,.4,.6,.3,.6C.1,.6,.0,.5,.0,.3z" transform="translate(8.492518,12.430231)" id="shape103" stroke="#000000"/><path stroke-width="0.25" fill="none" d="M.0,.3C.0,.1,.1,.0,.3,.0C.4,.0,.5,.1,.5,.3C.5,.5,.4,.6,.3,.6C.1,.6,.0,.5,.0,.3z" transform="translate(10.190867,14.929541)" id="shape104" stroke="#000000"/><path stroke-width="0.25" fill="none" d="M.0,.3C.0,.1,.1,.0,.3,.0C.4,.0,.5,.1,.5,.3C.5,.5,.4,.6,.3,.6C.1,.6,.0,.5,.0,.3z" transform="translate(11.704683,13.553962)" id="shape105" stroke="#000000"/><path stroke-width="0.25" fill="none" d="M.0,.3C.0,.1,.1,.0,.3,.0C.4,.0,.5,.1,.5,.3C.5,.5,.4,.6,.3,.6C.1,.6,.0,.5,.0,.3z" transform="translate(12.164870,14.011913)" id="shape106" stroke="#000000"/><path stroke-width="0.25" fill="none" d="M.0,.3C.0,.1,.1,.0,.3,.0C.4,.0,.5,.1,.5,.3C.5,.5,.4,.6,.3,.6C.1,.6,.0,.5,.0,.3z" transform="translate(9.490948,16.740418)" id="shape107" stroke="#000000"/><path stroke-width="0.25" fill="none" d="M.0,.3C.0,.1,.1,.0,.3,.0C.4,.0,.5,.1,.5,.3C.5,.5,.4,.6,.3,.6C.1,.6,.0,.5,.0,.3z" transform="translate(10.093965,17.294573)" id="shape108" stroke="#000000"/><path stroke-width="0.25" fill="none" d="M.0,.3C.0,.1,.1,.0,.3,.0C.4,.0,.5,.1,.5,.3C.5,.5,.4,.6,.3,.6C.1,.6,.0,.5,.0,.3z" transform="translate(11.971110,16.740418)" id="shape109" stroke="#000000"/><path stroke-width="0.25" fill="none" d="M.0,.3C.0,.1,.1,.0,.3,.0C.4,.0,.5,.1,.5,.3C.5,.5,.4,.6,.3,.6C.1,.6,.0,.5,.0,.3z" transform="translate(14.157030,16.494130)" id="shape110" stroke="#000000"/><path stroke-width="0.25" fill="none" d="M.0,.3C.0,.1,.1,.0,.3,.0C.4,.0,.5,.1,.5,.3C.5,.5,.4,.6,.3,.6C.1,.6,.0,.5,.0,.3z" transform="translate(14.804897,16.113125)" id="shape111" stroke="#000000"/><path stroke-width="0.25" fill="none" d="M.0,.3C.0,.1,.1,.0,.3,.0C.4,.0,.5,.1,.5,.3C.5,.5,.4,.6,.3,.6C.1,.6,.0,.5,.0,.3z" transform="translate(15.507317,15.939949)" id="shape112" stroke="#000000"/><path stroke-width="0.25" fill="none" d="M.0,.3C.0,.1,.1,.0,.3,.0C.4,.0,.5,.1,.5,.3C.5,.5,.4,.6,.3,.6C.1,.6,.0,.5,.0,.3z" transform="translate(18.268481,15.237408)" id="shape113" stroke="#000000"/><path stroke-width="0.25" fill="none" d="M.0,.3C.0,.1,.1,.0,.3,.0C.4,.0,.5,.1,.5,.3C.5,.5,.4,.6,.3,.6C.1,.6,.0,.5,.0,.3z" transform="translate(21.804688,14.011913)" id="shape114" stroke="#000000"/><path stroke-width="0.25" fill="none" d="M.0,.3C.0,.1,.1,.0,.3,.0C.4,.0,.5,.1,.5,.3C.5,.5,.4,.6,.3,.6C.1,.6,.0,.5,.0,.3z" transform="translate(22.386013,13.784855)" id="shape115" stroke="#000000"/><path stroke-width="0.25" fill="none" d="M.0,.3C.0,.1,.1,.0,.3,.0C.4,.0,.5,.1,.5,.3C.5,.5,.4,.6,.3,.6C.1,.6,.0,.5,.0,.3z" transform="translate(26.067551,13.311509)" id="shape116" stroke="#000000"/><path stroke-width="0.25" fill="none" d="M.0,.3C.0,.1,.1,.0,.3,.0C.4,.0,.5,.1,.5,.3C.5,.5,.4,.6,.3,.6C.1,.6,.0,.5,.0,.3z" transform="translate(27.372427,11.737524)" id="shape117" stroke="#000000"/><path stroke-width="0.25" fill="none" d="M.0,.3C.0,.1,.1,.0,.3,.0C.4,.0,.5,.1,.5,.3C.5,.5,.4,.6,.3,.6C.1,.6,.0,.5,.0,.3z" transform="translate(27.763010,11.006331)" id="shape118" stroke="#000000"/><path stroke-width="0.25" fill="none" d="M.0,.3C.0,.1,.1,.0,.3,.0C.4,.0,.5,.1,.5,.3C.5,.5,.4,.6,.3,.6C.1,.6,.0,.5,.0,.3z" transform="translate(28.416958,11.233389)" id="shape119" stroke="#000000"/><path stroke-width="0.25" fill="none" d="M.0,.3C.0,.1,.1,.0,.3,.0C.4,.0,.5,.1,.5,.3C.5,.5,.4,.6,.3,.6C.1,.6,.0,.5,.0,.3z" transform="translate(30.294060,9.197618)" id="shape120" stroke="#000000"/><path stroke-width="0.25" fill="none" d="M.0,.3C.0,.1,.1,.0,.3,.0C.4,.0,.5,.1,.5,.3C.5,.5,.4,.6,.3,.6C.1,.6,.0,.5,.0,.3z" transform="translate(29.204118,8.612647)" id="shape121" stroke="#000000"/><path stroke-width="0.25" fill="none" d="M.0,.3C.0,.1,.1,.0,.3,.0C.4,.0,.5,.1,.5,.3C.5,.5,.4,.6,.3,.6C.1,.6,.0,.5,.0,.3z" transform="translate(28.911041,7.996914)" id="shape122" stroke="#000000"/><path stroke-width="0.25" fill="none" d="M.0,.3C.0,.1,.1,.0,.3,.0C.4,.0,.5,.1,.5,.3C.5,.5,.4,.6,.3,.6C.1,.6,.0,.5,.0,.3z" transform="translate(26.333977,9.505485)" id="shape123" stroke="#000000"/><path stroke-width="0.25" fill="none" d="M.0,.3C.0,.1,.1,.0,.3,.0C.4,.0,.5,.1,.5,.3C.5,.5,.4,.6,.3,.6C.1,.6,.0,.5,.0,.3z" transform="translate(27.763010,7.011735)" id="shape124" stroke="#000000"/><path stroke-width="0.25" fill="none" d="M.0,.3C.0,.1,.1,.0,.3,.0C.4,.0,.5,.1,.5,.3C.5,.5,.4,.6,.3,.6C.1,.6,.0,.5,.0,.3z" transform="translate(27.956771,6.234358)" id="shape125" stroke="#000000"/><path stroke-width="0.25" fill="none" d="M.0,.3C.0,.1,.1,.0,.3,.0C.4,.0,.5,.1,.5,.3C.5,.5,.4,.6,.3,.6C.1,.6,.0,.5,.0,.3z" transform="translate(24.250997,6.703868)" id="shape126" stroke="#000000"/><path stroke-width="0.25" fill="none" d="M.0,.3C.0,.1,.1,.0,.3,.0C.4,.0,.5,.1,.5,.3C.5,.5,.4,.6,.3,.6C.1,.6,.0,.5,.0,.3z" transform="translate(24.250997,5.926491)" id="shape127" stroke="#000000"/><path stroke-width="0.25" fill="none" d="M.0,.3C.0,.1,.1,.0,.3,.0C.4,.0,.5,.1,.5,.3C.5,.5,.4,.6,.3,.6C.1,.6,.0,.5,.0,.3z" transform="translate(24.517423,5.349244)" id="shape128" stroke="#000000"/><path stroke-width="0.25" fill="none" d="M.0,.3C.0,.1,.1,.0,.3,.0C.4,.0,.5,.1,.5,.3C.5,.5,.4,.6,.3,.6C.1,.6,.0,.5,.0,.3z" transform="translate(25.147177,5.061813)" id="shape129" stroke="#000000"/><path stroke-width="0.25" fill="none" d="M.0,.3C.0,.1,.1,.0,.3,.0C.4,.0,.5,.1,.5,.3C.5,.5,.4,.6,.3,.6C.1,.6,.0,.5,.0,.3z" transform="translate(26.600403,5.041378)" id="shape130" stroke="#000000"/><path stroke-width="0.25" fill="none" d="M.0,.3C.0,.1,.1,.0,.3,.0C.4,.0,.5,.1,.5,.3C.5,.5,.4,.6,.3,.6C.1,.6,.0,.5,.0,.3z" transform="translate(27.638853,3.886858)" id="shape131" stroke="#000000"/><path stroke-width="0.25" fill="none" d="M.0,.3C.0,.1,.1,.0,.3,.0C.4,.0,.5,.1,.5,.3C.5,.5,.4,.6,.3,.6C.1,.6,.0,.5,.0,.3z" transform="translate(23.112626,7.565889)" id="shape132" stroke="#000000"/><path stroke-width="0.25" fill="none" d="M.0,.3C.0,.1,.1,.0,.3,.0C.4,.0,.5,.1,.5,.3C.5,.5,.4,.6,.3,.6C.1,.6,.0,.5,.0,.3z" transform="translate(21.538262,6.396002)" id="shape133" stroke="#000000"/><path stroke-width="0.25" fill="none" d="M.0,.3C.0,.1,.1,.0,.3,.0C.4,.0,.5,.1,.5,.3C.5,.5,.4,.6,.3,.6C.1,.6,.0,.5,.0,.3z" transform="translate(20.959998,5.926491)" id="shape134" stroke="#000000"/><path stroke-width="0.25" fill="none" d="M.0,.3C.0,.1,.1,.0,.3,.0C.4,.0,.5,.1,.5,.3C.5,.5,.4,.6,.3,.6C.1,.6,.0,.5,.0,.3z" transform="translate(19.715670,6.088135)" id="shape135" stroke="#000000"/><path stroke-width="0.25" fill="none" d="M.0,.3C.0,.1,.1,.0,.3,.0C.4,.0,.5,.1,.5,.3C.5,.5,.4,.6,.3,.6C.1,.6,.0,.5,.0,.3z" transform="translate(17.063482,7.011735)" id="shape136" stroke="#000000"/><path stroke-width="0.25" fill="none" d="M.0,.3C.0,.1,.1,.0,.3,.0C.4,.0,.5,.1,.5,.3C.5,.5,.4,.6,.3,.6C.1,.6,.0,.5,.0,.3z" transform="translate(16.112835,7.011735)" id="shape137" stroke="#000000"/><path stroke-width="0.25" fill="none" d="M.0,.3C.0,.1,.1,.0,.3,.0C.4,.0,.5,.1,.5,.3C.5,.5,.4,.6,.3,.6C.1,.6,.0,.5,.0,.3z" transform="translate(11.341355,8.735804)" id="shape138" stroke="#000000"/><path stroke-width="0.25" fill="none" d="M3.2,.2C2.2,1.6,1.6,.7,1.3,1.7C1.1,2.7,.9,2.9,.2,3.3C-0.5,3.8,.5,3.7,1.5,3.7C2.5,3.7,2.0,4.6,2.6,4.6C3.2,4.6,1.8,5.9,2.6,5.8C3.5,5.7,4.1,4.7,4.3,5.4C4.4,6.0,5.2,5.7,5.2,5.0C5.2,4.2,6.3,4.1,6.7,3.5C7.1,2.9,5.9,2.5,5.3,3.5C4.7,4.4,4.2,3.9,4.2,3.2C4.2,2.5,5.4,2.6,5.5,2.1C5.6,1.5,4.6,1.4,5.0,.7C5.5,-0.1,6.4,1.0,7.0,1.1C7.5,1.2,7.1,.0,7.7,.0C8.3,.0,8.5,.3,8.3,1.5C8.1,2.6,9.2,2.2,9.7,1.9C10.3,1.7,9.7,3.1,10.4,2.9C11.1,2.7,11.4,3.0,10.7,3.6C10.1,4.2,9.3,4.3,9.3,5.1" transform="translate(11.849995,8.166258)" id="shape139" stroke="#000000"/><path stroke-width="0.25" fill="none" d="M-0.0,-0.0C1.7,.7,1.1,1.7,.4,2.4C-0.4,3.0,1.4,2.6,1.8,3.2C2.1,3.8,1.9,4.4,1.8,4.9C1.6,5.4,2.4,4.6,2.8,4.9C3.1,5.1,3.2,4.7,2.9,4.0C2.7,3.3,3.4,3.3,4.1,4.5" transform="translate(13.902674,9.382330)" id="shape140" stroke="#000000"/><path stroke-width="0.25" fill="none" d="M-0.0,1.3C1.5,2.0,1.9,.9,2.6,1.5C3.2,2.2,2.9,2.4,3.6,1.5C4.3,.7,3.7,.5,3.0,1.0C2.2,1.5,3.0,.3,2.7,.0C2.3,-0.2,1.9,.8,1.4,1.0" transform="translate(17.390493,11.383476)" id="shape141" stroke="#000000"/><path stroke-width="0.25" fill="none" d="M-0.0,1.5C2.1,1.6,3.4,1.9,2.8,1.0C2.1,.0,2.7,.1,3.6,.0" transform="translate(21.471670,11.183369)" id="shape142" stroke="#000000"/><path stroke-width="0.25" fill="none" d="M6.1,1.9C4.0,1.3,3.7,.8,3.8,1.8C3.9,2.7,2.8,3.1,2.6,2.3C2.4,1.5,1.9,.0,1.3,1.5C.8,3.0,.9,2.5,.2,2.1C-0.5,1.8,.6,2.1,.8,1.5C1.0,.8,1.2,.7,1.2,.1C1.3,-0.4,.6,1.1,.6,1.1" transform="translate(19.806493,8.805082)" id="shape143" stroke="#000000"/><path stroke-width="0.25" fill="none" d="M.2,2.4C-0.5,1.2,1.0,2.3,1.4,1.1C1.9,-0.0,2.5,.9,2.6,.5C2.6,.1,3.0,-0.2,3.7,.2C4.4,.6,3.9,1.4,4.4,1.2C5.0,1.1,5.5,1.0,5.1,.4" transform="translate(14.199424,9.320751)" id="shape144" stroke="#000000"/></g></g></svg>