<svg height="329" width="546" xmlns:ev="http://www.w3.org/2001/xml-events" viewBox="0 0 546 329" xmlns:xlink="http://www.w3.org/1999/xlink" xmlns="http://www.w3.org/2000/svg"><defs/><g transform="translate(5.5,5.5)" id="page1"><rect height="319" x="0" width="536" fill="#fce9eb" y="0"/><g transform="translate(199.000000,89.700787)" id="group1"><path id="shape2" fill-rule="nonzero" d="M124.0,62.0C124.0,96.2,96.2,124.0,62.0,124.0C27.8,124.0,.0,96.2,.0,62.0C.0,27.8,27.8,.0,62.0,.0C96.2,.0,124.0,27.8,124.0,62.0z" stroke-width="1" fill="#696969" stroke="#696969"/><path transform="translate(31.795150,26.425702)" id="shape3" fill-rule="nonzero" d="M12.3,71.1C6.3,70.2,3.9,68.0,2.1,64.8C-2.0,57.8,1.1,46.4,1.7,44.8C4.3,36.5,9.9,34.0,13.4,33.2C17.5,37.5,23.5,40.2,30.2,40.2C36.9,40.2,42.9,37.5,47.0,33.2C50.5,34.0,56.1,36.5,58.7,44.8C59.3,46.4,62.4,57.8,58.4,64.8C56.5,68.0,54.1,70.2,48.1,71.1L12.3,71.1zM30.2,33.0C39.2,33.0,46.5,25.6,46.5,16.5C46.5,7.4,39.2,.0,30.2,.0C21.2,.0,13.9,7.4,13.9,16.5C13.9,25.6,21.2,33.0,30.2,33.0z" fill="#ffffff"/></g><g transform="translate(1.000000,0.700787)" id="shape4"><path fill-rule="nonzero" d="M120.0,57.0C126.6,57.0,132.0,51.6,132.0,45.0L132.0,12.0C132.0,5.4,126.6,.0,120.0,.0L12.0,.0C5.4,.0,.0,5.4,.0,12.0L.0,45.0C.0,51.6,5.4,57.0,12.0,57.0L120.0,57.0z" stroke-width="2.333329916000366" fill="#ffecd1" stroke="#95762d"/><text xml:space="preserve" style="fill:#191919;font-family:Calibri;font-size:16.00pt"><tspan x="48.5" y="35.5">Skill</tspan></text></g><g transform="translate(1.000000,89.700787)" id="shape5"><path fill-rule="nonzero" d="M120.0,57.0C126.6,57.0,132.0,51.6,132.0,45.0L132.0,12.0C132.0,5.4,126.6,.0,120.0,.0L12.0,.0C5.4,.0,.0,5.4,.0,12.0L.0,45.0C.0,51.6,5.4,57.0,12.0,57.0L120.0,57.0z" stroke-width="2.333329916000366" fill="#ffecd1" stroke="#95762d"/><text xml:space="preserve" style="fill:#191919;font-family:Calibri;font-size:14.00pt"><tspan x="5.0" y="35.0">Communication</tspan></text></g><g transform="translate(195.000000,260.700787)" id="shape6"><path fill-rule="nonzero" d="M120.0,57.0C126.6,57.0,132.0,51.6,132.0,45.0L132.0,12.0C132.0,5.4,126.6,.0,120.0,.0L12.0,.0C5.4,.0,.0,5.4,.0,12.0L.0,45.0C.0,51.6,5.4,57.0,12.0,57.0L120.0,57.0z" stroke-width="1" fill="#ffa3a0" stroke="#8dc0ff"/><text xml:space="preserve" style="fill:#191919;font-family:Calibri;font-size:16.00pt"><tspan x="29.0" y="35.5">Principle</tspan></text></g><g transform="translate(403.000000,0.700787)" id="shape7"><path fill-rule="nonzero" d="M120.0,57.0C126.6,57.0,132.0,51.6,132.0,45.0L132.0,12.0C132.0,5.4,126.6,.0,120.0,.0L12.0,.0C5.4,.0,.0,5.4,.0,12.0L.0,45.0C.0,51.6,5.4,57.0,12.0,57.0L120.0,57.0z" stroke-width="2.333329916000366" fill="#ffd8d7" stroke="#954744"/><text xml:space="preserve" style="fill:#191919;font-family:Calibri;font-size:16.00pt"><tspan x="38.0" y="35.5">Health</tspan></text></g><g transform="translate(403.000000,178.700787)" id="shape8"><path fill-rule="nonzero" d="M120.0,57.0C126.6,57.0,132.0,51.6,132.0,45.0L132.0,12.0C132.0,5.4,126.6,.0,120.0,.0L12.0,.0C5.4,.0,.0,5.4,.0,12.0L.0,45.0C.0,51.6,5.4,57.0,12.0,57.0L120.0,57.0z" stroke-width="2.333329916000366" fill="#ffd8d7" stroke="#954744"/><text xml:space="preserve" style="fill:#191919;font-family:Calibri;font-size:16.00pt"><tspan x="30.5" y="35.5">LifeStyle</tspan></text></g><g transform="translate(403.000000,260.700787)" id="shape9"><path fill-rule="nonzero" d="M120.0,57.0C126.6,57.0,132.0,51.6,132.0,45.0L132.0,12.0C132.0,5.4,126.6,.0,120.0,.0L12.0,.0C5.4,.0,.0,5.4,.0,12.0L.0,45.0C.0,51.6,5.4,57.0,12.0,57.0L120.0,57.0z" stroke-width="2.333329916000366" fill="#ffd8d7" stroke="#954744"/><text xml:space="preserve" style="fill:#191919;font-family:Calibri;font-size:16.00pt"><tspan x="22.5" y="35.5">Hesitation</tspan></text></g><g transform="translate(195.000000,0.700787)" id="shape10"><path fill-rule="nonzero" d="M120.0,57.0C126.6,57.0,132.0,51.6,132.0,45.0L132.0,12.0C132.0,5.4,126.6,.0,120.0,.0L12.0,.0C5.4,.0,.0,5.4,.0,12.0L.0,45.0C.0,51.6,5.4,57.0,12.0,57.0L120.0,57.0z" stroke-width="2.333329916000366" fill="#cfd7ff" stroke="#254694"/><text xml:space="preserve" style="fill:#191919;font-family:Calibri;font-size:16.00pt"><tspan x="23.5" y="35.5">Education</tspan></text></g><g transform="translate(1.000000,260.700787)" id="shape11"><path fill-rule="nonzero" d="M120.0,57.0C126.6,57.0,132.0,51.6,132.0,45.0L132.0,12.0C132.0,5.4,126.6,.0,120.0,.0L12.0,.0C5.4,.0,.0,5.4,.0,12.0L.0,45.0C.0,51.6,5.4,57.0,12.0,57.0L120.0,57.0z" stroke-width="2.333329916000366" fill="#ffecd1" stroke="#95762d"/><text xml:space="preserve" style="fill:#191919;font-family:Calibri;font-size:16.00pt"><tspan x="31.5" y="35.5">Hygiene</tspan></text></g><g transform="translate(1.000000,178.700787)" id="shape12"><path fill-rule="nonzero" d="M120.0,57.0C126.6,57.0,132.0,51.6,132.0,45.0L132.0,12.0C132.0,5.4,126.6,.0,120.0,.0L12.0,.0C5.4,.0,.0,5.4,.0,12.0L.0,45.0C.0,51.6,5.4,57.0,12.0,57.0L120.0,57.0z" stroke-width="2.333329916000366" fill="#ffecd1" stroke="#95762d"/><text xml:space="preserve" style="fill:#191919;font-family:Calibri;font-size:16.00pt"><tspan x="32.0" y="35.5">Religion</tspan></text></g><g transform="translate(403.000000,89.700787)" id="shape13"><path fill-rule="nonzero" d="M120.0,57.0C126.6,57.0,132.0,51.6,132.0,45.0L132.0,12.0C132.0,5.4,126.6,.0,120.0,.0L12.0,.0C5.4,.0,.0,5.4,.0,12.0L.0,45.0C.0,51.6,5.4,57.0,12.0,57.0L120.0,57.0z" stroke-width="2.333329916000366" fill="#ffd8d7" stroke="#954744"/><text xml:space="preserve" style="fill:#191919;font-family:Calibri;font-size:16.00pt"><tspan x="30.0" y="22.5">Decision </tspan><tspan x="34.0" y="48.5">Making</tspan></text></g><path transform="translate(261.000000,260.700787)" id="shape14" d="M.0,.0L.0,-47.0" stroke-width="2" fill="none" stroke="#afafaf"/><path transform="translate(261.000000,57.000000)" id="shape15" d="M.0,.0L.0,32.0" stroke-width="2.666666746139526" fill="none" stroke="#c2c2c2"/><path transform="matrix(0.000000,1.000000,-1.000000,0.000000,162.000000,24.700787)" id="shape16" d="M.0,.0L222.0,.0" stroke-width="2.666666746139526" fill="none" stroke="#afafaf"/><path transform="translate(133.000000,29.000000)" id="shape17" d="M.0,.0L28.0,.0" stroke-width="2.666666746139526" fill="none" stroke="#afafaf"/><path transform="translate(199.000000,157.000000)" id="shape18" d="M.0,.0L-32.0,.0" stroke-width="2.666666746139526" fill="none" stroke="#afafaf"/><path transform="translate(133.000000,118.000000)" id="shape19" d="M.0,.0L28.0,.0" stroke-width="2.666666746139526" fill="none" stroke="#c2c2c2"/><path transform="translate(133.000000,207.000000)" id="shape20" d="M.0,.0L28.0,.0" stroke-width="2.666666746139526" fill="none" stroke="#afafaf"/><path transform="translate(403.000000,29.000000)" id="shape21" d="M.0,.0L-38.0,.0" stroke-width="2.666666746139526" fill="none" stroke="#afafaf"/><path transform="translate(403.000000,118.000000)" id="shape22" d="M.0,.0L-38.0,.0" stroke-width="2.666666746139526" fill="none" stroke="#afafaf"/><path transform="translate(403.000000,207.000000)" id="shape23" d="M.0,.0L-38.0,.0" stroke-width="2.666666746139526" fill="none" stroke="#afafaf"/><path transform="translate(322.000000,156.000000)" id="shape24" d="M.0,.0L38.0,.0" stroke-width="2.666666746139526" fill="none" stroke="#afafaf"/><path transform="matrix(0.000000,1.000000,-1.000000,0.000000,365.000000,29.000000)" id="shape25" d="M.0,.0L217.7,.0" stroke-width="2.666666746139526" fill="none" stroke="#afafaf"/><path transform="translate(403.000000,289.000000)" id="shape26" d="M.0,.0L-23.0,.0C-31.3,.0,-38.0,-6.7,-38.0,-15.0L-38.0,-82.0" stroke-width="2.666666746139526" fill="none" stroke="#afafaf"/><path transform="translate(133.000000,289.000000)" id="shape27" d="M.0,.0L14.0,.0C21.7,.0,28.0,-6.3,28.0,-14.0L28.0,-63.0" stroke-width="2.666666746139526" fill="none" stroke="#afafaf"/></g></svg>