<svg height="648" xmlns="http://www.w3.org/2000/svg" width="801" xmlns:xlink="http://www.w3.org/1999/xlink" xmlns:ev="http://www.w3.org/2001/xml-events" viewBox="0 0 801 648"><defs><linearGradient id="lg1" x2="0%" y2="100%" y1="0%" x1="0%"><stop stop-color="#feb478" stop-opacity="0.26" offset="0.24"/><stop stop-color="#e48c13" offset="1.00"/></linearGradient><linearGradient id="lg2" x2="0%" y2="100%" y1="0%" x1="0%"><stop stop-color="#feb06e" stop-opacity="0.40" offset="0.00"/><stop stop-color="#e68e14" offset="1.00"/></linearGradient><linearGradient id="lg3" x2="0%" y2="100%" y1="0%" x1="0%"><stop stop-color="#ffe0df" stop-opacity="0.26" offset="0.24"/><stop stop-color="#e5c1c0" offset="1.00"/></linearGradient><linearGradient id="lg4" x2="0%" y2="100%" y1="0%" x1="0%"><stop stop-color="#ffdede" stop-opacity="0.40" offset="0.00"/><stop stop-color="#e7c4c3" offset="1.00"/></linearGradient></defs><g id="page1" transform="translate(5.5,5.5)"><rect height="638" y="0" x="0" width="791" fill="#cfd1ea"/><g id="group1" transform="translate(66.625000,195.350253)"><path id="shape2" fill="#7e7e7e" fill-rule="nonzero" d="M.0,.2C.0,.2,184.5,-12.5,180.3,180.7C176.1,373.9,3.2,363.9,3.2,363.9L.0,.2z" transform="translate(341.636300,0.000000)"/><path id="shape3" fill="#e9f8f5" fill-rule="nonzero" d="M.0,.2C.0,.2,184.5,-12.5,180.3,180.7C176.1,373.9,3.2,363.9,3.2,363.9L.0,.2z" transform="translate(326.760000,0.000000)"/><path stroke="#000000" stroke-width="2.666670083999634" id="shape4" fill="none" d="M.0,.0L628.0,.0" transform="translate(0.000000,182.000000)"/><path stroke="#000000" stroke-width="1" id="shape5" fill="#379e90" fill-rule="nonzero" d="M.0,8.2C.0,3.7,3.7,.0,8.2,.0C12.8,.0,16.4,3.7,16.4,8.2C16.4,12.8,12.8,16.5,8.2,16.5C3.7,16.5,.0,12.8,.0,8.2z" transform="translate(407.780300,173.771570)"/><path stroke="#000000" stroke-width="1" id="shape6" fill="#e08a13" fill-rule="nonzero" d="M.0,8.0C.0,3.6,3.6,.0,8.0,.0C12.4,.0,16.0,3.6,16.0,8.0C16.0,12.4,12.4,16.0,8.0,16.0C3.6,16.0,.0,12.4,.0,8.0z" transform="translate(499.000000,173.991510)"/><g id="shape7" transform="translate(311.000000,140.000300)"><text xml:space="preserve" style="fill:#191919;font-family:Delius;font-size:13.00pt"><tspan y="29.3" x="10.5">c</tspan></text></g><g id="shape8" transform="translate(402.000000,154.450300)"><text xml:space="preserve" style="fill:#191919;font-family:Delius;font-size:13.00pt"><tspan y="17.8" x="12.0">f</tspan></text></g><g id="shape9" transform="translate(500.000000,148.000000)"><text xml:space="preserve" style="fill:#191919;font-family:Delius;font-size:13.00pt"><tspan y="15.5" x="10.0">p</tspan></text></g><path stroke="#000000" stroke-width="1" id="shape10" fill="#ffa3a0" fill-rule="nonzero" d="M.0,8.2C.0,3.7,3.7,.0,8.2,.0C12.8,.0,16.4,3.7,16.4,8.2C16.4,12.8,12.8,16.5,8.2,16.5C3.7,16.5,.0,12.8,.0,8.2z" transform="translate(318.540290,173.771560)"/></g><path stroke="#ff7e79" stroke-width="2.666670083999634" id="shape11" fill="none" d="M.0,.0L284.0,.0" transform="matrix(0.746437,0.665456,-0.665456,0.746437,354.625000,263.350253)"/><path stroke="#00b050" stroke-width="2.666670083999634" id="shape12" fill="none" d="M.0,.0L305.1,.0" transform="matrix(0.999797,-0.020159,0.020159,0.999797,261.625000,458.500000)"/><path stroke="#ff7e79" stroke-width="2.666670083999634" id="shape13" fill="none" d="M.0,.0L257.0,.0" transform="translate(316.625000,297.350253)"/><path stroke="#00b050" stroke-width="2.666670083999634" id="shape14" fill="none" d="M.0,.0L355.6,.0" transform="matrix(0.745179,-0.666864,0.666864,0.745179,308.625000,534.500000)"/><g id="group15" transform="translate(384.609410,299.852953)"><g id="group16" transform="translate(0.007660,-0.002700)"><g id="group17" transform="translate(3.038650,0.000000)"><path id="shape18" fill="#feccab" fill-rule="nonzero" d="M2.6,23.0C2.6,22.5,-2.2,17.5,1.2,10.4C4.7,3.4,6.2,1.6,6.8,.1C7.4,-1.4,11.7,9.2,12.2,10.4C12.8,11.7,14.6,18.7,9.5,23.0L2.6,23.0z" transform="translate(-0.016750,0.000000)"/><path id="shape19" fill="url(#lg1)" fill-rule="nonzero" d="M2.0,17.2C2.0,16.9,-1.7,13.1,.9,7.8C3.5,2.5,4.7,1.2,5.1,.1C5.5,-1.0,8.7,6.9,9.2,7.8C9.6,8.8,10.9,14.0,7.1,17.2L2.0,17.2z" transform="translate(1.611790,5.738880)"/><path id="shape20" fill="url(#lg2)" fill-rule="nonzero" d="M1.3,11.6C1.3,11.3,-1.1,8.8,.6,5.3C2.4,1.7,3.1,.8,3.4,.1C3.7,-0.7,5.9,4.6,6.2,5.3C6.5,5.9,7.3,9.4,4.8,11.6L1.3,11.6z" transform="translate(3.211980,11.229980)"/></g><path stroke="#000000" stroke-width="1" id="shape21" fill="#ffffff" fill-rule="nonzero" d="M.0,.0L15.5,.0L15.5,51.0L.0,51.0L.0,.0z" transform="translate(1.492240,24.994200)"/><path stroke="#000000" stroke-width="1" id="shape22" fill="#ffffff" fill-rule="nonzero" d="M4.1,.0C4.1,.0,1.5,.3,1.3,2.2C1.0,4.1,-0.3,2.5,.1,5.3C.4,8.0,2.0,8.2,1.1,10.6C.4,12.4,3.8,13.4,2.6,10.4C1.8,8.3,2.7,3.5,5.3,3.3C7.9,3.1,6.1,5.6,8.7,5.8C11.3,6.0,11.8,8.5,12.0,9.1C12.2,9.6,13.7,8.7,13.9,7.1C14.2,5.6,14.2,3.5,15.2,3.3C16.3,3.1,16.7,6.9,16.0,9.3C16.0,9.3,15.5,16.0,17.7,12.3C17.7,12.3,18.5,10.7,18.2,9.3C17.9,7.9,18.6,7.2,19.0,6.1C19.3,5.0,18.0,3.6,17.7,2.4C17.3,1.2,17.3,-0.4,15.0,.4C12.7,1.3,13.7,-0.2,11.1,.1C8.5,.4,5.1,.3,4.1,.0z" transform="translate(-0.009980,22.544370)"/></g><g id="group23" transform="matrix(1.000000,0.000000,0.000000,-1.000000,0.007660,154.997000)"><g id="group24" transform="translate(3.038650,0.000000)"><path id="shape25" fill="#ffd8d7" fill-rule="nonzero" d="M2.6,23.0C2.6,22.5,-2.2,17.5,1.2,10.4C4.7,3.4,6.2,1.6,6.8,.1C7.4,-1.4,11.7,9.2,12.2,10.4C12.8,11.7,14.6,18.7,9.5,23.0L2.6,23.0z" transform="translate(-0.016750,0.000000)"/><path id="shape26" fill="url(#lg3)" fill-rule="nonzero" d="M2.0,17.2C2.0,16.9,-1.7,13.1,.9,7.8C3.5,2.5,4.7,1.2,5.1,.1C5.5,-1.0,8.7,6.9,9.2,7.8C9.6,8.8,10.9,14.0,7.1,17.2L2.0,17.2z" transform="translate(1.611790,5.738880)"/><path id="shape27" fill="url(#lg4)" fill-rule="nonzero" d="M1.3,11.6C1.3,11.3,-1.1,8.8,.6,5.3C2.4,1.7,3.1,.8,3.4,.1C3.7,-0.7,5.9,4.6,6.2,5.3C6.5,5.9,7.3,9.4,4.8,11.6L1.3,11.6z" transform="translate(3.211980,11.229980)"/></g><path stroke="#000000" stroke-width="1" id="shape28" fill="#ebebeb" fill-rule="nonzero" d="M.0,.0L15.5,.0L15.5,51.0L.0,51.0L.0,.0z" transform="translate(1.492240,24.994200)"/><path stroke="#000000" stroke-width="1" id="shape29" fill="#ebebeb" fill-rule="nonzero" d="M4.1,.0C4.1,.0,1.5,.3,1.3,2.2C1.0,4.1,-0.3,2.5,.1,5.3C.4,8.0,2.0,8.2,1.1,10.6C.4,12.4,3.8,13.4,2.6,10.4C1.8,8.3,2.7,3.5,5.3,3.3C7.9,3.1,6.1,5.6,8.7,5.8C11.3,6.0,11.8,8.5,12.0,9.1C12.2,9.6,13.7,8.7,13.9,7.1C14.2,5.6,14.2,3.5,15.2,3.3C16.3,3.1,16.7,6.9,16.0,9.3C16.0,9.3,15.5,16.0,17.7,12.3C17.7,12.3,18.5,10.7,18.2,9.3C17.9,7.9,18.6,7.2,19.0,6.1C19.3,5.0,18.0,3.6,17.7,2.4C17.3,1.2,17.3,-0.4,15.0,.4C12.7,1.3,13.7,-0.2,11.1,.1C8.5,.4,5.1,.3,4.1,.0z" transform="translate(-0.009980,22.544370)"/></g></g><g id="shape30" transform="matrix(0.000000,-1.000000,1.000000,0.000000,457.871200,302.104053)"><text xml:space="preserve" style="fill:#191919;font-family:Arial;font-size:13.00pt"><tspan y="23.8" x="1.3">v</tspan></text></g><g id="shape31" transform="matrix(0.500000,-0.866025,0.866025,0.500000,416.872858,328.344265)"><text xml:space="preserve" style="fill:#191919;font-family:Arial;font-size:13.00pt"><tspan y="23.8" x="1.3">v</tspan></text></g><g id="shape32" transform="matrix(0.258819,0.965926,-0.965926,0.258819,492.594480,445.211413)"><text xml:space="preserve" style="fill:#191919;font-family:Arial;font-size:13.00pt"><tspan y="23.8" x="1.3">v</tspan></text></g><g id="shape33" transform="matrix(0.500000,-0.866025,0.866025,0.500000,503.945858,406.590265)"><text xml:space="preserve" style="fill:#191919;font-family:Arial;font-size:13.00pt"><tspan y="23.8" x="1.3">v</tspan></text></g><g id="shape34" transform="matrix(0.258819,0.965926,-0.965926,0.258819,387.238480,446.115413)"><text xml:space="preserve" style="fill:#191919;font-family:Arial;font-size:13.00pt"><tspan y="23.8" x="1.3">v</tspan></text></g><g id="shape35" transform="matrix(0.707107,0.707107,-0.707107,0.707107,443.667388,402.510976)"><text xml:space="preserve" style="fill:#191919;font-family:Arial;font-size:13.00pt"><tspan y="23.8" x="1.3">v</tspan></text></g><g id="shape36" transform="matrix(0.707107,0.707107,-0.707107,0.707107,380.512388,458.358976)"><text xml:space="preserve" style="fill:#191919;font-family:Arial;font-size:13.00pt"><tspan y="23.8" x="1.3">v</tspan></text></g><g id="shape37" transform="matrix(0.707107,-0.707107,0.707107,0.707107,343.299010,262.533399)"><text xml:space="preserve" style="fill:#191919;font-family:Arial;font-size:13.00pt"><tspan y="24.0" x="6.5">v</tspan></text></g><g id="shape38" transform="translate(299.625000,269.500000)"><text xml:space="preserve" style="fill:#191919;font-family:Delius;font-size:13.00pt"><tspan y="25.0" x="9.5">A</tspan></text></g><g id="shape39" transform="translate(571.625000,274.350258)"><text xml:space="preserve" style="fill:#191919;font-family:Delius;font-size:13.00pt"><tspan y="29.0" x="9.5">B</tspan></text></g><g id="shape40" transform="translate(336.625000,227.500000)"><text xml:space="preserve" style="fill:#191919;font-family:Delius;font-size:13.00pt"><tspan y="29.0" x="10.0">P</tspan></text></g><g id="shape41" transform="translate(563.625000,431.398248)"><text xml:space="preserve" style="fill:#191919;font-family:Delius;font-size:13.00pt"><tspan y="29.0" x="8.5">Q</tspan></text></g><g id="shape42" transform="translate(231.625000,435.350688)"><text xml:space="preserve" style="fill:#191919;font-family:Delius;font-size:13.00pt"><tspan y="29.0" x="10.0">E</tspan></text></g><g id="shape43" transform="translate(288.625000,513.350253)"><text xml:space="preserve" style="fill:#191919;font-family:Delius;font-size:13.00pt"><tspan y="29.0" x="10.0">F</tspan></text></g><g id="shape44" transform="translate(385.524309,269.350258)"><text xml:space="preserve" style="fill:#191919;font-family:Delius;font-size:13.00pt"><tspan y="24.9" x="3.1">H</tspan></text></g><g id="shape45" transform="translate(384.609410,435.350688)"><text xml:space="preserve" style="fill:#191919;font-family:Delius;font-size:13.00pt"><tspan y="43.9" x="11.1">H'</tspan></text></g><g id="shape46" transform="translate(107.771802,41.000000)"><path fill="#b0bffe" fill-rule="nonzero" d="M.0,.0L573.6,.0L573.6,61.0L.0,61.0L.0,.0z"/><text xml:space="preserve" style="fill:#191919;font-family:Arial;font-size:16.00pt"><tspan y="38.0" x="21.3">When an object is placed at the center of a concave lens</tspan></text></g><g id="shape47" transform="translate(658.375000,554.500000)"><text xml:space="preserve" style="fill:#9b9b9b;font-family:Algerian;font-size:13.00pt"><tspan y="30.5" x="12.8">Nh-em0n</tspan></text></g></g></svg>