<svg xmlns="http://www.w3.org/2000/svg" height="396" viewBox="0 0 814 396" xmlns:ev="http://www.w3.org/2001/xml-events" xmlns:xlink="http://www.w3.org/1999/xlink" width="814"><defs/><g transform="translate(5.5,5.5)" id="page1"><rect x="0" fill="#eef4ff" height="386" y="0" width="804"/><path fill="#379e90" transform="translate(645.788016,189.231644)" fill-rule="nonzero" id="shape1" stroke="#f29952" stroke-width="1" d="M5.3,6.6L7.3,9.9C7.3,9.9,8.9,16.2,4.0,22.1C4.0,22.1,-0.7,28.0,1.6,30.3C1.6,30.3,3.3,32.6,.0,33.9C.0,33.9,.0,37.5,4.3,41.1C4.3,41.1,9.3,55.2,21.5,62.1C21.5,62.1,25.2,68.3,23.8,85.1C23.8,85.1,27.8,100.1,25.8,102.1C25.8,102.1,24.8,112.0,29.1,114.9C29.1,114.9,30.7,121.2,29.1,121.2C29.1,121.2,32.1,139.5,52.4,139.5C52.4,139.5,43.9,136.2,43.9,131.1C43.9,131.1,44.4,124.4,46.3,124.4C46.3,124.4,39.2,123.5,43.4,118.8C43.4,118.8,47.1,115.4,41.8,110.9C41.8,110.9,49.3,113.3,46.6,107.0C46.6,107.0,59.9,105.7,49.5,97.8C49.5,97.8,49.3,93.8,55.9,97.8C55.9,97.8,57.5,100.1,61.5,91.5C61.5,91.5,65.7,84.4,65.7,83.9C65.7,83.3,64.4,80.5,64.4,80.5C64.4,80.5,66.0,73.4,74.7,73.4C74.7,73.4,81.1,69.4,80.3,52.9C80.3,52.9,83.2,47.7,85.1,46.6C85.1,46.6,91.4,35.6,83.4,35.6C83.4,35.6,77.1,29.3,70.5,30.1C70.5,30.1,58.0,25.6,58.0,23.5C58.0,23.5,60.4,11.2,46.2,11.8C46.2,11.8,37.3,-0.4,31.8,2.8C31.8,2.8,24.1,3.6,22.5,.4C22.5,.4,14.0,-2.2,10.8,4.9C10.8,4.9,8.1,9.1,5.3,6.6z"/><path fill="#8ce0d2" transform="translate(541.645916,63.217944)" fill-rule="nonzero" id="shape2" stroke="#f29952" stroke-width="1" d="M.0,37.7C.0,37.7,22.0,34.8,29.1,30.1C29.1,30.1,29.4,24.6,34.5,28.5C34.5,28.5,40.3,27.7,41.9,25.3C41.9,25.3,47.7,28.0,49.0,26.7C49.0,26.7,54.6,34.0,55.4,30.9C55.4,30.9,56.4,39.8,52.7,44.2C52.7,44.2,55.4,49.2,51.9,53.4C51.9,53.4,39.7,65.2,44.2,73.6L44.2,78.4C44.2,78.4,50.1,78.1,48.5,86.8C48.5,86.8,48.7,89.9,50.3,90.7L49.5,92.5L51.8,94.8L51.8,97.0C51.8,97.0,51.7,99.6,52.5,99.6C53.2,99.6,56.1,101.3,55.7,100.9L56.1,97.8L55.1,92.5L52.5,89.9L51.8,88.3L55.1,84.4C55.1,84.4,55.1,87.6,55.1,88.1C55.1,88.6,55.4,91.7,56.3,92.5C57.2,93.4,57.6,93.8,58.5,94.8C59.5,95.8,61.2,97.5,61.2,98.6C61.2,99.6,62.8,100.6,62.8,101.3C62.8,102.0,64.8,103.0,63.8,105.4C62.8,107.9,60.7,107.8,61.2,108.3C61.7,108.8,63.1,111.3,63.8,111.4C64.5,111.6,66.6,112.4,68.0,113.1C69.4,113.8,72.6,115.6,73.4,115.6C74.1,115.7,74.9,116.2,77.1,117.2C79.2,118.3,80.9,117.2,82.1,117.2C83.3,117.2,83.3,117.2,83.3,117.2C83.3,117.2,83.5,120.4,84.4,120.4C85.4,120.4,89.2,121.8,89.5,122.2C89.9,122.6,92.6,121.6,93.3,122.2C93.9,122.9,95.1,123.8,95.1,124.8C95.1,125.9,96.0,128.6,96.4,129.0C96.8,129.4,97.2,129.8,98.3,130.9C99.4,131.9,99.5,132.1,100.0,132.6C100.5,133.1,104.9,135.3,105.8,135.5C106.8,135.5,107.6,133.9,107.3,133.2C107.0,132.6,110.2,132.6,110.2,132.6C110.2,132.6,108.1,130.9,107.3,130.9C106.5,130.9,105.7,130.1,104.9,130.9C104.1,131.7,101.5,129.0,101.5,129.0C101.5,129.0,101.7,124.8,102.3,124.8C102.8,124.8,103.3,123.0,103.3,122.2C103.3,121.4,102.3,120.1,102.3,119.6C102.3,119.1,100.0,118.9,100.0,118.9C100.0,118.9,95.8,118.8,95.1,118.5C94.5,118.1,91.2,117.2,91.2,117.2L93.7,114.7C93.7,114.7,95.1,115.1,95.1,114.1C95.1,113.1,96.4,112.8,96.4,111.4C96.4,110.1,98.3,108.3,98.3,108.3L98.3,106.7C98.3,106.7,98.6,105.4,97.0,105.4C95.4,105.4,96.4,104.2,94.0,105.4C91.7,106.7,91.7,105.1,90.6,106.7C89.5,108.3,89.5,108.0,89.5,108.6C89.5,109.1,88.6,110.8,88.0,111.4C87.3,112.1,88.6,113.1,86.3,113.1C84.1,113.1,83.2,113.1,82.7,113.1C82.1,113.1,79.5,112.2,79.7,112.5C79.7,112.5,80.8,109.9,80.0,109.1C79.2,108.3,78.4,107.8,78.4,106.2C78.4,104.6,78.4,106.5,78.4,104.6C78.4,102.8,77.5,101.9,78.5,101.3C79.5,100.7,79.2,100.2,80.0,98.6C80.8,97.0,80.5,96.2,80.7,95.8C80.8,95.4,81.6,93.1,81.6,93.1C81.6,93.1,80.9,93.0,82.1,92.5C83.3,92.1,83.9,90.4,85.5,89.9C87.2,89.4,88.0,88.1,90.6,88.1C93.3,88.1,93.0,88.1,94.0,88.1C95.1,88.1,96.4,89.9,96.4,89.9L98.3,86.5C98.3,86.5,101.2,87.6,102.3,87.0C103.3,86.5,106.5,88.1,106.5,88.1C106.5,88.1,107.8,88.4,108.1,90.7C108.4,93.1,107.3,94.3,107.3,94.8C107.3,95.2,106.5,94.6,107.3,95.8C108.1,97.0,108.4,97.0,109.7,97.0C111.0,97.0,113.4,96.9,112.8,95.8C112.2,94.8,113.4,94.3,112.6,92.5C111.8,90.7,112.8,91.8,112.2,89.9C111.6,88.1,111.5,88.1,111.3,87.0C111.0,86.0,109.3,87.2,111.0,86.0C112.8,84.8,113.1,84.4,112.8,84.8C112.8,84.8,113.5,84.0,115.0,82.6C116.4,81.1,120.2,80.4,120.7,79.0C121.2,77.7,120.7,77.5,122.0,76.9C123.3,76.4,122.8,76.7,123.6,75.4C124.4,74.0,123.8,74.3,124.5,72.6C125.2,70.9,126.3,69.9,126.3,69.9C126.3,69.9,126.3,71.4,127.0,70.6C127.8,69.9,130.5,67.7,130.5,67.2L134.1,64.5L136.2,64.5C136.2,64.5,138.6,65.2,138.6,64.5C138.6,63.7,139.4,62.4,138.6,61.6C137.8,60.8,140.7,59.5,141.7,58.4C142.8,57.4,142.8,57.4,144.4,56.8C146.0,56.3,146.0,56.3,146.0,56.3L146.0,58.4C146.0,58.4,147.4,59.9,147.8,60.3C148.2,60.7,150.0,60.3,150.0,60.3L149.7,58.4C149.7,58.4,150.2,60.0,151.8,58.4C153.4,56.8,152.9,56.8,154.5,56.8C156.1,56.8,158.2,55.5,159.0,55.3C159.8,55.0,159.9,54.1,159.0,54.2C158.0,54.4,157.1,54.2,157.1,54.2L154.5,54.0L152.6,54.2C152.6,54.2,151.0,53.4,150.5,52.9C150.0,52.4,151.0,51.3,151.8,50.5C152.6,49.8,153.7,49.8,154.1,49.4C154.5,49.0,154.5,50.0,154.5,49.0C154.5,47.9,156.8,45.8,153.4,46.9C150.0,48.0,148.9,47.9,148.4,48.7C147.8,49.5,146.3,49.0,147.8,47.4C149.4,45.8,151.2,45.3,152.6,45.3C154.1,45.3,151.8,46.3,154.5,45.8C157.1,45.3,157.4,45.8,159.0,45.6C160.6,45.3,162.6,45.9,163.2,45.3C163.7,44.8,164.8,44.5,164.8,44.5C164.8,44.5,162.9,47.4,161.6,48.7C160.3,50.0,159.0,50.5,159.0,50.5C159.0,50.5,162.6,51.9,163.2,51.9C163.7,51.9,166.1,52.9,167.2,52.9C168.2,52.9,166.9,51.6,168.2,52.9C169.6,54.2,170.1,55.5,171.4,54.2C172.7,52.9,173.3,51.1,173.3,50.5C173.3,50.0,173.3,46.9,173.3,46.9L168.2,46.9L170.6,44.0C170.6,44.0,170.6,42.4,170.6,41.4C170.6,40.3,172.0,40.6,170.6,39.3C169.3,37.9,166.9,36.4,166.9,36.4C166.9,36.4,165.9,34.5,165.9,34.5C165.9,34.5,166.1,32.2,166.9,31.4C167.7,30.6,165.9,28.2,165.9,29.0L163.6,26.0L161.6,24.8C161.6,24.8,162.4,21.4,160.3,24.8C158.2,28.2,155.8,28.2,155.8,28.2C155.8,28.2,153.9,28.5,154.1,27.6C154.2,26.7,156.1,24.8,155.8,24.8C155.8,24.8,153.1,22.2,150.2,22.2C150.2,22.2,144.4,19.3,140.7,28.5C140.7,28.5,146.5,34.3,135.4,37.2C135.4,37.2,131.5,38.9,132.2,39.3C132.9,39.7,132.2,42.9,132.2,42.9L130.4,42.9C130.4,42.9,127.4,44.2,127.4,42.9C127.4,41.6,127.7,39.3,129.0,39.3C130.4,39.3,131.1,38.2,131.1,38.2L130.4,36.1L129.0,36.1C129.0,36.1,129.3,37.2,127.4,36.1C125.6,35.1,124.9,35.2,124.3,34.5C123.6,33.9,124.8,33.7,122.8,33.1C120.8,32.4,118.2,32.2,118.2,32.2L118.2,31.4C118.2,31.4,119.1,30.5,119.1,29.9C119.1,29.4,117.1,28.0,117.1,28.0C117.1,28.0,116.0,29.0,118.2,26.9C120.3,24.8,123.2,23.5,123.7,23.5C124.3,23.5,124.8,23.0,125.3,22.7C125.8,22.5,127.7,22.7,129.0,21.4C130.4,20.1,132.2,20.1,132.2,20.1C132.2,20.1,131.7,19.0,134.1,19.0C136.4,19.0,137.2,18.0,137.8,19.0C138.3,20.1,137.0,20.1,138.8,20.1C140.7,20.1,142.3,19.0,142.3,19.0C142.3,19.0,142.5,21.4,143.9,21.4C145.2,21.4,145.7,19.0,145.7,19.0C145.7,19.0,145.5,17.5,143.9,17.5C142.3,17.5,142.8,15.1,142.3,15.6C141.7,16.2,138.6,15.6,140.4,15.6C142.3,15.6,145.1,14.7,145.7,14.8C146.4,15.0,147.4,13.9,147.2,14.2C147.2,14.2,147.6,13.0,148.0,12.6C148.4,12.2,146.4,11.8,148.6,11.2C150.9,10.5,151.2,11.0,151.0,10.4C150.9,9.7,149.4,8.0,151.0,8.0C152.6,8.0,155.3,8.0,155.3,8.0C155.3,8.0,158.4,11.2,159.5,11.2C160.6,11.2,162.3,10.5,161.6,11.2C161.0,11.8,157.8,13.9,157.8,13.9C157.8,13.9,156.6,14.1,155.8,14.8C155.0,15.6,152.9,17.5,151.0,17.5C149.2,17.5,147.4,16.3,147.3,16.4C147.3,16.4,149.4,18.0,150.5,19.0C151.6,20.1,154.5,20.1,155.5,20.1C156.6,20.1,155.5,20.1,156.6,20.1C157.6,20.1,159.0,21.4,159.0,21.4L163.2,21.4L163.2,20.1C163.2,20.1,165.6,20.1,166.1,20.1C166.7,20.1,167.4,21.1,167.4,20.1C167.4,19.0,168.0,17.5,168.0,17.5C168.0,17.5,164.8,16.4,166.1,15.6C167.4,14.8,167.7,14.1,168.5,14.8C169.3,15.6,168.2,15.1,169.2,16.3C170.1,17.5,170.1,17.5,171.2,17.5C172.2,17.5,175.4,15.6,175.1,15.6C175.1,15.6,175.4,15.8,175.4,14.8C175.4,13.9,174.5,13.1,174.5,13.1C174.5,13.1,173.3,11.2,170.6,11.2C168.0,11.2,168.0,11.2,168.0,11.2L171.2,9.3C171.2,9.3,171.2,10.6,171.2,9.3C171.2,8.0,168.5,7.2,168.0,7.5C167.4,7.8,166.7,7.0,166.7,7.0C166.7,7.0,167.1,7.9,166.1,6.7C165.2,5.5,164.4,3.2,164.4,3.2C164.4,3.2,164.5,3.6,164.0,2.8C163.5,2.0,163.7,1.7,161.6,2.2C159.5,2.8,159.0,2.5,157.8,2.9C156.6,3.3,157.4,3.3,153.8,3.2C150.2,3.0,149.8,3.7,148.6,2.8C147.4,1.9,145.2,2.2,145.2,2.2C145.2,2.2,144.9,.9,143.6,.7C142.3,.4,141.2,.7,140.4,1.5C139.6,2.2,139.8,1.3,139.6,2.2C139.5,3.2,137.8,3.2,137.8,3.2C137.8,3.2,135.4,4.3,135.4,3.2C135.4,2.0,135.3,.7,134.1,.7C132.9,.7,133.3,.7,132.2,1.5C131.1,2.2,130.4,2.5,130.4,3.2C130.4,3.8,129.0,3.2,129.0,3.2L130.4,5.7C130.4,5.7,128.5,4.3,130.4,5.7C132.2,7.0,132.2,6.4,132.2,7.0C132.2,7.5,133.3,7.2,132.2,8.0C131.1,8.8,131.7,9.3,130.4,9.3C129.0,9.3,128.2,9.6,127.4,8.8C126.6,8.0,124.3,8.0,124.3,8.0L123.7,7.5C123.7,7.5,124.3,4.6,125.3,4.3C126.4,4.1,127.4,4.3,127.4,4.3C127.4,4.3,130.8,3.2,126.2,3.2C121.7,3.2,122.8,3.2,121.1,3.2C119.4,3.2,118.2,3.3,118.0,3.2L115.1,3.2L114.2,2.2L112.9,2.2C112.9,2.2,110.5,.7,109.7,.7C108.9,.7,110.2,.7,108.1,.7C106.0,.7,107.0,.7,105.2,.7C103.3,.7,104.1,.7,103.1,.7C102.0,.7,103.9,-0.9,102.0,.7C100.1,2.2,97.1,3.2,97.1,3.2C97.1,3.2,93.1,2.0,95.1,3.2C97.1,4.3,99.9,5.9,99.6,5.7C99.6,5.7,101.7,4.3,103.1,4.3C104.4,4.3,104.4,4.3,104.4,4.3L103.3,7.0L103.1,8.0L105.2,11.2C105.2,11.2,105.6,12.2,104.4,11.7C103.2,11.2,102.0,11.4,101.5,10.4C100.9,9.3,99.1,8.0,99.1,8.0C99.1,8.0,98.8,7.5,97.0,7.5C95.1,7.5,93.8,8.0,91.4,8.0C89.0,8.0,91.4,8.0,87.7,8.0C84.0,8.0,84.0,6.7,82.7,8.0C81.3,9.3,82.4,8.3,79.7,9.3C77.1,10.4,76.0,10.4,77.1,10.4C77.1,10.4,75.8,10.4,74.7,10.4C73.7,10.4,71.0,9.9,69.7,9.3C68.4,8.8,67.3,8.5,65.4,8.0C63.6,7.5,62.5,7.5,60.9,7.5C59.3,7.5,58.5,8.0,57.5,7.0C56.4,5.9,60.7,5.4,55.1,5.7C49.5,5.9,50.6,5.9,48.5,7.0C46.4,8.0,44.2,8.0,43.4,8.0C42.7,8.0,41.1,8.0,40.5,8.0C40.0,8.0,37.9,8.3,36.8,9.3C35.8,10.4,35.4,9.7,34.4,11.2C33.5,12.6,33.6,13.0,33.6,13.9C33.6,13.9,29.7,15.9,29.4,15.4C29.1,14.8,25.4,13.9,25.4,13.9L22.8,15.4L22.8,16.2C22.8,16.2,27.0,16.9,27.4,17.3C27.8,17.7,29.3,16.4,28.3,18.3C27.4,20.1,27.5,20.0,24.8,20.0C22.0,20.0,24.4,19.3,20.4,20.0C16.4,20.6,18.0,19.8,16.4,20.6C14.8,21.4,15.0,22.1,14.6,22.5C14.2,22.9,13.0,23.8,13.5,24.6C14.0,25.3,14.6,25.7,14.6,25.7C14.6,25.7,14.3,26.4,15.4,26.4C16.4,26.4,17.5,25.9,16.9,26.7C16.4,27.4,14.8,26.7,15.6,27.4C16.4,28.2,19.6,28.5,19.6,28.5C19.6,28.5,21.4,29.0,19.6,29.3C17.8,29.6,17.5,30.5,16.9,30.5C16.4,30.5,18.3,29.3,15.6,30.5C13.0,31.6,14.3,31.1,11.5,32.0C8.7,33.0,8.8,33.7,6.5,33.7C4.3,33.7,6.4,32.7,4.3,33.7C2.2,34.7,1.8,35.1,2.2,34.7L.0,37.7z"/><path fill="#f29952" transform="translate(259.089066,239.161544)" fill-rule="nonzero" id="shape3" stroke="#f29952" stroke-width="1" d="M3.2,25.2C3.2,25.2,5.3,43.3,.0,47.2C.0,47.2,.2,53.0,8.7,49.6C8.7,49.6,31.8,39.9,34.7,44.1C34.7,44.1,33.1,52.0,40.8,51.2C40.8,51.2,38.1,62.5,58.6,55.9C58.6,55.9,79.5,39.6,74.2,28.1C74.2,28.1,72.0,27.0,72.0,26.5C72.0,26.0,72.0,23.4,72.0,23.4L69.4,19.4L66.2,17.6C66.2,17.6,66.7,7.9,63.6,7.9C63.6,7.9,62.2,-10.5,57.7,8.9C57.7,8.9,55.1,18.6,47.4,8.9C47.4,8.9,49.8,3.9,51.9,3.1C51.9,3.1,49.0,1.6,45.5,2.4L41.6,.0L40.8,3.1L39.2,2.4C39.2,2.4,36.3,5.5,36.3,7.6C36.3,7.6,35.3,9.8,33.6,6.6C33.6,6.6,30.4,1.8,23.6,11.8C23.6,11.8,20.4,12.3,20.4,15.0C20.4,15.0,21.4,17.3,13.5,19.2C13.5,19.2,3.9,22.6,3.2,25.2z"/><path fill="#ffc000" transform="translate(39.252716,63.218744)" fill-rule="nonzero" id="shape4" stroke="#f29952" stroke-width="1" d="M13.7,70.9C13.7,70.9,3.6,68.6,2.5,70.9C2.5,70.9,3.1,77.0,.9,78.3C.9,78.3,-2.0,83.8,2.3,83.8L4.4,84.9C4.4,84.9,4.9,84.9,6.2,84.9C7.6,84.9,7.2,85.8,7.6,86.2C8.0,86.6,9.7,85.9,10.8,84.9C11.8,83.8,12.1,83.8,12.6,83.8C13.1,83.8,15.8,83.8,16.3,83.8C16.8,83.8,17.4,82.5,17.4,81.4C17.4,80.4,17.4,81.4,17.4,79.9C17.4,78.3,17.4,78.3,18.4,77.2C19.5,76.2,20.3,74.6,20.8,74.9C21.3,75.1,21.9,76.2,22.4,74.9C22.9,73.6,23.7,71.5,23.7,71.5C23.7,71.5,29.8,73.8,33.3,68.8C33.3,68.8,39.1,78.5,43.9,78.5C43.9,78.5,45.3,81.8,42.0,82.7C42.0,82.7,41.9,86.0,45.2,82.7C45.2,82.7,48.1,82.0,48.4,81.4C48.6,80.9,47.6,78.5,47.6,78.5L46.5,77.5C46.5,77.5,51.3,76.4,51.3,77.5C51.3,78.5,48.4,75.7,48.4,75.7L45.2,74.9L43.9,74.9C43.9,74.9,44.0,74.7,43.1,73.3C42.2,71.8,40.7,70.9,40.7,70.9L38.8,69.9C38.8,69.9,39.0,67.9,39.1,67.3L41.1,67.3L42.6,68.3C42.6,68.3,42.8,69.5,43.9,70.1C45.0,70.7,46.4,71.2,46.9,71.2C47.3,71.2,47.7,71.7,48.4,72.3C49.0,72.9,48.1,72.3,49.9,73.1C51.6,74.0,51.1,73.3,52.0,74.2C52.9,75.0,53.1,74.4,53.1,75.9C53.1,77.4,53.1,77.5,53.1,79.1C53.1,80.8,52.6,80.6,53.9,82.9C55.2,85.2,54.0,86.1,56.1,86.1C58.1,86.1,58.8,87.3,58.8,86.1C58.8,84.9,58.8,84.3,58.8,83.2C58.8,82.0,58.8,82.0,58.8,82.0C58.8,82.0,59.5,80.3,58.8,80.3C58.2,80.3,57.1,80.3,57.1,80.3L56.4,77.9C56.4,77.9,58.3,77.9,59.5,77.4C60.7,76.8,61.6,75.9,61.6,75.9C61.6,75.9,62.3,76.7,63.0,77.9C63.8,79.1,63.5,80.1,63.9,81.1C64.2,82.0,62.5,81.6,63.9,82.9C65.2,84.3,64.8,83.8,65.5,84.5C66.3,85.3,67.7,85.5,68.3,86.1C68.8,86.6,70.2,86.9,70.4,86.5C70.6,86.1,70.8,85.1,71.3,84.5C71.7,83.9,71.3,83.2,72.0,83.8C72.7,84.5,73.8,85.6,74.2,86.1C74.7,86.5,75.5,86.5,76.6,86.5C77.7,86.5,79.0,86.1,78.5,86.1C78.5,86.1,79.1,84.9,79.6,86.1C80.1,87.2,80.2,89.2,80.2,90.1C80.2,90.9,80.2,90.6,79.6,91.4C79.0,92.2,79.9,93.0,78.5,93.9C77.1,94.9,76.6,95.5,76.6,95.5L76.6,96.5C76.6,96.5,76.6,97.3,76.6,97.9C76.6,98.6,78.1,100.5,78.5,101.5C79.0,102.6,80.7,102.6,81.2,103.1C81.8,103.7,82.4,105.1,82.4,106.4C82.4,107.7,80.9,107.2,82.4,108.2C83.9,109.2,82.8,106.8,84.7,109.4C86.7,111.9,86.4,110.2,87.3,113.0C88.1,115.8,87.7,116.0,88.5,117.1C89.2,118.3,91.5,120.1,91.5,120.1C91.5,120.1,91.6,120.2,92.0,121.7C92.4,123.2,92.9,123.2,92.9,124.0C92.9,124.9,95.4,128.3,95.6,128.9C95.9,129.5,95.6,130.4,95.6,131.2C95.6,132.1,95.4,132.5,96.3,133.3C97.1,134.2,98.0,134.9,99.4,134.9C100.8,134.9,102.6,133.2,103.2,132.8C103.9,132.4,106.8,131.9,107.8,131.2C108.9,130.6,109.6,129.9,109.6,129.9C109.6,129.9,112.8,127.8,113.5,127.9C114.4,128.0,113.2,128.0,114.4,127.5C116.0,127.0,114.8,127.1,116.9,126.5C119.1,125.8,117.8,127.4,119.6,125.7C121.3,124.0,122.0,121.7,122.4,121.7C122.8,121.7,122.5,120.3,123.5,119.3C124.4,118.4,125.5,119.2,125.3,118.2C125.1,117.1,125.4,116.8,125.8,115.7C126.2,114.7,126.5,114.9,124.0,113.9C121.5,113.0,122.2,113.0,120.9,112.6C119.6,112.1,119.6,110.2,119.6,110.2C119.6,110.2,119.2,107.9,117.3,109.4C115.3,110.9,116.1,110.6,116.1,110.6L113.4,112.6C113.4,112.6,110.2,114.0,110.2,107.5L108.7,107.1L106.8,106.4C106.8,106.4,106.6,104.9,106.2,104.6C105.9,104.3,104.8,104.3,104.8,103.2C104.8,102.2,104.0,102.2,104.1,101.4C104.2,100.7,104.2,100.1,104.8,99.4C105.5,98.8,106.2,96.9,106.8,97.5C107.4,98.2,106.6,97.9,107.6,99.4C108.7,100.9,108.9,99.6,109.4,101.4C110.0,103.2,108.8,101.9,110.2,103.2C111.6,104.6,110.9,104.2,112.1,104.6C113.3,105.0,113.4,104.5,114.4,105.1C115.5,105.7,117.0,106.4,116.2,106.4L117.8,106.4L118.8,106.4C118.8,106.4,119.2,106.6,119.6,107.1C120.0,107.5,121.1,107.9,121.5,108.1C122.0,108.3,122.5,107.2,123.5,108.1C124.4,109.1,124.1,109.0,125.4,109.0C126.7,109.0,130.5,109.0,130.5,109.0C130.5,109.0,129.0,109.0,132.0,109.0C135.0,109.0,135.4,108.1,135.9,108.1C136.3,108.1,136.3,108.1,136.7,108.1C137.2,108.1,136.5,106.8,137.8,108.1C139.1,109.4,140.6,111.1,141.7,111.5C142.7,111.9,143.1,112.4,143.6,112.4C144.0,112.4,143.0,114.4,143.0,114.4C143.0,114.4,142.1,115.1,143.6,115.7C145.1,116.4,144.8,116.1,145.3,116.6C145.8,117.1,145.7,117.2,146.4,117.2C147.0,117.2,147.0,117.7,147.4,117.7C147.9,117.7,148.1,116.4,148.6,118.4C149.1,120.4,149.1,119.3,149.1,121.3C149.1,123.2,146.8,120.2,149.8,124.4C152.8,128.7,152.6,127.2,153.2,129.1C153.8,131.0,153.1,131.3,154.1,132.3C155.0,133.2,154.7,133.3,155.3,134.0C156.0,134.6,156.8,134.0,156.8,135.5C156.8,136.9,156.4,136.3,156.8,136.9C157.3,137.6,159.4,150.3,163.7,140.3C163.7,140.3,165.5,129.8,164.3,128.7L168.4,127.2L171.0,124.6C171.0,124.6,171.2,124.4,172.0,123.6C172.9,122.7,172.9,122.1,172.9,122.1C172.9,122.1,174.2,121.3,174.1,120.9C174.0,120.6,175.9,119.1,175.9,119.1C175.9,119.1,176.5,119.1,176.5,117.9C176.5,116.6,176.5,116.6,176.5,116.6C176.5,116.6,177.2,116.0,177.8,116.0C178.5,116.0,178.9,116.0,179.7,116.0C180.6,116.0,181.2,115.5,182.3,115.1C183.4,114.7,183.2,113.4,184.0,114.3C184.9,115.1,185.3,114.0,185.7,116.0C186.2,117.9,185.5,118.1,188.1,119.1C190.7,120.2,190.2,120.6,190.2,122.1C190.2,123.6,190.2,124.9,190.2,125.3C190.2,125.7,189.4,124.6,190.2,126.3C191.1,128.0,191.2,129.2,191.5,129.5C191.8,129.8,191.7,129.5,192.4,129.5C193.0,129.5,196.0,127.8,196.0,127.8C196.0,127.8,196.9,127.2,196.9,129.5C196.9,131.9,197.7,131.6,197.5,132.5C197.3,133.3,197.2,133.2,197.9,134.0C198.7,134.7,198.4,134.0,197.9,137.2C197.5,140.3,197.5,142.0,197.5,142.7C197.5,143.3,198.1,144.2,198.6,145.2C199.0,146.3,200.8,146.0,201.6,146.7C202.3,147.4,202.6,146.9,203.3,148.4C203.9,149.9,203.1,153.3,203.9,154.1C204.8,155.0,205.0,155.4,207.1,156.0C209.3,156.7,212.5,157.5,212.5,157.5L210.1,153.1C210.1,153.1,207.1,149.2,206.5,149.0C205.8,148.8,205.4,147.3,205.0,146.7C204.6,146.1,201.6,142.7,201.6,142.7C201.6,142.7,201.6,142.0,201.6,141.4C201.6,140.8,201.7,137.7,202.2,137.2C202.7,136.6,202.6,135.2,203.3,135.0L205.2,135.0C205.2,135.0,203.9,135.0,205.2,135.7C206.5,136.3,206.5,135.7,207.1,136.3C207.8,136.9,207.6,136.7,208.2,137.4C208.8,138.0,208.6,138.9,208.8,139.3C209.1,139.7,212.5,141.6,212.3,141.4C212.3,141.4,210.7,142.3,211.2,142.9C211.7,143.4,216.3,144.2,216.5,143.5C216.8,142.9,215.9,140.5,215.9,140.5C215.9,140.5,216.1,139.5,217.2,138.9C218.3,138.2,219.1,138.6,219.1,138.0C219.1,137.4,218.5,138.0,219.1,137.4C219.8,136.7,220.4,136.1,219.8,135.0C219.1,134.0,218.5,133.8,218.5,132.9C218.5,132.1,216.1,130.2,215.3,129.3C214.4,128.5,214.6,130.8,213.5,127.6C212.5,124.4,212.9,125.5,212.0,123.8C211.2,122.1,210.8,121.9,210.8,121.5C210.8,121.0,209.5,121.7,210.8,119.8C212.0,117.9,211.4,118.1,212.5,117.0C213.5,116.0,214.6,116.0,214.6,116.0C214.6,116.0,214.6,116.4,215.9,117.0C217.2,117.7,217.2,117.9,217.2,118.3C217.2,118.7,216.5,120.2,216.5,120.2C216.5,120.2,215.9,120.8,215.9,121.5C215.9,122.1,216.3,123.8,217.4,123.8C218.5,123.8,217.2,123.8,218.5,123.8C219.8,123.8,221.3,124.2,221.3,123.4C221.3,122.5,221.3,121.5,221.3,121.5L219.8,119.8C219.8,119.8,218.7,115.1,228.8,113.8C228.8,113.8,242.6,102.0,230.7,91.2C230.7,91.2,222.7,89.9,231.3,84.6C231.3,84.6,230.2,82.9,229.9,83.2C229.6,83.5,225.3,83.2,225.3,83.2C225.3,83.2,225.2,84.1,224.2,83.2C223.3,82.3,221.0,81.4,221.0,81.4L220.3,80.7C220.3,80.7,221.4,80.0,221.7,79.7C222.1,79.3,222.5,79.1,223.4,78.8C224.2,78.2,225.3,76.5,225.7,76.7C226.2,77.0,227.2,76.1,227.2,76.1C227.2,76.1,226.8,77.0,227.2,77.8C227.7,78.8,226.4,77.6,227.7,78.8C228.9,79.7,229.1,79.7,228.9,79.7L231.3,78.8C231.3,78.8,229.4,78.8,232.4,78.8C235.4,78.8,234.2,80.4,234.2,80.4C234.2,80.4,233.9,80.3,234.5,81.4C235.2,82.5,235.7,83.2,236.3,83.2C237.0,83.2,236.0,83.2,237.0,83.2C237.9,83.2,237.1,82.9,237.9,85.2C238.8,87.6,238.6,86.5,239.2,88.0C239.9,89.5,238.4,88.8,239.9,89.5C241.4,90.1,245.4,88.0,245.4,88.0C245.4,88.0,247.6,88.0,245.9,86.3C244.1,84.6,244.3,84.7,242.4,83.9C240.6,83.2,239.1,80.4,239.1,80.4C239.1,80.4,238.4,81.2,237.9,80.4C237.5,79.7,236.7,80.1,237.0,79.0C237.3,77.8,238.4,78.8,238.2,77.8C237.9,76.7,239.2,76.7,239.2,76.7L239.2,75.5C239.2,75.5,238.6,74.6,239.2,74.0C239.9,73.3,240.3,72.7,241.4,72.5C242.4,72.3,241.6,72.5,242.4,72.3C243.3,72.1,242.0,72.3,243.7,72.3C245.4,72.3,245.0,73.1,245.9,72.3C246.7,71.4,246.5,72.7,246.9,71.2C247.4,69.7,246.8,70.5,247.4,69.3C247.9,68.2,248.2,70.0,248.2,67.8C248.2,65.7,247.8,63.8,248.2,63.0C248.6,62.1,249.1,63.0,248.2,61.1C247.4,59.1,248.0,59.8,246.9,58.3C245.9,56.8,245.0,56.4,244.4,55.1C243.7,53.8,243.7,52.8,243.7,52.8C243.7,52.8,246.1,53.0,243.7,52.1C241.4,51.3,239.2,50.0,239.2,50.0C239.2,50.0,240.0,50.0,238.2,50.0C236.3,50.0,236.1,49.7,235.2,49.4C234.2,49.1,234.3,47.4,233.1,47.4C231.9,47.4,232.6,47.4,231.9,47.4C231.3,47.4,232.4,42.0,232.4,42.0C232.4,42.0,233.1,40.3,233.7,39.2C234.2,38.2,235.2,37.7,235.2,37.7C235.2,37.7,234.7,39.2,237.0,39.2C239.2,39.2,243.1,39.0,243.7,38.4C244.4,37.7,244.8,37.7,245.9,37.7C246.9,37.7,247.1,39.2,248.6,39.2C250.1,39.2,249.3,39.2,250.6,39.2C251.8,39.2,251.6,39.0,252.3,38.4C252.9,37.7,252.3,36.3,252.3,35.6C252.3,35.0,249.9,34.6,253.8,34.6C257.6,34.6,256.3,32.9,258.1,34.6C259.8,36.3,263.0,32.9,262.1,34.6C261.3,36.3,259.3,38.4,259.3,39.2C259.3,40.1,258.5,38.8,258.9,42.0C259.3,45.2,260.5,45.9,261.7,47.4C262.9,48.9,268.3,52.6,269.0,53.2C269.6,53.8,271.7,54.7,272.4,55.1C273.0,55.5,275.4,55.8,273.9,53.6C272.4,51.5,272.6,51.3,272.4,50.7C272.2,50.0,272.4,51.3,272.4,49.4C272.4,47.5,272.4,46.6,272.4,46.3C272.4,46.0,269.0,44.5,269.0,44.5C269.0,44.5,267.6,42.7,265.9,42.0C264.1,41.2,264.1,41.2,264.1,41.2C264.1,41.2,264.4,40.1,265.1,39.6C265.9,39.2,267.7,37.7,267.7,37.7L269.0,37.3C269.0,37.3,268.2,37.3,269.4,37.3C270.6,37.3,269.6,36.9,271.6,37.3C273.7,37.7,273.5,37.7,273.9,37.7C274.3,37.7,275.4,37.7,275.4,37.7L275.8,35.6C275.8,35.6,276.2,34.3,276.9,34.1C277.5,33.9,277.7,33.5,278.6,33.5C279.4,33.5,280.9,33.5,281.6,33.5C282.2,33.5,282.2,33.5,282.2,33.5L280.4,31.7L277.3,31.5L275.6,30.3C275.6,30.3,274.6,29.8,275.1,29.3C275.6,28.8,275.9,28.5,275.9,28.5C275.9,28.5,271.6,27.5,272.4,26.7C273.2,25.9,273.9,25.7,275.6,25.7C277.3,25.7,276.3,24.3,278.3,26.2C280.2,28.1,279.2,27.7,280.2,28.1C281.2,28.5,279.9,29.0,282.2,29.5C284.6,29.9,285.5,28.6,286.3,29.5C287.2,30.3,287.4,30.3,287.8,30.3C288.2,30.3,288.8,30.1,288.8,29.3C288.8,28.5,287.8,28.0,287.8,27.3C287.8,26.7,289.6,27.7,287.1,26.7C284.6,25.7,283.9,25.4,282.2,25.4C280.6,25.4,277.3,24.6,277.5,24.8C277.5,24.8,281.2,24.4,275.6,23.5C270.0,22.7,269.9,22.3,269.0,22.3C268.0,22.3,266.9,22.4,266.2,21.6C265.4,20.9,267.3,20.6,264.7,20.6C262.1,20.6,264.7,20.4,261.0,19.9C257.4,19.5,258.5,19.5,257.0,19.5C255.5,19.5,249.7,18.9,249.7,18.9C249.7,18.9,249.5,19.3,250.8,19.9C252.1,20.6,251.2,22.3,250.8,22.3C250.3,22.3,249.1,21.2,248.4,20.6C247.8,19.9,251.0,19.1,246.3,19.5C241.6,19.9,240.5,19.9,240.1,19.9C239.6,19.9,241.6,19.9,238.8,19.9C236.0,19.9,233.9,19.5,233.9,19.5C233.9,19.5,233.7,17.7,232.1,17.7C230.4,17.7,229.4,17.7,228.1,17.7C226.8,17.7,225.3,16.7,224.0,16.7C222.7,16.7,221.9,16.7,221.2,16.7C220.6,16.7,220.2,17.2,218.9,16.7C217.6,16.3,217.4,16.1,216.3,15.7C215.3,15.3,215.7,14.6,213.8,14.6C211.8,14.6,212.9,14.6,211.2,14.6C209.5,14.6,206.9,14.6,206.9,14.6L204.3,14.6C204.3,14.6,203.5,15.5,203.5,16.1C203.5,16.7,203.9,18.7,201.9,17.7C199.8,16.7,199.8,16.7,199.0,16.7C198.1,16.7,198.1,16.7,197.7,16.7C197.3,16.7,195.8,16.7,195.8,16.7L195.8,19.5L194.4,18.1C194.4,18.1,194.9,18.7,194.0,17.7C193.0,16.7,193.9,17.4,192.6,16.7C191.3,16.1,190.9,16.3,190.2,15.7C189.6,15.1,187.7,15.3,187.0,14.6C186.4,14.0,186.4,12.9,183.6,12.9C180.8,12.9,182.3,12.3,180.4,12.9C178.5,13.6,179.3,13.8,177.6,13.8C175.9,13.8,174.0,14.6,172.7,13.8C171.4,12.9,171.2,12.5,168.2,12.5C165.2,12.5,169.0,12.1,164.8,12.5C160.5,12.9,160.5,12.9,160.5,12.9L162.4,11.0C162.4,11.0,168.0,9.5,158.3,8.9L155.6,8.9C155.6,8.9,153.0,9.8,152.6,8.9C152.1,8.1,149.6,6.6,149.6,6.6C149.6,6.6,149.2,6.9,148.5,5.5C147.7,4.1,147.0,2.8,145.3,2.8C143.6,2.8,145.5,2.8,142.7,2.8C139.9,2.8,137.4,2.8,137.4,2.8L131.0,.0C131.0,.0,129.7,.0,129.5,.6C129.2,1.3,127.7,1.3,128.6,2.8C129.5,4.2,129.9,4.9,133.3,5.5C136.7,6.1,137.2,6.1,138.2,6.1C139.3,6.1,140.6,6.1,141.9,6.1C143.1,6.1,143.6,6.1,144.0,7.2C144.4,8.3,145.8,7.7,144.4,8.9C143.5,10.1,143.1,10.0,140.8,9.8C138.4,9.5,137.6,9.8,136.5,9.3C135.4,8.9,136.1,8.1,133.9,8.9C131.8,9.8,131.0,8.5,131.0,9.8C131.0,11.0,133.1,13.1,132.2,13.1C131.4,13.1,126.9,13.1,126.9,13.1C126.9,13.1,125.2,12.5,124.7,12.5C124.3,12.5,124.7,15.5,125.8,15.5C126.9,15.5,128.6,16.7,128.6,16.7C128.6,16.7,130.5,18.0,126.9,16.7C123.2,15.5,121.1,14.8,121.1,14.8C121.1,14.8,121.5,14.8,120.0,14.8C118.5,14.8,117.9,14.8,117.5,14.8C117.0,14.8,115.5,14.4,115.5,14.4C115.5,14.4,115.3,13.1,113.8,13.1C112.3,13.1,111.9,12.7,111.1,13.6C110.2,14.4,110.2,16.7,110.2,16.7C110.2,16.7,112.1,19.5,113.2,20.6C114.3,21.6,114.9,21.0,113.8,21.0C112.8,21.0,109.7,21.5,109.7,21.5C109.7,21.5,108.3,20.1,105.7,19.5C103.1,18.9,101.4,18.4,101.4,18.4L101.0,20.6C101.0,20.6,97.4,20.6,95.9,20.6C94.4,20.6,92.9,18.7,90.1,20.6C87.3,22.5,87.9,21.8,86.7,23.1C85.4,24.4,84.5,25.0,84.3,24.6C84.1,24.2,81.7,20.6,81.3,20.6C80.9,20.6,80.0,19.5,80.0,21.0C80.0,22.5,81.3,23.1,81.3,24.2C81.3,25.2,82.6,25.0,81.3,25.2C80.0,25.4,78.1,25.9,77.7,25.2C77.2,24.6,79.4,23.1,77.2,22.7C75.1,22.3,74.0,21.5,73.4,21.5C72.8,21.5,75.3,22.5,71.3,21.5C67.2,20.6,65.5,20.1,65.5,20.1C65.5,20.1,64.4,19.1,62.9,18.4C61.4,17.8,62.1,15.7,59.1,16.7C56.1,17.8,53.9,18.4,53.5,18.4C53.1,18.4,52.9,17.8,52.2,18.4C52.2,18.4,44.1,17.8,41.9,22.3C41.9,22.3,34.4,31.0,29.3,33.1C29.3,33.1,23.5,39.6,29.3,41.1C29.3,41.1,32.7,42.6,34.7,39.9C34.7,39.9,39.6,41.1,39.2,44.3C39.2,44.3,34.8,46.7,35.7,44.3C35.7,44.3,28.0,40.9,31.9,48.5C31.9,48.5,33.0,50.8,29.6,50.8C29.6,50.8,26.0,50.6,24.0,54.5C24.0,54.5,19.3,59.8,12.4,59.8C12.4,59.8,4.7,58.3,15.4,64.2C15.4,64.2,17.5,70.0,13.7,70.9z"/><g transform="translate(423.796216,225.428744)" id="shape5"><path fill="#7c6124" fill-rule="nonzero" stroke="#7c6124" stroke-width="1" d="M.0,.0L87.4,.0L87.4,27.7L.0,27.7L.0,.0z"/><text style="fill:#ffffff;font-family:Delius;font-size:10.50pt;font-weight:bold" xml:space="preserve"><tspan x="11.2" y="18.8">warm air</tspan></text></g><g transform="translate(645.788016,318.617244)" id="shape6"><path fill="#7c3a37" fill-rule="nonzero" stroke="#7c3a37" stroke-width="1" d="M.0,.0L119.5,.0L119.5,28.5L.0,28.5L.0,.0z"/><text style="fill:#ffffff;font-family:Delius;font-size:10.50pt;font-weight:bold" xml:space="preserve"><tspan x="8.3" y="19.3">south america</tspan></text></g><g transform="translate(236.874716,318.617244)" id="shape7"><path fill="#21675e" fill-rule="nonzero" stroke="#21675e" stroke-width="1" d="M.0,.0L119.5,.0L119.5,28.5L.0,28.5L.0,.0z"/><text style="fill:#ffffff;font-family:Delius;font-size:10.50pt;font-weight:bold" xml:space="preserve"><tspan x="27.3" y="19.3">Australia</tspan></text></g><g transform="translate(259.089066,203.117244)" id="shape8"><path fill="#ffd8d7" fill-rule="nonzero" stroke="#954744" stroke-width="2.333329916000366" d="M.0,.0L63.8,.0L63.8,27.7L.0,27.7L.0,.0z"/><text style="fill:#191919;font-family:Delius;font-size:10.50pt;font-weight:bold" xml:space="preserve"><tspan x="7.4" y="18.8">dry air</tspan></text></g><g transform="translate(94.233916,38.583544)" id="shape9"><text style="fill:#868686;font-family:Delius;font-size:10.50pt;font-weight:bold" xml:space="preserve"><tspan x="10.2" y="31.0">Nh-emon</tspan></text></g><g transform="translate(333.653531,268.286214)" id="shape10"><path fill="none" stroke="#868686" stroke-width="2.666666746139526" d="M.0,.0L25.0,.0C38.8,.0,50.0,-11.2,50.0,-25.0L50.0,-26.0C50.0,-40.4,61.6,-52.0,76.0,-52.0L282.0,-52.0C295.2,-52.0,306.0,-41.2,306.0,-28.0L306.0,-19.0C306.0,-10.7,312.7,-4.0,321.0,-4.0L326.4,-4.0"/><path fill="#868686" stroke-linecap="round" stroke-width="1" stroke="#868686" d="M336.0,-4.0L324.7,-10.5C325.8,-8.6,326.4,-6.4,326.4,-4.0C326.4,-1.6,325.8,.6,324.7,2.5L336.0,-4.0"/></g><g transform="translate(373.514966,111.632944)" id="shape11"><text style="fill:#868686;font-family:Delius;font-size:10.50pt;font-weight:bold" xml:space="preserve"><tspan x="19.7" y="22.0">Pacific </tspan><tspan x="20.2" y="40.0">Ocean</tspan></text></g><g transform="translate(389.514966,259.428744)" id="shape12"><text style="fill:#868686;font-family:Delius;font-size:10.50pt;font-weight:bold" xml:space="preserve"><tspan x="7.2" y="39.8">Strong Counter Equotorial </tspan><tspan x="74.2" y="57.8">Current</tspan></text></g><g transform="translate(645.788016,203.117244)" id="group13"><path fill="#5fd3e2" transform="translate(0.000000,0.005000)" fill-rule="nonzero" id="shape14" stroke="#4c4c4c" stroke-width="1" d="M16.6,6.2C16.6,6.2,18.8,-0.2,33.0,.0C47.2,.4,50.6,8.5,50.6,8.5C50.6,8.5,55.4,6.5,58.8,8.8C62.1,11.1,59.1,15.4,59.1,14.9C59.1,14.3,64.7,19.5,60.3,23.8C55.8,28.2,47.2,25.3,47.2,25.3C47.2,25.3,45.0,28.5,39.3,29.1C33.7,29.6,29.6,26.5,29.6,26.5C29.6,26.5,23.7,29.6,15.1,28.5C6.5,27.3,5.4,22.1,5.4,22.1C5.4,22.1,.6,22.3,.0,19.1C-0.1,15.9,3.9,15.4,3.9,15.4C3.9,15.4,.9,11.1,5.7,7.6C10.6,4.1,16.6,6.2,16.6,6.2z"/><path fill="#4fb9d6" transform="translate(7.207700,30.157800)" fill-rule="nonzero" id="shape15" stroke="#4c4c4c" stroke-width="1" d="M6.0,11.9C1.9,14.1,-1.1,10.1,.4,6.5C1.9,2.9,6.0,.0,6.0,.0C6.0,.0,10.1,9.8,6.0,11.9zM44.9,.5C44.9,.5,40.8,3.4,39.3,7.0C37.8,10.6,40.8,14.6,44.9,12.4C49.0,10.2,44.9,.5,44.9,.5zM25.9,.0C25.9,.0,21.8,2.9,20.3,6.5C18.8,10.1,21.8,14.1,25.9,11.9C30.0,9.8,25.9,.0,25.9,.0zM35.2,1.2C35.2,1.2,33.0,2.8,32.2,4.7C31.4,6.6,33.0,8.7,35.2,7.6C37.4,6.4,35.2,1.2,35.2,1.2zM14.6,1.2C14.6,1.2,12.4,2.8,11.7,4.7C10.9,6.6,12.4,8.7,14.6,7.6C16.8,6.4,14.6,1.2,14.6,1.2zM17.0,13.2C17.0,13.2,14.8,14.7,14.0,16.6C13.2,18.6,14.8,20.7,17.0,19.5C19.2,18.4,17.0,13.2,17.0,13.2zM30.0,13.2C30.0,13.2,27.8,14.7,27.0,16.6C26.2,18.6,27.8,20.7,30.0,19.5C32.2,18.4,30.0,13.2,30.0,13.2z"/></g><g transform="translate(606.233716,130.876144)" id="group16"><path fill="#5fd3e2" transform="translate(0.000000,0.002209)" fill-rule="nonzero" id="shape17" stroke="#4c4c4c" stroke-width="1" d="M7.4,2.7C7.4,2.7,8.4,-0.1,14.7,.0C21.0,.2,22.4,3.8,22.4,3.8C22.4,3.8,24.6,2.9,26.1,3.9C27.6,4.9,26.3,6.9,26.3,6.6C26.3,6.3,28.8,8.7,26.8,10.6C24.8,12.5,21.0,11.2,21.0,11.2C21.0,11.2,20.0,12.7,17.5,12.9C15.0,13.2,13.2,11.7,13.2,11.7C13.2,11.7,10.5,13.2,6.7,12.7C2.9,12.1,2.4,9.8,2.4,9.8C2.4,9.8,.2,9.9,.0,8.5C-0.1,7.1,1.7,6.9,1.7,6.9C1.7,6.9,.4,4.9,2.5,3.4C4.7,1.8,7.4,2.7,7.4,2.7z"/><path fill="#4fb9d6" transform="translate(3.200818,13.392596)" fill-rule="nonzero" id="shape18" stroke="#4c4c4c" stroke-width="1" d="M2.7,5.3C.8,6.3,-0.5,4.5,.2,2.9C.8,1.3,2.7,.0,2.7,.0C2.7,.0,4.5,4.3,2.7,5.3zM19.9,.2C19.9,.2,18.1,1.5,17.5,3.1C16.8,4.7,18.1,6.5,19.9,5.5C21.8,4.5,19.9,.2,19.9,.2zM11.5,.0C11.5,.0,9.7,1.3,9.0,2.9C8.3,4.5,9.7,6.3,11.5,5.3C13.3,4.3,11.5,.0,11.5,.0zM15.6,.6C15.6,.6,14.7,1.2,14.3,2.1C14.0,2.9,14.7,3.9,15.6,3.4C16.6,2.9,15.6,.6,15.6,.6zM6.5,.6C6.5,.6,5.5,1.2,5.2,2.1C4.8,2.9,5.5,3.9,6.5,3.4C7.5,2.9,6.5,.6,6.5,.6zM7.6,5.8C7.6,5.8,6.6,6.5,6.2,7.4C5.9,8.2,6.6,9.2,7.6,8.7C8.5,8.2,7.6,5.8,7.6,5.8zM13.3,5.8C13.3,5.8,12.3,6.5,12.0,7.4C11.6,8.2,12.3,9.2,13.3,8.7C14.3,8.2,13.3,5.8,13.3,5.8z"/></g></g></svg>