<svg viewBox="0 0 1056 509" height="509" xmlns:xlink="http://www.w3.org/1999/xlink" width="1056" xmlns="http://www.w3.org/2000/svg" xmlns:ev="http://www.w3.org/2001/xml-events"><defs/><g transform="translate(5.5,5.5)" id="page1"><rect y="0" height="499" width="1046" fill="none" x="0"/><g transform="translate(719.000000,39.000000)" id="group1"><path fill-rule="nonzero" d="M.0,.0L288.0,.0L288.0,62.0L.0,62.0L.0,.0z" fill="#668cbc" id="shape2"/><path fill-rule="nonzero" transform="translate(0.000000,57.000000)" d="M.0,.0L288.0,.0L288.0,62.0L.0,62.0L.0,.0z" fill="#7ba9e1" id="shape3"/><path fill-rule="nonzero" transform="translate(0.000000,120.000000)" d="M.0,.0L288.0,.0L288.0,62.0L.0,62.0L.0,.0z" fill="#accfff" id="shape4"/><path fill-rule="nonzero" transform="translate(0.000000,177.000000)" d="M.0,.0L288.0,.0L288.0,62.0L.0,62.0L.0,.0z" fill="#c5dcff" id="shape5"/><path fill-rule="nonzero" transform="translate(0.000000,239.000000)" d="M.0,.0L288.0,.0L288.0,62.0L.0,62.0L.0,.0z" fill="#dbe8ff" id="shape6"/><path fill-rule="nonzero" stroke-width="1" stroke="#101843" transform="matrix(-0.004279,-0.999991,0.999991,-0.004279,101.373524,301.050538)" d="M.0,11.8L11.8,23.6L9.4,16.1L43.0,11.8L9.4,7.6L11.8,.0L.0,11.8z" fill="#191919" id="shape7"/><path fill-rule="nonzero" stroke-width="1" stroke="#101843" transform="matrix(0.051467,0.998675,-0.998675,0.051467,162.763904,257.393749)" d="M.0,11.8L11.8,23.6L9.4,16.0L43.1,11.8L9.4,7.5L11.8,.0L.0,11.8z" fill="#191919" id="shape8"/><path fill-rule="nonzero" stroke-width="1" stroke="#101843" transform="matrix(-0.017892,0.999840,-0.999840,-0.017892,124.805129,201.211250)" d="M.0,11.8L11.8,23.6L9.4,16.1L38.0,11.8L9.4,7.6L11.8,.0L.0,11.8z" fill="#ff7e79" id="shape9"/><g transform="translate(0.000000,359.000000)" id="shape10"><path fill-rule="nonzero" stroke-width="2.333329916000366" stroke="#954744" d="M.0,.0L288.0,.0L288.0,62.0L.0,62.0L.0,.0z" fill="#ffd8d7"/><text xml:space="preserve" style="fill:#191919;font-family:Delius;font-size:18.00pt;font-weight:bold"><tspan y="40.0" x="73.5">Triplet State</tspan></text></g><path fill-rule="nonzero" stroke-width="1" stroke="#101843" transform="matrix(0.022356,0.999750,-0.999750,0.022356,127.801947,135.236091)" d="M.0,11.8L11.8,23.6L9.4,16.1L41.5,11.8L9.4,7.6L11.8,.0L.0,11.8z" fill="#feb67e" id="shape11"/></g><g transform="translate(379.000000,39.000000)" id="group12"><path fill-rule="nonzero" d="M.0,.0L288.0,.0L288.0,62.0L.0,62.0L.0,.0z" fill="#668cbc" id="shape13"/><path fill-rule="nonzero" transform="translate(0.000000,57.000000)" d="M.0,.0L288.0,.0L288.0,62.0L.0,62.0L.0,.0z" fill="#7ba9e1" id="shape14"/><path fill-rule="nonzero" transform="translate(0.000000,120.000000)" d="M.0,.0L288.0,.0L288.0,62.0L.0,62.0L.0,.0z" fill="#accfff" id="shape15"/><path fill-rule="nonzero" transform="translate(0.000000,177.000000)" d="M.0,.0L288.0,.0L288.0,62.0L.0,62.0L.0,.0z" fill="#c5dcff" id="shape16"/><path fill-rule="nonzero" transform="translate(0.000000,239.000000)" d="M.0,.0L288.0,.0L288.0,62.0L.0,62.0L.0,.0z" fill="#dbe8ff" id="shape17"/><path fill-rule="nonzero" stroke-width="1" stroke="#101843" transform="matrix(-0.004279,-0.999991,0.999991,-0.004279,101.373524,301.050538)" d="M.0,11.8L11.8,23.6L9.4,16.1L43.0,11.8L9.4,7.6L11.8,.0L.0,11.8z" fill="#191919" id="shape18"/><path fill-rule="nonzero" stroke-width="1" stroke="#101843" transform="matrix(0.051467,0.998675,-0.998675,0.051467,162.763904,257.393749)" d="M.0,11.8L11.8,23.6L9.4,16.0L43.1,11.8L9.4,7.5L11.8,.0L.0,11.8z" fill="#191919" id="shape19"/><path fill-rule="nonzero" stroke-width="1" stroke="#101843" transform="matrix(-0.017892,0.999840,-0.999840,-0.017892,124.805129,201.211250)" d="M.0,11.8L11.8,23.6L9.4,16.1L38.0,11.8L9.4,7.6L11.8,.0L.0,11.8z" fill="#ff7e79" id="shape20"/><g transform="translate(0.000000,359.000000)" id="shape21"><path fill-rule="nonzero" stroke-width="2.333329916000366" stroke="#2a7d72" d="M.0,.0L288.0,.0L288.0,62.0L.0,62.0L.0,.0z" fill="#d0f0ea"/><text xml:space="preserve" style="fill:#191919;font-family:Delius;font-size:18.00pt;font-weight:bold"><tspan y="40.0" x="71.0">Singlet State</tspan></text></g><path fill-rule="nonzero" stroke-width="1" stroke="#101843" transform="matrix(0.030158,-0.999545,0.999545,0.030158,143.149309,176.644137)" d="M.0,11.8L11.8,23.6L9.4,16.0L35.0,11.8L9.4,7.6L11.8,.0L.0,11.8z" fill="#feb67e" id="shape22"/></g><g transform="translate(39.000000,39.000000)" id="group23"><path fill-rule="nonzero" d="M.0,.0L288.0,.0L288.0,62.0L.0,62.0L.0,.0z" fill="#668cbc" id="shape24"/><path fill-rule="nonzero" transform="translate(0.000000,57.000000)" d="M.0,.0L288.0,.0L288.0,62.0L.0,62.0L.0,.0z" fill="#7ba9e1" id="shape25"/><path fill-rule="nonzero" transform="translate(0.000000,120.000000)" d="M.0,.0L288.0,.0L288.0,62.0L.0,62.0L.0,.0z" fill="#accfff" id="shape26"/><path fill-rule="nonzero" transform="translate(0.000000,177.000000)" d="M.0,.0L288.0,.0L288.0,62.0L.0,62.0L.0,.0z" fill="#c5dcff" id="shape27"/><path fill-rule="nonzero" transform="translate(0.000000,239.000000)" d="M.0,.0L288.0,.0L288.0,62.0L.0,62.0L.0,.0z" fill="#dbe8ff" id="shape28"/><path fill-rule="nonzero" stroke-width="1" stroke="#101843" transform="matrix(-0.004279,-0.999991,0.999991,-0.004279,101.373541,301.050538)" d="M.0,11.8L11.8,23.6L9.4,16.1L43.0,11.8L9.4,7.6L11.8,.0L.0,11.8z" fill="#191919" id="shape29"/><path fill-rule="nonzero" stroke-width="1" stroke="#101843" transform="matrix(0.051467,0.998675,-0.998675,0.051467,162.763904,257.393749)" d="M.0,11.8L11.8,23.6L9.4,16.0L43.1,11.8L9.4,7.5L11.8,.0L.0,11.8z" fill="#191919" id="shape30"/><path fill-rule="nonzero" stroke-width="1" stroke="#101843" transform="matrix(-0.017892,0.999840,-0.999840,-0.017892,124.805129,201.211250)" d="M.0,11.8L11.8,23.6L9.4,16.1L38.0,11.8L9.4,7.6L11.8,.0L.0,11.8z" fill="#ff7e79" id="shape31"/><path fill-rule="nonzero" stroke-width="1" stroke="#101843" transform="matrix(-0.050672,-0.998715,0.998715,-0.050672,141.162659,239.596936)" d="M.0,11.8L11.8,23.6L9.4,16.0L38.0,11.8L9.4,7.5L11.8,.0L.0,11.8z" fill="#feb67e" id="shape32"/><g transform="translate(0.000000,359.000000)" id="shape33"><path fill-rule="nonzero" stroke-width="2.333329916000366" stroke="#222e72" d="M.0,.0L288.0,.0L288.0,62.0L.0,62.0L.0,.0z" fill="#cfd1ea"/><text xml:space="preserve" style="fill:#191919;font-family:Delius;font-size:18.00pt;font-weight:bold"><tspan y="40.0" x="66.0">Ground State</tspan></text></g></g><g transform="translate(463.000000,350.000000)" id="shape34"><text xml:space="preserve" style="fill:#9b9b9b;font-family:Delius;font-size:18.00pt;font-weight:bold"><tspan y="28.0" x="5.5">Nh-emon</tspan></text></g></g></svg>