<svg xmlns="http://www.w3.org/2000/svg" height="1296" viewBox="0 0 786 1296" xmlns:ev="http://www.w3.org/2001/xml-events" xmlns:xlink="http://www.w3.org/1999/xlink" width="786"><defs><linearGradient x2="0%" y1="0%" x1="100%" id="lg1" y2="0%"><stop offset="0.00" stop-color="#acb0b2"/><stop offset="0.03" stop-color="#f5fafc"/><stop offset="0.08" stop-color="#e0e5e7"/><stop offset="0.64" stop-color="#dce2e3"/><stop offset="0.95" stop-color="#d7ddde"/><stop offset="1.00" stop-color="#a0a4a5"/></linearGradient><linearGradient x2="0%" y1="0%" x1="100%" id="lg2" y2="0%"><stop offset="0.00" stop-color="#7a8586"/><stop offset="0.03" stop-color="#c2ccce"/><stop offset="0.08" stop-color="#a0aeb0"/><stop offset="0.64" stop-color="#9dabad"/><stop offset="0.95" stop-color="#9aa7a9"/><stop offset="1.00" stop-color="#717b7c"/></linearGradient><linearGradient x2="0%" y1="0%" x1="100%" id="lg3" y2="0%"><stop offset="0.00" stop-color="#9b9b9c"/><stop offset="0.03" stop-color="#e4e4e4"/><stop offset="0.08" stop-color="#cbcbcb"/><stop offset="0.64" stop-color="#c7c7c8"/><stop offset="0.95" stop-color="#c3c3c4"/><stop offset="1.00" stop-color="#909091"/></linearGradient></defs><g transform="translate(5.5,5.5)" id="page1"><rect x="0" fill="none" height="1286" y="0" width="776"/><g transform="translate(60.814961,115.679245)" id="group1"><path fill="#f38650" transform="translate(5.222900,0.000100)" fill-rule="nonzero" id="shape2" stroke="#4c4c4c" stroke-width="1" d="M39.8,34.2C41.1,43.1,48.1,54.7,48.1,54.7C49.1,53.7,48.1,50.6,52.9,45.8C57.7,41.0,64.0,40.3,64.0,40.3C64.0,40.3,61.2,43.8,60.5,56.1C59.8,68.4,67.5,66.3,67.5,83.4C67.5,100.5,54.3,111.5,32.8,111.5C11.4,111.5,2.4,99.1,.3,87.5C-1.8,75.9,7.2,63.6,5.8,54.0C4.5,44.4,.3,40.3,.3,40.3C.3,40.3,11.4,41.0,18.3,51.3C25.2,61.5,21.8,74.5,21.8,74.5C21.8,74.5,26.3,70.1,25.9,58.1C25.6,46.1,19.7,45.1,22.5,30.1C25.2,15.0,41.1,9.6,41.1,9.6C41.1,9.6,38.4,25.3,39.8,34.2zM44.6,28.0C44.6,35.6,47.4,51.3,49.4,44.4C51.5,37.6,61.9,32.8,57.7,27.3C53.6,21.9,48.1,6.2,48.1,6.2C48.1,6.2,44.6,20.5,44.6,28.0zM7.1,17.4C7.1,17.4,15.3,21.6,12.4,32.9C9.6,44.3,20.5,46.8,19.7,46.0C19.7,46.0,15.3,41.4,17.9,29.0C20.6,16.5,7.1,17.4,7.1,17.4zM28.0,.0C28.0,.0,23.8,4.1,22.5,8.9C21.1,13.7,20.4,17.8,25.2,15.0C30.1,12.3,28.0,.0,28.0,.0z"/><path fill="#f8d02e" transform="translate(12.848800,60.847100)" fill-rule="nonzero" id="shape3" d="M29.4,.0C29.4,.0,27.3,10.9,20.4,14.4C13.4,17.8,14.8,28.7,14.8,28.7C14.8,28.7,6.5,28.7,6.5,22.6C6.5,16.4,5.1,13.0,5.1,13.0C5.1,13.0,-0.4,17.1,.0,24.6C1.0,32.1,7.2,45.8,28.0,44.5C48.7,43.2,52.9,17.8,52.9,17.8L39.7,22.6C39.7,22.6,40.8,18.1,37.7,9.6C34.5,1.0,31.4,.0,29.4,.0z"/><path fill="#454545" transform="translate(16.883000,114.857510)" fill-rule="nonzero" id="shape4" stroke="#4c4c4c" stroke-width="1" d="M13.8,.0L.0,19.1L16.6,19.1L21.4,.0L13.8,.0z"/><path fill="#454545" transform="translate(0.000000,111.576000)" fill-rule="nonzero" id="shape5" stroke="#4c4c4c" stroke-width="1" d="M59.0,.0L84.0,11.6L75.0,17.6L54.1,2.1L59.0,.0zM41.5,2.7L50.5,21.9L67.8,20.5L48.4,2.1L41.5,2.7zM21.0,.5L.0,10.8L7.6,17.0L27.0,3.3L21.0,.5zM30.7,3.3L16.9,22.4L33.5,22.4L38.3,3.3L30.7,3.3z"/></g><path fill="#f38650" transform="translate(264.055118,96.322102)" fill-rule="nonzero" id="shape6" stroke="#f38650" stroke-width="0.3333329856395721" d="M39.3,16.8C39.3,7.5,47.0,.0,56.5,.0C66.0,.0,73.7,7.5,73.7,16.8C73.7,26.1,66.0,33.6,56.5,33.6C47.0,33.6,39.3,26.1,39.3,16.8zM6.4,38.3C2.9,38.3,.0,41.1,.0,44.6C.0,48.0,2.9,50.8,6.4,50.8L40.1,50.8L40.1,89.7L31.2,144.4C30.5,148.6,33.4,152.4,37.6,153.1L38.1,153.4C42.4,153.8,46.3,151.0,47.0,146.9L56.6,89.7L66.0,146.9C66.7,151.0,70.6,153.8,74.9,153.4L75.4,153.1C79.6,152.4,82.5,148.6,81.8,144.4L72.9,89.7L72.9,50.8L106.6,50.8C110.1,50.8,113.0,48.0,113.0,44.6C113.0,41.1,110.1,38.3,106.6,38.3L6.4,38.3z"/><path fill="#315abb" transform="translate(557.555118,96.322245)" fill-rule="nonzero" id="shape7" stroke="#315abb" stroke-width="0.3333329856395721" d="M39.3,16.8C39.3,7.5,47.0,.0,56.5,.0C66.0,.0,73.7,7.5,73.7,16.8C73.7,26.1,66.0,33.6,56.5,33.6C47.0,33.6,39.3,26.1,39.3,16.8zM6.4,38.3C2.9,38.3,.0,41.1,.0,44.6C.0,48.0,2.9,50.8,6.4,50.8L40.1,50.8L40.1,89.7L31.2,144.4C30.5,148.6,33.4,152.4,37.6,153.1L38.1,153.4C42.4,153.8,46.3,151.0,47.0,146.9L56.6,89.7L66.0,146.9C66.7,151.0,70.6,153.8,74.9,153.4L75.4,153.1C79.6,152.4,82.5,148.6,81.8,144.4L72.9,89.7L72.9,50.8L106.6,50.8C110.1,50.8,113.0,48.0,113.0,44.6C113.0,41.1,110.1,38.3,106.6,38.3L6.4,38.3z"/><g transform="translate(127.314961,268.735172)" id="shape8"><text style="fill:#868686;font-family:Delius;font-size:18.00pt;font-weight:bold" xml:space="preserve"><tspan x="123.4" y="31.9">A feel more heat than B</tspan></text></g><g transform="translate(296.925197,39.266175)" id="shape9"><path fill="#e16e6a" fill-rule="nonzero" stroke="#1a255e" stroke-width="1" d="M.0,.0L47.3,.0L47.3,38.0L.0,38.0L.0,.0z"/><text style="fill:#ffffff;font-family:Delius;font-size:18.00pt;font-weight:bold" xml:space="preserve"><tspan x="15.6" y="28.0">A</tspan></text></g><g transform="translate(590.425218,39.266318)" id="shape10"><path fill="#315abb" fill-rule="nonzero" stroke="#1a255e" stroke-width="1" d="M.0,.0L47.3,.0L47.3,38.0L.0,38.0L.0,.0z"/><text style="fill:#ffffff;font-family:Delius;font-size:18.00pt;font-weight:bold" xml:space="preserve"><tspan x="15.1" y="28.0">B</tspan></text></g><path fill="#f38650" transform="translate(250.295197,382.791667)" fill-rule="nonzero" id="shape11" stroke="#f38650" stroke-width="0.3333329856395721" d="M39.3,16.8C39.3,7.5,47.0,.0,56.5,.0C66.0,.0,73.7,7.5,73.7,16.8C73.7,26.1,66.0,33.6,56.5,33.6C47.0,33.6,39.3,26.1,39.3,16.8zM6.4,38.3C2.9,38.3,.0,41.1,.0,44.6C.0,48.0,2.9,50.8,6.4,50.8L40.1,50.8L40.1,89.7L31.2,144.4C30.5,148.6,33.4,152.4,37.6,153.1L38.1,153.4C42.4,153.8,46.3,151.0,47.0,146.9L56.6,89.7L66.0,146.9C66.7,151.0,70.6,153.8,74.9,153.4L75.4,153.1C79.6,152.4,82.5,148.6,81.8,144.4L72.9,89.7L72.9,50.8L106.6,50.8C110.1,50.8,113.0,48.0,113.0,44.6C113.0,41.1,110.1,38.3,106.6,38.3L6.4,38.3z"/><path fill="#315abb" transform="translate(543.795197,382.791667)" fill-rule="nonzero" id="shape12" stroke="#315abb" stroke-width="0.3333329856395721" d="M39.3,16.8C39.3,7.5,47.0,.0,56.5,.0C66.0,.0,73.7,7.5,73.7,16.8C73.7,26.1,66.0,33.6,56.5,33.6C47.0,33.6,39.3,26.1,39.3,16.8zM6.4,38.3C2.9,38.3,.0,41.1,.0,44.6C.0,48.0,2.9,50.8,6.4,50.8L40.1,50.8L40.1,89.7L31.2,144.4C30.5,148.6,33.4,152.4,37.6,153.1L38.1,153.4C42.4,153.8,46.3,151.0,47.0,146.9L56.6,89.7L66.0,146.9C66.7,151.0,70.6,153.8,74.9,153.4L75.4,153.1C79.6,152.4,82.5,148.6,81.8,144.4L72.9,89.7L72.9,50.8L106.6,50.8C110.1,50.8,113.0,48.0,113.0,44.6C113.0,41.1,110.1,38.3,106.6,38.3L6.4,38.3z"/><g transform="translate(183.555139,587.899470)" id="shape13"><text style="fill:#868686;font-family:Delius;font-size:18.00pt;font-weight:bold" xml:space="preserve"><tspan x="79.4" y="32.0">A feel more air pressure than B</tspan></text></g><g transform="translate(283.165297,325.735267)" id="shape14"><path fill="#e16e6a" fill-rule="nonzero" stroke="#1a255e" stroke-width="1" d="M.0,.0L47.3,.0L47.3,38.0L.0,38.0L.0,.0z"/><text style="fill:#ffffff;font-family:Delius;font-size:18.00pt;font-weight:bold" xml:space="preserve"><tspan x="15.6" y="28.0">A</tspan></text></g><g transform="translate(576.665297,325.735267)" id="shape15"><path fill="#315abb" fill-rule="nonzero" stroke="#1a255e" stroke-width="1" d="M.0,.0L47.3,.0L47.3,38.0L.0,38.0L.0,.0z"/><text style="fill:#ffffff;font-family:Delius;font-size:18.00pt;font-weight:bold" xml:space="preserve"><tspan x="15.1" y="28.0">B</tspan></text></g><g transform="translate(47.814961,382.791667)" id="group16"><path fill="#999ea1" transform="translate(0.000000,6.724708)" fill-rule="nonzero" id="shape17" d="M.0,.0L110.0,.0L110.0,139.4L.0,139.4L.0,.0z"/><path fill="url(#lg1)" transform="translate(2.460480,9.063836)" fill-rule="nonzero" id="shape18" d="M.0,.0L105.1,.0L105.1,134.3L.0,134.3L.0,.0z"/><path fill="url(#lg2)" transform="translate(0.000000,146.152302)" fill-rule="nonzero" id="shape19" d="M.0,.0L110.0,.0L110.0,5.8L.0,5.8L.0,.0z"/><path fill="#3e3938" transform="translate(9.447845,23.156440)" fill-rule="nonzero" id="shape20" d="M.0,.0L91.1,.0L91.1,106.1L.0,106.1L.0,.0z"/><path fill="url(#lg1)" transform="translate(8.904115,1.715274)" fill-rule="nonzero" id="shape21" d="M.0,.0L40.0,.0L40.0,5.0L.0,5.0L.0,.0z"/><path fill="url(#lg3)" transform="translate(7.543690,-0.000044)" fill-rule="nonzero" id="shape22" d="M.0,.0L42.7,.0L42.7,1.7L.0,1.7L.0,.0z"/><path fill="url(#lg1)" transform="translate(61.086685,1.715274)" fill-rule="nonzero" id="shape23" d="M.0,.0L40.0,.0L40.0,5.0L.0,5.0L.0,.0z"/><path fill="url(#lg3)" transform="translate(59.726260,-0.000044)" fill-rule="nonzero" id="shape24" d="M.0,.0L42.7,.0L42.7,1.7L.0,1.7L.0,.0z"/><path fill="#acb0b2" transform="translate(83.657530,13.742008)" fill-rule="nonzero" id="shape25" d="M.0,.0L16.2,.0L16.2,4.1L.0,4.1L.0,.0z"/><path fill="#eeeeee" transform="translate(95.738066,13.742008)" fill-rule="nonzero" id="shape26" d="M.0,.0L4.1,.0L4.1,4.1L.0,4.1L.0,.0z"/><g transform="translate(9.447900,24.937120)" id="group27"><path fill="#b4b5b5" transform="translate(0.000000,-0.000032)" fill-rule="nonzero" id="shape28" d="M.0,.0L91.1,.0L91.1,1.4L.0,1.4L.0,.0z"/><path fill="#b4b5b5" transform="translate(0.000000,2.950888)" fill-rule="nonzero" id="shape29" d="M.0,.0L91.1,.0L91.1,1.4L.0,1.4L.0,.0z"/><path fill="#b4b5b5" transform="translate(0.000000,6.339962)" fill-rule="nonzero" id="shape30" d="M.0,.0L91.1,.0L91.1,1.4L.0,1.4L.0,.0z"/><path fill="#b4b5b5" transform="translate(0.000000,13.427607)" fill-rule="nonzero" id="shape31" d="M.0,.0L91.1,.0L91.1,1.4L.0,1.4L.0,.0z"/><path fill="#b4b5b5" transform="translate(0.000000,20.141480)" fill-rule="nonzero" id="shape32" d="M.0,.0L91.1,.0L91.1,1.4L.0,1.4L.0,.0z"/><path fill="#b4b5b5" transform="translate(0.000000,16.784441)" fill-rule="nonzero" id="shape33" d="M.0,.0L91.1,.0L91.1,1.4L.0,1.4L.0,.0z"/><path fill="#b4b5b5" transform="translate(0.000000,9.729015)" fill-rule="nonzero" id="shape34" d="M.0,.0L91.1,.0L91.1,1.4L.0,1.4L.0,.0z"/><path fill="#b4b5b5" transform="translate(0.000000,23.498416)" fill-rule="nonzero" id="shape35" d="M.0,.0L91.1,.0L91.1,1.4L.0,1.4L.0,.0z"/><path fill="#b4b5b5" transform="translate(0.000000,26.855250)" fill-rule="nonzero" id="shape36" d="M.0,.0L91.1,.0L91.1,1.4L.0,1.4L.0,.0z"/><path fill="#b4b5b5" transform="translate(0.000000,30.212187)" fill-rule="nonzero" id="shape37" d="M.0,.0L91.1,.0L91.1,1.4L.0,1.4L.0,.0z"/><path fill="#b4b5b5" transform="translate(0.000000,33.568918)" fill-rule="nonzero" id="shape38" d="M.0,.0L91.1,.0L91.1,1.4L.0,1.4L.0,.0z"/><path fill="#b4b5b5" transform="translate(0.000000,36.796676)" fill-rule="nonzero" id="shape39" d="M.0,.0L91.1,.0L91.1,1.4L.0,1.4L.0,.0z"/><path fill="#b4b5b5" transform="translate(0.000000,39.747615)" fill-rule="nonzero" id="shape40" d="M.0,.0L91.1,.0L91.1,1.4L.0,1.4L.0,.0z"/><path fill="#b4b5b5" transform="translate(0.000000,43.136719)" fill-rule="nonzero" id="shape41" d="M.0,.0L91.1,.0L91.1,1.4L.0,1.4L.0,.0z"/><path fill="#b4b5b5" transform="translate(0.000000,50.224314)" fill-rule="nonzero" id="shape42" d="M.0,.0L91.1,.0L91.1,1.4L.0,1.4L.0,.0z"/><path fill="#b4b5b5" transform="translate(0.000000,56.938084)" fill-rule="nonzero" id="shape43" d="M.0,.0L91.1,.0L91.1,1.4L.0,1.4L.0,.0z"/><path fill="#b4b5b5" transform="translate(0.000000,53.581045)" fill-rule="nonzero" id="shape44" d="M.0,.0L91.1,.0L91.1,1.4L.0,1.4L.0,.0z"/><path fill="#b4b5b5" transform="translate(0.000000,46.525824)" fill-rule="nonzero" id="shape45" d="M.0,.0L91.1,.0L91.1,1.4L.0,1.4L.0,.0z"/><path fill="#b4b5b5" transform="translate(0.000000,60.294918)" fill-rule="nonzero" id="shape46" d="M.0,.0L91.1,.0L91.1,1.4L.0,1.4L.0,.0z"/><path fill="#b4b5b5" transform="translate(0.000000,63.651854)" fill-rule="nonzero" id="shape47" d="M.0,.0L91.1,.0L91.1,1.4L.0,1.4L.0,.0z"/><path fill="#b4b5b5" transform="translate(0.000000,67.008893)" fill-rule="nonzero" id="shape48" d="M.0,.0L91.1,.0L91.1,1.4L.0,1.4L.0,.0z"/><path fill="#b4b5b5" transform="translate(0.000000,70.365522)" fill-rule="nonzero" id="shape49" d="M.0,.0L91.1,.0L91.1,1.4L.0,1.4L.0,.0z"/><path fill="#b4b5b5" transform="translate(0.000000,73.814250)" fill-rule="nonzero" id="shape50" d="M.0,.0L91.1,.0L91.1,1.4L.0,1.4L.0,.0z"/><path fill="#b4b5b5" transform="translate(0.000000,80.902151)" fill-rule="nonzero" id="shape51" d="M.0,.0L91.1,.0L91.1,1.4L.0,1.4L.0,.0z"/><path fill="#b4b5b5" transform="translate(0.000000,87.615819)" fill-rule="nonzero" id="shape52" d="M.0,.0L91.1,.0L91.1,1.4L.0,1.4L.0,.0z"/><path fill="#b4b5b5" transform="translate(0.000000,84.258473)" fill-rule="nonzero" id="shape53" d="M.0,.0L91.1,.0L91.1,1.4L.0,1.4L.0,.0z"/><path fill="#b4b5b5" transform="translate(0.000000,77.202944)" fill-rule="nonzero" id="shape54" d="M.0,.0L91.1,.0L91.1,1.4L.0,1.4L.0,.0z"/><path fill="#b4b5b5" transform="translate(0.000000,90.972243)" fill-rule="nonzero" id="shape55" d="M.0,.0L91.1,.0L91.1,1.4L.0,1.4L.0,.0z"/><path fill="#b4b5b5" transform="translate(0.000000,94.329487)" fill-rule="nonzero" id="shape56" d="M.0,.0L91.1,.0L91.1,1.4L.0,1.4L.0,.0z"/><path fill="#b4b5b5" transform="translate(0.000000,97.685911)" fill-rule="nonzero" id="shape57" d="M.0,.0L91.1,.0L91.1,1.4L.0,1.4L.0,.0z"/><path fill="#b4b5b5" transform="translate(0.000000,101.043155)" fill-rule="nonzero" id="shape58" d="M.0,.0L91.1,.0L91.1,1.4L.0,1.4L.0,.0z"/></g></g><path fill="none" transform="matrix(0.004978,0.999988,-0.999988,0.004978,87.185039,722.735172)" id="shape59" stroke="#ff0000" stroke-width="4" d="M.0,.0L401.8,.0" stroke-dasharray="11,5"/><path fill="none" transform="matrix(-0.007638,0.999971,-0.999971,-0.007638,210.185039,722.735172)" id="shape60" stroke="#f38650" stroke-width="4" d="M.0,.0L392.8,.0" stroke-dasharray="11,5"/><path fill="none" transform="matrix(0.002546,0.999997,-0.999997,0.002546,475.185039,722.735172)" id="shape61" stroke="#696969" stroke-width="4" d="M.0,.0L392.8,.0" stroke-dasharray="11,5"/><g transform="translate(183.555139,1134.500674)" id="shape62"><path fill="#e16e6a" fill-rule="nonzero" stroke="#1a255e" stroke-width="1" d="M.0,.0L47.3,.0L47.3,38.0L.0,38.0L.0,.0z"/><text style="fill:#ffffff;font-family:Delius;font-size:18.00pt;font-weight:bold" xml:space="preserve"><tspan x="15.6" y="28.0">A</tspan></text></g><g transform="translate(452.185039,1134.500674)" id="shape63"><path fill="#315abb" fill-rule="nonzero" stroke="#1a255e" stroke-width="1" d="M.0,.0L47.3,.0L47.3,38.0L.0,38.0L.0,.0z"/><text style="fill:#ffffff;font-family:Delius;font-size:18.00pt;font-weight:bold" xml:space="preserve"><tspan x="15.1" y="28.0">B</tspan></text></g><g transform="translate(37.814961,685.500674)" id="shape64"><text style="fill:#ff0000;font-family:Delius;font-size:18.00pt;font-weight:bold" xml:space="preserve"><tspan x="17.5" style="text-decoration:underline" y="28.0">400mb</tspan></text></g><g transform="translate(162.185039,685.500674)" id="shape65"><text style="fill:#f38650;font-family:Delius;font-size:18.00pt;font-weight:bold" xml:space="preserve"><tspan x="18.0" style="text-decoration:underline" y="28.0">200mb</tspan></text></g><g transform="translate(427.185039,685.500674)" id="shape66"><path fill="#315abb" fill-rule="nonzero" d="M.0,.0L120.0,.0L120.0,38.0L.0,38.0L.0,.0z"/><text style="fill:#ffffff;font-family:Delius;font-size:18.00pt;font-weight:bold" xml:space="preserve"><tspan x="18.0" style="text-decoration:underline" y="28.0">200mb</tspan></text></g><g transform="translate(87.185039,769.735172)" id="shape67"><path fill="none" stroke="#000000" stroke-width="2" d="M.0,.0L116.3,.0"/><path fill="#000000" stroke-linecap="round" stroke-width="1" stroke="#000000" d="M116.3,-6.7L123.0,.0L116.3,6.7L116.3,-6.7"/></g><g transform="translate(87.185039,788.735172)" id="shape68"><path fill="none" stroke="#000000" stroke-width="2" d="M.0,.0L116.3,.0"/><path fill="#000000" stroke-linecap="round" stroke-width="1" stroke="#000000" d="M116.3,-6.7L123.0,.0L116.3,6.7L116.3,-6.7"/></g><g transform="translate(87.185039,835.085566)" id="shape69"><path fill="none" stroke="#868686" stroke-width="2" d="M.0,.0L381.3,.0"/><path fill="#868686" stroke-linecap="round" stroke-width="1" stroke="#868686" d="M381.3,-6.7L388.0,.0L381.3,6.7L381.3,-6.7"/></g><g transform="translate(87.185039,854.085566)" id="shape70"><path fill="none" stroke="#868686" stroke-width="2" d="M.0,.0L381.3,.0"/><path fill="#868686" stroke-linecap="round" stroke-width="1" stroke="#868686" d="M381.3,-6.7L388.0,.0L381.3,6.7L381.3,-6.7"/></g><g transform="translate(87.185039,873.085566)" id="shape71"><path fill="none" stroke="#868686" stroke-width="2" d="M.0,.0L381.3,.0"/><path fill="#868686" stroke-linecap="round" stroke-width="1" stroke="#868686" d="M381.3,-6.7L388.0,.0L381.3,6.7L381.3,-6.7"/></g><g transform="translate(617.684939,685.500674)" id="shape72"><text style="fill:#000000;font-family:Delius;font-size:18.00pt;font-weight:bold" xml:space="preserve"><tspan x="7.0" y="28.0">ISOBARs</tspan></text></g><g transform="translate(85.500000,751.883425)" id="shape73"><path fill="none" stroke="#000000" stroke-width="2" d="M.0,.0L116.3,.0"/><path fill="#000000" stroke-linecap="round" stroke-width="1" stroke="#000000" d="M116.3,-6.7L123.0,.0L116.3,6.7L116.3,-6.7"/></g><g transform="translate(183.555139,1202.149600)" id="shape74"><text style="fill:#868686;font-family:Delius;font-size:18.00pt;font-weight:bold" xml:space="preserve"><tspan x="79.4" y="32.0">A feel more air pressure than B</tspan></text></g></g></svg>