<svg xmlns="http://www.w3.org/2000/svg" height="653" viewBox="0 0 678 653" xmlns:ev="http://www.w3.org/2001/xml-events" xmlns:xlink="http://www.w3.org/1999/xlink" width="678"><defs/><g transform="translate(5.5,5.5)" id="page1"><rect x="0" fill="none" height="643" y="0" width="668"/><path fill="none" transform="matrix(0.004978,0.999988,-0.999988,0.004978,87.402500,75.110450)" id="shape1" stroke="#ff0000" stroke-width="4" d="M.0,.0L401.8,.0" stroke-dasharray="11,5"/><path fill="none" transform="matrix(-0.007638,0.999971,-0.999971,-0.007638,210.402500,75.110450)" id="shape2" stroke="#f38650" stroke-width="4" d="M.0,.0L392.8,.0" stroke-dasharray="11,5"/><path fill="none" transform="matrix(0.002546,0.999997,-0.999997,0.002546,475.402500,75.110450)" id="shape3" stroke="#696969" stroke-width="4" d="M.0,.0L392.8,.0" stroke-dasharray="11,5"/><g transform="translate(183.772600,486.875450)" id="shape4"><path fill="#e16e6a" fill-rule="nonzero" stroke="#1a255e" stroke-width="1" d="M.0,.0L47.3,.0L47.3,38.0L.0,38.0L.0,.0z"/><text style="fill:#ffffff;font-family:Delius;font-size:18.00pt;font-weight:bold" xml:space="preserve"><tspan x="15.6" y="28.0">A</tspan></text></g><g transform="translate(452.402600,486.875450)" id="shape5"><path fill="#315abb" fill-rule="nonzero" stroke="#1a255e" stroke-width="1" d="M.0,.0L47.3,.0L47.3,38.0L.0,38.0L.0,.0z"/><text style="fill:#ffffff;font-family:Delius;font-size:18.00pt;font-weight:bold" xml:space="preserve"><tspan x="15.1" y="28.0">B</tspan></text></g><g transform="translate(38.032500,37.876450)" id="shape6"><text style="fill:#868686;font-family:Delius;font-size:18.00pt;font-weight:bold" xml:space="preserve"><tspan x="17.5" style="text-decoration:underline" y="28.0">400mb</tspan></text></g><g transform="translate(162.402500,37.876450)" id="shape7"><text style="fill:#868686;font-family:Delius;font-size:18.00pt;font-weight:bold" xml:space="preserve"><tspan x="18.0" style="text-decoration:underline" y="28.0">200mb</tspan></text></g><g transform="translate(427.402500,37.876450)" id="shape8"><path fill="#315abb" fill-rule="nonzero" d="M.0,.0L120.0,.0L120.0,38.0L.0,38.0L.0,.0z"/><text style="fill:#ffffff;font-family:Delius;font-size:18.00pt;font-weight:bold" xml:space="preserve"><tspan x="18.0" y="28.0">200mb</tspan></text></g><g transform="translate(87.402500,122.110450)" id="shape9"><path fill="none" stroke="#868686" stroke-width="2" d="M.0,.0L116.3,.0"/><path fill="#868686" stroke-linecap="round" stroke-width="1" stroke="#868686" d="M116.3,-6.7L123.0,.0L116.3,6.7L116.3,-6.7"/></g><g transform="translate(87.402500,141.110450)" id="shape10"><path fill="none" stroke="#868686" stroke-width="2" d="M.0,.0L116.3,.0"/><path fill="#868686" stroke-linecap="round" stroke-width="1" stroke="#868686" d="M116.3,-6.7L123.0,.0L116.3,6.7L116.3,-6.7"/></g><g transform="translate(87.402500,187.461450)" id="shape11"><path fill="none" stroke="#868686" stroke-width="2" d="M.0,.0L381.3,.0"/><path fill="#868686" stroke-linecap="round" stroke-width="1" stroke="#868686" d="M381.3,-6.7L388.0,.0L381.3,6.7L381.3,-6.7"/></g><g transform="translate(87.402500,206.461450)" id="shape12"><path fill="none" stroke="#868686" stroke-width="2" d="M.0,.0L381.3,.0"/><path fill="#868686" stroke-linecap="round" stroke-width="1" stroke="#868686" d="M381.3,-6.7L388.0,.0L381.3,6.7L381.3,-6.7"/></g><g transform="translate(87.402500,225.461450)" id="shape13"><path fill="none" stroke="#868686" stroke-width="2" d="M.0,.0L381.3,.0"/><path fill="#868686" stroke-linecap="round" stroke-width="1" stroke="#868686" d="M381.3,-6.7L388.0,.0L381.3,6.7L381.3,-6.7"/></g><g transform="translate(509.967500,113.123550)" id="shape14"><text style="fill:#868686;font-family:Delius;font-size:18.00pt;font-weight:bold" xml:space="preserve"><tspan x="7.0" y="28.0">ISOBARs</tspan></text></g><g transform="translate(85.717500,104.258450)" id="shape15"><path fill="none" stroke="#868686" stroke-width="2" d="M.0,.0L116.3,.0"/><path fill="#868686" stroke-linecap="round" stroke-width="1" stroke="#868686" d="M116.3,-6.7L123.0,.0L116.3,6.7L116.3,-6.7"/></g><g transform="translate(91.707657,559.273150)" id="shape16"><text style="fill:#868686;font-family:Delius;font-size:18.00pt;font-weight:bold" xml:space="preserve"><tspan x="79.4" y="32.0">A feel more air pressure than B</tspan></text></g><g transform="translate(261.707657,231.155756)" id="shape17"><text style="fill:#868686;font-family:Delius;font-size:18.00pt;font-weight:bold" xml:space="preserve"><tspan x="12.5" y="28.0">low PGF</tspan></text></g><g transform="translate(91.707657,137.155756)" id="shape18"><text style="fill:#868686;font-family:Delius;font-size:18.00pt;font-weight:bold" xml:space="preserve"><tspan x="6.0" y="28.0">High PGF</tspan></text></g></g></svg>