<svg xmlns="http://www.w3.org/2000/svg" height="515" viewBox="0 0 845 515" xmlns:ev="http://www.w3.org/2001/xml-events" xmlns:xlink="http://www.w3.org/1999/xlink" width="845"><defs/><g transform="translate(5.5,5.5)" id="page1"><rect x="0" fill="#eef4ff" height="505" y="0" width="835"/><path fill="#f29952" transform="translate(645.554288,195.113941)" fill-rule="nonzero" id="shape1" stroke="#f29952" stroke-width="1" d="M5.3,6.6L7.3,9.9C7.3,9.9,8.9,16.2,4.0,22.1C4.0,22.1,-0.7,28.0,1.6,30.3C1.6,30.3,3.3,32.6,.0,33.9C.0,33.9,.0,37.5,4.3,41.1C4.3,41.1,9.3,55.2,21.5,62.1C21.5,62.1,25.2,68.3,23.8,85.1C23.8,85.1,27.8,100.1,25.8,102.1C25.8,102.1,24.8,112.0,29.1,114.9C29.1,114.9,30.7,121.2,29.1,121.2C29.1,121.2,32.1,139.5,52.4,139.5C52.4,139.5,43.9,136.2,43.9,131.1C43.9,131.1,44.4,124.4,46.3,124.4C46.3,124.4,39.2,123.5,43.4,118.8C43.4,118.8,47.1,115.4,41.8,110.9C41.8,110.9,49.3,113.3,46.6,107.0C46.6,107.0,59.9,105.7,49.5,97.8C49.5,97.8,49.3,93.8,55.9,97.8C55.9,97.8,57.5,100.1,61.5,91.5C61.5,91.5,65.7,84.4,65.7,83.9C65.7,83.3,64.4,80.5,64.4,80.5C64.4,80.5,66.0,73.4,74.7,73.4C74.7,73.4,81.1,69.4,80.3,52.9C80.3,52.9,83.2,47.7,85.1,46.6C85.1,46.6,91.4,35.6,83.4,35.6C83.4,35.6,77.1,29.3,70.5,30.1C70.5,30.1,58.0,25.6,58.0,23.5C58.0,23.5,60.4,11.2,46.2,11.8C46.2,11.8,37.3,-0.4,31.8,2.8C31.8,2.8,24.1,3.6,22.5,.4C22.5,.4,14.0,-2.2,10.8,4.9C10.8,4.9,8.1,9.1,5.3,6.6z"/><path fill="#868686" transform="translate(541.412003,69.101061)" fill-rule="nonzero" id="shape2" stroke="#f29952" stroke-width="1" d="M.0,37.7C.0,37.7,22.0,34.8,29.1,30.1C29.1,30.1,29.4,24.6,34.5,28.5C34.5,28.5,40.3,27.7,41.9,25.3C41.9,25.3,47.7,28.0,49.0,26.7C49.0,26.7,54.6,34.0,55.4,30.9C55.4,30.9,56.4,39.8,52.7,44.2C52.7,44.2,55.4,49.2,51.9,53.4C51.9,53.4,39.7,65.2,44.2,73.6L44.2,78.4C44.2,78.4,50.1,78.1,48.5,86.8C48.5,86.8,48.7,89.9,50.3,90.7L49.5,92.5L51.8,94.8L51.8,97.0C51.8,97.0,51.7,99.6,52.5,99.6C53.2,99.6,56.1,101.3,55.7,100.9L56.1,97.8L55.1,92.5L52.5,89.9L51.8,88.3L55.1,84.4C55.1,84.4,55.1,87.6,55.1,88.1C55.1,88.6,55.4,91.7,56.3,92.5C57.2,93.4,57.6,93.8,58.5,94.8C59.5,95.8,61.2,97.5,61.2,98.6C61.2,99.6,62.8,100.6,62.8,101.3C62.8,102.0,64.8,103.0,63.8,105.4C62.8,107.9,60.7,107.8,61.2,108.3C61.7,108.8,63.1,111.3,63.8,111.4C64.5,111.6,66.6,112.4,68.0,113.1C69.4,113.8,72.6,115.6,73.4,115.6C74.1,115.7,74.9,116.2,77.1,117.2C79.2,118.3,80.9,117.2,82.1,117.2C83.3,117.2,83.3,117.2,83.3,117.2C83.3,117.2,83.5,120.4,84.4,120.4C85.4,120.4,89.2,121.8,89.5,122.2C89.9,122.6,92.6,121.6,93.3,122.2C93.9,122.9,95.1,123.8,95.1,124.8C95.1,125.9,96.0,128.6,96.4,129.0C96.8,129.4,97.2,129.8,98.3,130.9C99.4,131.9,99.5,132.1,100.0,132.6C100.5,133.1,104.9,135.3,105.8,135.5C106.8,135.5,107.6,133.9,107.3,133.2C107.0,132.6,110.2,132.6,110.2,132.6C110.2,132.6,108.1,130.9,107.3,130.9C106.5,130.9,105.7,130.1,104.9,130.9C104.1,131.7,101.5,129.0,101.5,129.0C101.5,129.0,101.7,124.8,102.3,124.8C102.8,124.8,103.3,123.0,103.3,122.2C103.3,121.4,102.3,120.1,102.3,119.6C102.3,119.1,100.0,118.9,100.0,118.9C100.0,118.9,95.8,118.8,95.1,118.5C94.5,118.1,91.2,117.2,91.2,117.2L93.7,114.7C93.7,114.7,95.1,115.1,95.1,114.1C95.1,113.1,96.4,112.8,96.4,111.4C96.4,110.1,98.3,108.3,98.3,108.3L98.3,106.7C98.3,106.7,98.6,105.4,97.0,105.4C95.4,105.4,96.4,104.2,94.0,105.4C91.7,106.7,91.7,105.1,90.6,106.7C89.5,108.3,89.5,108.0,89.5,108.6C89.5,109.1,88.6,110.8,88.0,111.4C87.3,112.1,88.6,113.1,86.3,113.1C84.1,113.1,83.2,113.1,82.7,113.1C82.1,113.1,79.5,112.2,79.7,112.5C79.7,112.5,80.8,109.9,80.0,109.1C79.2,108.3,78.4,107.8,78.4,106.2C78.4,104.6,78.4,106.5,78.4,104.6C78.4,102.8,77.5,101.9,78.5,101.3C79.5,100.7,79.2,100.2,80.0,98.6C80.8,97.0,80.5,96.2,80.7,95.8C80.8,95.4,81.6,93.1,81.6,93.1C81.6,93.1,80.9,93.0,82.1,92.5C83.3,92.1,83.9,90.4,85.5,89.9C87.2,89.4,88.0,88.1,90.6,88.1C93.3,88.1,93.0,88.1,94.0,88.1C95.1,88.1,96.4,89.9,96.4,89.9L98.3,86.5C98.3,86.5,101.2,87.6,102.3,87.0C103.3,86.5,106.5,88.1,106.5,88.1C106.5,88.1,107.8,88.4,108.1,90.7C108.4,93.1,107.3,94.3,107.3,94.8C107.3,95.2,106.5,94.6,107.3,95.8C108.1,97.0,108.4,97.0,109.7,97.0C111.0,97.0,113.4,96.9,112.8,95.8C112.2,94.8,113.4,94.3,112.6,92.5C111.8,90.7,112.8,91.8,112.2,89.9C111.6,88.1,111.5,88.1,111.3,87.0C111.0,86.0,109.3,87.2,111.0,86.0C112.8,84.8,113.1,84.4,112.8,84.8C112.8,84.8,113.5,84.0,115.0,82.6C116.4,81.1,120.2,80.4,120.7,79.0C121.2,77.7,120.7,77.5,122.0,76.9C123.3,76.4,122.8,76.7,123.6,75.4C124.4,74.0,123.8,74.3,124.5,72.6C125.2,70.9,126.3,69.9,126.3,69.9C126.3,69.9,126.3,71.4,127.0,70.6C127.8,69.9,130.5,67.7,130.5,67.2L134.1,64.5L136.2,64.5C136.2,64.5,138.6,65.2,138.6,64.5C138.6,63.7,139.4,62.4,138.6,61.6C137.8,60.8,140.7,59.5,141.7,58.4C142.8,57.4,142.8,57.4,144.4,56.8C146.0,56.3,146.0,56.3,146.0,56.3L146.0,58.4C146.0,58.4,147.4,59.9,147.8,60.3C148.2,60.7,150.0,60.3,150.0,60.3L149.7,58.4C149.7,58.4,150.2,60.0,151.8,58.4C153.4,56.8,152.9,56.8,154.5,56.8C156.1,56.8,158.2,55.5,159.0,55.3C159.8,55.0,159.9,54.1,159.0,54.2C158.0,54.4,157.1,54.2,157.1,54.2L154.5,54.0L152.6,54.2C152.6,54.2,151.0,53.4,150.5,52.9C150.0,52.4,151.0,51.3,151.8,50.5C152.6,49.8,153.7,49.8,154.1,49.4C154.5,49.0,154.5,50.0,154.5,49.0C154.5,47.9,156.8,45.8,153.4,46.9C150.0,48.0,148.9,47.9,148.4,48.7C147.8,49.5,146.3,49.0,147.8,47.4C149.4,45.8,151.2,45.3,152.6,45.3C154.1,45.3,151.8,46.3,154.5,45.8C157.1,45.3,157.4,45.8,159.0,45.6C160.6,45.3,162.6,45.9,163.2,45.3C163.7,44.8,164.8,44.5,164.8,44.5C164.8,44.5,162.9,47.4,161.6,48.7C160.3,50.0,159.0,50.5,159.0,50.5C159.0,50.5,162.6,51.9,163.2,51.9C163.7,51.9,166.1,52.9,167.2,52.9C168.2,52.9,166.9,51.6,168.2,52.9C169.6,54.2,170.1,55.5,171.4,54.2C172.7,52.9,173.3,51.1,173.3,50.5C173.3,50.0,173.3,46.9,173.3,46.9L168.2,46.9L170.6,44.0C170.6,44.0,170.6,42.4,170.6,41.4C170.6,40.3,172.0,40.6,170.6,39.3C169.3,37.9,166.9,36.4,166.9,36.4C166.9,36.4,165.9,34.5,165.9,34.5C165.9,34.5,166.1,32.2,166.9,31.4C167.7,30.6,165.9,28.2,165.9,29.0L163.6,26.0L161.6,24.8C161.6,24.8,162.4,21.4,160.3,24.8C158.2,28.2,155.8,28.2,155.8,28.2C155.8,28.2,153.9,28.5,154.1,27.6C154.2,26.7,156.1,24.8,155.8,24.8C155.8,24.8,153.1,22.2,150.2,22.2C150.2,22.2,144.4,19.3,140.7,28.5C140.7,28.5,146.5,34.3,135.4,37.2C135.4,37.2,131.5,38.9,132.2,39.3C132.9,39.7,132.2,42.9,132.2,42.9L130.4,42.9C130.4,42.9,127.4,44.2,127.4,42.9C127.4,41.6,127.7,39.3,129.0,39.3C130.4,39.3,131.1,38.2,131.1,38.2L130.4,36.1L129.0,36.1C129.0,36.1,129.3,37.2,127.4,36.1C125.6,35.1,124.9,35.2,124.3,34.5C123.6,33.9,124.8,33.7,122.8,33.1C120.8,32.4,118.2,32.2,118.2,32.2L118.2,31.4C118.2,31.4,119.1,30.5,119.1,29.9C119.1,29.4,117.1,28.0,117.1,28.0C117.1,28.0,116.0,29.0,118.2,26.9C120.3,24.8,123.2,23.5,123.7,23.5C124.3,23.5,124.8,23.0,125.3,22.7C125.8,22.5,127.7,22.7,129.0,21.4C130.4,20.1,132.2,20.1,132.2,20.1C132.2,20.1,131.7,19.0,134.1,19.0C136.4,19.0,137.2,18.0,137.8,19.0C138.3,20.1,137.0,20.1,138.8,20.1C140.7,20.1,142.3,19.0,142.3,19.0C142.3,19.0,142.5,21.4,143.9,21.4C145.2,21.4,145.7,19.0,145.7,19.0C145.7,19.0,145.5,17.5,143.9,17.5C142.3,17.5,142.8,15.1,142.3,15.6C141.7,16.2,138.6,15.6,140.4,15.6C142.3,15.6,145.1,14.7,145.7,14.8C146.4,15.0,147.4,13.9,147.2,14.2C147.2,14.2,147.6,13.0,148.0,12.6C148.4,12.2,146.4,11.8,148.6,11.2C150.9,10.5,151.2,11.0,151.0,10.4C150.9,9.7,149.4,8.0,151.0,8.0C152.6,8.0,155.3,8.0,155.3,8.0C155.3,8.0,158.4,11.2,159.5,11.2C160.6,11.2,162.3,10.5,161.6,11.2C161.0,11.8,157.8,13.9,157.8,13.9C157.8,13.9,156.6,14.1,155.8,14.8C155.0,15.6,152.9,17.5,151.0,17.5C149.2,17.5,147.4,16.3,147.3,16.4C147.3,16.4,149.4,18.0,150.5,19.0C151.5,20.1,154.5,20.1,155.5,20.1C156.6,20.1,155.5,20.1,156.6,20.1C157.6,20.1,159.0,21.4,159.0,21.4L163.2,21.4L163.2,20.1C163.2,20.1,165.6,20.1,166.1,20.1C166.7,20.1,167.4,21.1,167.4,20.1C167.4,19.0,168.0,17.5,168.0,17.5C168.0,17.5,164.8,16.4,166.1,15.6C167.4,14.8,167.7,14.1,168.5,14.8C169.3,15.6,168.2,15.1,169.2,16.3C170.1,17.5,170.1,17.5,171.2,17.5C172.2,17.5,175.4,15.6,175.1,15.6C175.1,15.6,175.4,15.8,175.4,14.8C175.4,13.9,174.5,13.1,174.5,13.1C174.5,13.1,173.3,11.2,170.6,11.2C168.0,11.2,168.0,11.2,168.0,11.2L171.2,9.3C171.2,9.3,171.2,10.6,171.2,9.3C171.2,8.0,168.5,7.2,168.0,7.5C167.4,7.8,166.7,7.0,166.7,7.0C166.7,7.0,167.1,7.9,166.1,6.7C165.2,5.5,164.4,3.2,164.4,3.2C164.4,3.2,164.5,3.6,164.0,2.8C163.5,2.0,163.7,1.7,161.6,2.2C159.5,2.8,159.0,2.5,157.8,2.9C156.6,3.3,157.4,3.3,153.8,3.2C150.2,3.0,149.8,3.7,148.6,2.8C147.4,1.9,145.2,2.2,145.2,2.2C145.2,2.2,144.9,.9,143.6,.7C142.3,.4,141.2,.7,140.4,1.5C139.6,2.2,139.8,1.3,139.6,2.2C139.5,3.2,137.8,3.2,137.8,3.2C137.8,3.2,135.4,4.3,135.4,3.2C135.4,2.0,135.3,.7,134.1,.7C132.9,.7,133.3,.7,132.2,1.5C131.1,2.2,130.4,2.5,130.4,3.2C130.4,3.8,129.0,3.2,129.0,3.2L130.4,5.7C130.4,5.7,128.5,4.3,130.4,5.7C132.2,7.0,132.2,6.4,132.2,7.0C132.2,7.5,133.3,7.2,132.2,8.0C131.1,8.8,131.7,9.3,130.4,9.3C129.0,9.3,128.2,9.6,127.4,8.8C126.6,8.0,124.3,8.0,124.3,8.0L123.7,7.5C123.7,7.5,124.3,4.6,125.3,4.3C126.4,4.1,127.4,4.3,127.4,4.3C127.4,4.3,130.8,3.2,126.2,3.2C121.7,3.2,122.8,3.2,121.1,3.2C119.4,3.2,118.2,3.3,118.0,3.2L115.1,3.2L114.2,2.2L112.9,2.2C112.9,2.2,110.5,.7,109.7,.7C108.9,.7,110.2,.7,108.1,.7C106.0,.7,107.0,.7,105.2,.7C103.3,.7,104.1,.7,103.1,.7C102.0,.7,103.9,-0.9,102.0,.7C100.1,2.2,97.1,3.2,97.1,3.2C97.1,3.2,93.1,2.0,95.1,3.2C97.1,4.3,99.9,5.9,99.6,5.7C99.6,5.7,101.7,4.3,103.1,4.3C104.4,4.3,104.4,4.3,104.4,4.3L103.3,7.0L103.1,8.0L105.2,11.2C105.2,11.2,105.6,12.2,104.4,11.7C103.2,11.2,102.0,11.4,101.5,10.4C100.9,9.3,99.1,8.0,99.1,8.0C99.1,8.0,98.8,7.5,97.0,7.5C95.1,7.5,93.8,8.0,91.4,8.0C89.0,8.0,91.4,8.0,87.7,8.0C84.0,8.0,84.0,6.7,82.7,8.0C81.3,9.3,82.4,8.3,79.7,9.3C77.1,10.4,76.0,10.4,77.1,10.4C77.1,10.4,75.8,10.4,74.7,10.4C73.7,10.4,71.0,9.9,69.7,9.3C68.4,8.8,67.3,8.5,65.4,8.0C63.6,7.5,62.5,7.5,60.9,7.5C59.3,7.5,58.5,8.0,57.5,7.0C56.4,5.9,60.7,5.4,55.1,5.7C49.5,5.9,50.6,5.9,48.5,7.0C46.4,8.0,44.2,8.0,43.4,8.0C42.7,8.0,41.1,8.0,40.5,8.0C40.0,8.0,37.9,8.3,36.8,9.3C35.8,10.4,35.4,9.7,34.4,11.2C33.5,12.6,33.6,13.0,33.6,13.9C33.6,13.9,29.7,15.9,29.4,15.4C29.1,14.8,25.4,13.9,25.4,13.9L22.8,15.4L22.8,16.2C22.8,16.2,27.0,16.9,27.4,17.3C27.8,17.7,29.3,16.4,28.3,18.3C27.4,20.1,27.5,20.0,24.8,20.0C22.0,20.0,24.4,19.3,20.4,20.0C16.4,20.6,18.0,19.8,16.4,20.6C14.8,21.4,15.0,22.1,14.6,22.5C14.2,22.9,13.0,23.8,13.5,24.6C14.0,25.3,14.6,25.7,14.6,25.7C14.6,25.7,14.3,26.4,15.4,26.4C16.4,26.4,17.5,25.9,16.9,26.7C16.4,27.4,14.8,26.7,15.6,27.4C16.4,28.2,19.6,28.5,19.6,28.5C19.6,28.5,21.4,29.0,19.6,29.3C17.8,29.6,17.5,30.5,16.9,30.5C16.4,30.5,18.3,29.3,15.6,30.5C13.0,31.6,14.3,31.1,11.5,32.0C8.7,33.0,8.8,33.7,6.5,33.7C4.3,33.7,6.4,32.7,4.3,33.7C2.2,34.7,1.8,35.1,2.2,34.7L.0,37.7z"/><path fill="#f29952" transform="translate(258.855698,253.966628)" fill-rule="nonzero" id="shape3" stroke="#f29952" stroke-width="1" d="M3.2,25.2C3.2,25.2,5.3,43.3,.0,47.2C.0,47.2,.2,53.0,8.7,49.6C8.7,49.6,31.8,39.9,34.7,44.1C34.7,44.1,33.1,52.0,40.8,51.2C40.8,51.2,38.1,62.5,58.6,55.9C58.6,55.9,79.5,39.6,74.2,28.1C74.2,28.1,72.0,27.0,72.0,26.5C72.0,26.0,72.0,23.4,72.0,23.4L69.4,19.4L66.2,17.6C66.2,17.6,66.7,7.9,63.6,7.9C63.6,7.9,62.2,-10.5,57.7,8.9C57.7,8.9,55.1,18.6,47.4,8.9C47.4,8.9,49.8,3.9,51.9,3.1C51.9,3.1,49.0,1.6,45.5,2.4L41.6,.0L40.8,3.1L39.2,2.4C39.2,2.4,36.3,5.5,36.3,7.6C36.3,7.6,35.3,9.8,33.6,6.6C33.6,6.6,30.4,1.8,23.6,11.8C23.6,11.8,20.4,12.3,20.4,15.0C20.4,15.0,21.4,17.3,13.5,19.2C13.5,19.2,3.9,22.6,3.2,25.2z"/><path fill="#868686" transform="translate(39.019329,69.101131)" fill-rule="nonzero" id="shape4" stroke="#f29952" stroke-width="1" d="M13.7,70.9C13.7,70.9,3.6,68.6,2.5,70.9C2.5,70.9,3.1,77.0,.9,78.3C.9,78.3,-2.0,83.8,2.3,83.8L4.4,84.9C4.4,84.9,4.9,84.9,6.2,84.9C7.6,84.9,7.2,85.8,7.6,86.2C8.0,86.6,9.7,85.9,10.8,84.9C11.8,83.8,12.1,83.8,12.6,83.8C13.1,83.8,15.8,83.8,16.3,83.8C16.8,83.8,17.4,82.5,17.4,81.4C17.4,80.4,17.4,81.4,17.4,79.9C17.4,78.3,17.4,78.3,18.4,77.2C19.5,76.2,20.3,74.6,20.8,74.9C21.3,75.1,21.9,76.2,22.4,74.9C22.9,73.6,23.7,71.5,23.7,71.5C23.7,71.5,29.8,73.8,33.3,68.8C33.3,68.8,39.1,78.5,43.9,78.5C43.9,78.5,45.3,81.8,42.0,82.7C42.0,82.7,41.9,86.0,45.2,82.7C45.2,82.7,48.1,82.0,48.4,81.4C48.6,80.9,47.6,78.5,47.6,78.5L46.5,77.5C46.5,77.5,51.3,76.4,51.3,77.5C51.3,78.5,48.4,75.7,48.4,75.7L45.2,74.9L43.9,74.9C43.9,74.9,44.0,74.7,43.1,73.3C42.2,71.8,40.7,70.9,40.7,70.9L38.8,69.9C38.8,69.9,39.0,67.9,39.1,67.3L41.1,67.3L42.6,68.3C42.6,68.3,42.8,69.5,43.9,70.1C45.0,70.7,46.4,71.2,46.9,71.2C47.3,71.2,47.7,71.7,48.4,72.3C49.0,72.9,48.1,72.3,49.9,73.1C51.6,74.0,51.1,73.3,52.0,74.2C52.9,75.0,53.1,74.4,53.1,75.9C53.1,77.4,53.1,77.5,53.1,79.1C53.1,80.8,52.6,80.6,53.9,82.9C55.2,85.2,54.0,86.1,56.1,86.1C58.1,86.1,58.8,87.3,58.8,86.1C58.8,84.9,58.8,84.3,58.8,83.2C58.8,82.0,58.8,82.0,58.8,82.0C58.8,82.0,59.5,80.3,58.8,80.3C58.2,80.3,57.1,80.3,57.1,80.3L56.4,77.9C56.4,77.9,58.3,77.9,59.5,77.4C60.7,76.8,61.6,75.9,61.6,75.9C61.6,75.9,62.3,76.7,63.0,77.9C63.8,79.1,63.5,80.1,63.9,81.1C64.2,82.0,62.5,81.6,63.9,82.9C65.2,84.3,64.8,83.8,65.5,84.5C66.3,85.3,67.7,85.5,68.3,86.1C68.8,86.6,70.2,86.9,70.4,86.5C70.6,86.1,70.8,85.1,71.3,84.5C71.7,83.9,71.3,83.2,72.0,83.8C72.7,84.5,73.8,85.6,74.2,86.1C74.7,86.5,75.5,86.5,76.6,86.5C77.7,86.5,79.0,86.1,78.5,86.1C78.5,86.1,79.1,84.9,79.6,86.1C80.1,87.2,80.2,89.2,80.2,90.1C80.2,90.9,80.2,90.6,79.6,91.4C79.0,92.2,79.9,93.0,78.5,93.9C77.1,94.9,76.6,95.5,76.6,95.5L76.6,96.5C76.6,96.5,76.6,97.3,76.6,97.9C76.6,98.6,78.1,100.5,78.5,101.5C79.0,102.6,80.7,102.6,81.2,103.1C81.8,103.7,82.4,105.1,82.4,106.4C82.4,107.7,80.9,107.2,82.4,108.2C83.9,109.2,82.8,106.8,84.7,109.4C86.7,111.9,86.4,110.2,87.3,113.0C88.1,115.8,87.7,116.0,88.5,117.1C89.2,118.3,91.5,120.1,91.5,120.1C91.5,120.1,91.6,120.2,92.0,121.7C92.4,123.2,92.9,123.2,92.9,124.0C92.9,124.9,95.4,128.3,95.6,128.9C95.9,129.5,95.6,130.4,95.6,131.2C95.6,132.1,95.4,132.5,96.3,133.3C97.1,134.2,98.0,134.9,99.4,134.9C100.8,134.9,102.6,133.2,103.2,132.8C103.9,132.4,106.8,131.9,107.8,131.2C108.9,130.6,109.6,129.9,109.6,129.9C109.6,129.9,112.8,127.8,113.5,127.9C114.4,128.0,113.2,128.0,114.4,127.5C116.0,127.0,114.8,127.1,116.9,126.5C119.1,125.8,117.8,127.4,119.6,125.7C121.3,124.0,122.0,121.7,122.4,121.7C122.8,121.7,122.5,120.3,123.5,119.3C124.4,118.4,125.5,119.2,125.3,118.2C125.1,117.1,125.4,116.8,125.8,115.7C126.2,114.7,126.5,114.9,124.0,113.9C121.5,113.0,122.2,113.0,120.9,112.6C119.6,112.1,119.6,110.2,119.6,110.2C119.6,110.2,119.2,107.9,117.3,109.4C115.3,110.9,116.1,110.6,116.1,110.6L113.4,112.6C113.4,112.6,110.2,114.0,110.2,107.5L108.7,107.1L106.8,106.4C106.8,106.4,106.6,104.9,106.2,104.6C105.9,104.3,104.8,104.3,104.8,103.2C104.8,102.2,104.0,102.2,104.1,101.4C104.2,100.7,104.2,100.1,104.8,99.4C105.5,98.8,106.2,96.9,106.8,97.5C107.4,98.1,106.6,97.9,107.6,99.4C108.7,100.9,108.9,99.6,109.4,101.4C110.0,103.2,108.8,101.9,110.2,103.2C111.6,104.6,110.9,104.2,112.1,104.6C113.3,105.0,113.4,104.5,114.4,105.1C115.5,105.7,117.0,106.4,116.2,106.4L117.8,106.4L118.8,106.4C118.8,106.4,119.2,106.6,119.6,107.1C120.0,107.5,121.1,107.9,121.5,108.1C122.0,108.3,122.5,107.2,123.5,108.1C124.4,109.1,124.1,109.0,125.4,109.0C126.7,109.0,130.5,109.0,130.5,109.0C130.5,109.0,129.0,109.0,132.0,109.0C135.0,109.0,135.4,108.1,135.9,108.1C136.3,108.1,136.3,108.1,136.7,108.1C137.2,108.1,136.5,106.8,137.8,108.1C139.1,109.4,140.6,111.1,141.6,111.5C142.7,111.9,143.1,112.4,143.6,112.4C144.0,112.4,143.0,114.4,143.0,114.4C143.0,114.4,142.1,115.1,143.6,115.7C145.1,116.4,144.8,116.1,145.3,116.6C145.8,117.1,145.7,117.2,146.4,117.2C147.0,117.2,147.0,117.7,147.4,117.7C147.9,117.7,148.1,116.4,148.6,118.4C149.1,120.4,149.1,119.3,149.1,121.3C149.1,123.2,146.8,120.2,149.8,124.4C152.8,128.7,152.6,127.2,153.2,129.1C153.8,131.0,153.1,131.3,154.1,132.3C155.0,133.2,154.7,133.3,155.3,134.0C156.0,134.6,156.8,134.0,156.8,135.5C156.8,136.9,156.4,136.3,156.8,136.9C157.3,137.6,159.4,150.3,163.7,140.3C163.7,140.3,165.5,129.8,164.3,128.7L168.4,127.2L171.0,124.6C171.0,124.6,171.2,124.4,172.0,123.6C172.9,122.7,172.9,122.1,172.9,122.1C172.9,122.1,174.2,121.3,174.1,120.9C174.0,120.6,175.9,119.1,175.9,119.1C175.9,119.1,176.5,119.1,176.5,117.9C176.5,116.6,176.5,116.6,176.5,116.6C176.5,116.6,177.2,116.0,177.8,116.0C178.5,116.0,178.9,116.0,179.7,116.0C180.6,116.0,181.2,115.5,182.3,115.1C183.4,114.7,183.2,113.4,184.0,114.3C184.9,115.1,185.3,114.0,185.7,116.0C186.2,117.9,185.5,118.1,188.1,119.1C190.6,120.2,190.2,120.6,190.2,122.1C190.2,123.6,190.2,124.9,190.2,125.3C190.2,125.7,189.4,124.6,190.2,126.3C191.1,128.0,191.2,129.2,191.5,129.5C191.8,129.8,191.7,129.5,192.4,129.5C193.0,129.5,196.0,127.8,196.0,127.8C196.0,127.8,196.9,127.2,196.9,129.5C196.9,131.9,197.7,131.6,197.5,132.5C197.3,133.3,197.2,133.2,197.9,134.0C198.7,134.7,198.4,134.0,197.9,137.2C197.5,140.3,197.5,142.0,197.5,142.7C197.5,143.3,198.1,144.2,198.6,145.2C199.0,146.3,200.8,146.0,201.6,146.7C202.3,147.4,202.6,146.9,203.3,148.4C203.9,149.9,203.1,153.3,203.9,154.1C204.8,155.0,205.0,155.4,207.1,156.0C209.3,156.7,212.5,157.5,212.5,157.5L210.1,153.1C210.1,153.1,207.1,149.2,206.5,149.0C205.8,148.8,205.4,147.3,205.0,146.7C204.6,146.1,201.6,142.7,201.6,142.7C201.6,142.7,201.6,142.0,201.6,141.4C201.6,140.8,201.7,137.7,202.2,137.2C202.7,136.6,202.6,135.2,203.3,135.0L205.2,135.0C205.2,135.0,203.9,135.0,205.2,135.7C206.5,136.3,206.5,135.7,207.1,136.3C207.8,136.9,207.6,136.7,208.2,137.4C208.8,138.0,208.6,138.9,208.8,139.3C209.1,139.7,212.5,141.6,212.3,141.4C212.3,141.4,210.7,142.3,211.2,142.9C211.7,143.4,216.3,144.2,216.5,143.5C216.8,142.9,215.9,140.5,215.9,140.5C215.9,140.5,216.1,139.5,217.2,138.9C218.3,138.2,219.1,138.6,219.1,138.0C219.1,137.4,218.5,138.0,219.1,137.4C219.8,136.7,220.4,136.1,219.8,135.0C219.1,134.0,218.5,133.8,218.5,132.9C218.5,132.1,216.1,130.2,215.3,129.3C214.4,128.5,214.6,130.8,213.5,127.6C212.5,124.4,212.9,125.5,212.0,123.8C211.2,122.1,210.8,121.9,210.8,121.5C210.8,121.0,209.5,121.7,210.8,119.8C212.0,117.9,211.4,118.1,212.5,117.0C213.5,116.0,214.6,116.0,214.6,116.0C214.6,116.0,214.6,116.4,215.9,117.0C217.2,117.7,217.2,117.9,217.2,118.3C217.2,118.7,216.5,120.2,216.5,120.2C216.5,120.2,215.9,120.8,215.9,121.5C215.9,122.1,216.3,123.8,217.4,123.8C218.5,123.8,217.2,123.8,218.5,123.8C219.8,123.8,221.3,124.2,221.3,123.4C221.3,122.5,221.3,121.5,221.3,121.5L219.8,119.8C219.8,119.8,218.7,115.1,228.8,113.8C228.8,113.8,242.6,102.0,230.7,91.2C230.7,91.2,222.7,89.9,231.3,84.6C231.3,84.6,230.2,82.9,229.9,83.2C229.6,83.5,225.3,83.2,225.3,83.2C225.3,83.2,225.2,84.1,224.2,83.2C223.3,82.3,221.0,81.4,221.0,81.4L220.3,80.7C220.3,80.7,221.4,80.0,221.7,79.7C222.1,79.3,222.5,79.1,223.4,78.8C224.2,78.2,225.3,76.5,225.7,76.7C226.2,77.0,227.2,76.1,227.2,76.1C227.2,76.1,226.8,77.0,227.2,77.8C227.7,78.8,226.4,77.6,227.7,78.8C228.9,79.7,229.1,79.7,228.9,79.7L231.3,78.8C231.3,78.8,229.4,78.8,232.4,78.8C235.4,78.8,234.2,80.4,234.2,80.4C234.2,80.4,233.9,80.3,234.5,81.4C235.2,82.5,235.7,83.2,236.3,83.2C237.0,83.2,236.0,83.2,237.0,83.2C237.9,83.2,237.1,82.9,237.9,85.2C238.8,87.6,238.6,86.5,239.2,88.0C239.9,89.5,238.4,88.8,239.9,89.5C241.4,90.1,245.4,88.0,245.4,88.0C245.4,88.0,247.6,88.0,245.9,86.3C244.1,84.6,244.2,84.7,242.4,83.9C240.6,83.2,239.1,80.4,239.1,80.4C239.1,80.4,238.4,81.2,237.9,80.4C237.5,79.7,236.7,80.1,237.0,79.0C237.3,77.8,238.4,78.8,238.2,77.8C237.9,76.7,239.2,76.7,239.2,76.7L239.2,75.5C239.2,75.5,238.6,74.6,239.2,74.0C239.9,73.3,240.3,72.7,241.4,72.5C242.4,72.3,241.6,72.5,242.4,72.3C243.3,72.1,242.0,72.3,243.7,72.3C245.4,72.3,245.0,73.1,245.9,72.3C246.7,71.4,246.5,72.7,246.9,71.2C247.4,69.7,246.8,70.5,247.4,69.3C247.9,68.2,248.2,70.0,248.2,67.8C248.2,65.7,247.8,63.8,248.2,63.0C248.6,62.1,249.1,63.0,248.2,61.1C247.4,59.1,248.0,59.8,246.9,58.3C245.9,56.8,245.0,56.4,244.4,55.1C243.7,53.8,243.7,52.8,243.7,52.8C243.7,52.8,246.1,53.0,243.7,52.1C241.4,51.3,239.2,50.0,239.2,50.0C239.2,50.0,240.0,50.0,238.2,50.0C236.3,50.0,236.1,49.7,235.2,49.4C234.2,49.1,234.3,47.4,233.1,47.4C231.9,47.4,232.6,47.4,231.9,47.4C231.3,47.4,232.4,42.0,232.4,42.0C232.4,42.0,233.1,40.3,233.7,39.2C234.2,38.2,235.2,37.7,235.2,37.7C235.2,37.7,234.7,39.2,237.0,39.2C239.2,39.2,243.1,39.0,243.7,38.4C244.4,37.7,244.8,37.7,245.9,37.7C246.9,37.7,247.1,39.2,248.6,39.2C250.1,39.2,249.3,39.2,250.6,39.2C251.8,39.2,251.6,39.0,252.3,38.4C252.9,37.7,252.3,36.3,252.3,35.6C252.3,35.0,249.9,34.6,253.8,34.6C257.6,34.6,256.3,32.9,258.1,34.6C259.8,36.3,263.0,32.9,262.1,34.6C261.3,36.3,259.3,38.4,259.3,39.2C259.3,40.1,258.5,38.8,258.9,42.0C259.3,45.2,260.5,45.9,261.7,47.4C262.9,48.9,268.3,52.6,269.0,53.2C269.6,53.8,271.7,54.7,272.4,55.1C273.0,55.5,275.4,55.8,273.9,53.6C272.4,51.5,272.6,51.3,272.4,50.7C272.2,50.0,272.4,51.3,272.4,49.4C272.4,47.5,272.4,46.6,272.4,46.3C272.4,46.0,269.0,44.5,269.0,44.5C269.0,44.5,267.6,42.7,265.9,42.0C264.1,41.2,264.1,41.2,264.1,41.2C264.1,41.2,264.4,40.1,265.1,39.6C265.9,39.2,267.7,37.7,267.7,37.7L269.0,37.3C269.0,37.3,268.2,37.3,269.4,37.3C270.6,37.3,269.6,36.9,271.6,37.3C273.7,37.7,273.5,37.7,273.9,37.7C274.3,37.7,275.4,37.7,275.4,37.7L275.8,35.6C275.8,35.6,276.2,34.3,276.9,34.1C277.5,33.9,277.7,33.5,278.6,33.5C279.4,33.5,280.9,33.5,281.6,33.5C282.2,33.5,282.2,33.5,282.2,33.5L280.4,31.7L277.3,31.5L275.6,30.3C275.6,30.3,274.6,29.8,275.1,29.3C275.6,28.8,275.9,28.5,275.9,28.5C275.9,28.5,271.6,27.5,272.4,26.7C273.2,25.9,273.9,25.7,275.6,25.7C277.3,25.7,276.3,24.3,278.3,26.2C280.2,28.1,279.2,27.7,280.2,28.1C281.2,28.5,279.9,29.0,282.2,29.5C284.6,29.9,285.5,28.6,286.3,29.5C287.2,30.3,287.4,30.3,287.8,30.3C288.2,30.3,288.8,30.1,288.8,29.3C288.8,28.5,287.8,28.0,287.8,27.3C287.8,26.7,289.6,27.7,287.1,26.7C284.6,25.7,283.9,25.4,282.2,25.4C280.6,25.4,277.3,24.6,277.5,24.8C277.5,24.8,281.2,24.4,275.6,23.5C270.0,22.7,269.9,22.3,269.0,22.3C268.0,22.3,266.9,22.4,266.2,21.6C265.4,20.9,267.3,20.6,264.7,20.6C262.1,20.6,264.7,20.4,261.0,19.9C257.4,19.5,258.5,19.5,257.0,19.5C255.5,19.5,249.7,18.9,249.7,18.9C249.7,18.9,249.5,19.3,250.8,19.9C252.1,20.6,251.2,22.3,250.8,22.3C250.3,22.3,249.1,21.2,248.4,20.6C247.8,19.9,251.0,19.1,246.3,19.5C241.6,19.9,240.5,19.9,240.1,19.9C239.6,19.9,241.6,19.9,238.8,19.9C236.0,19.9,233.9,19.5,233.9,19.5C233.9,19.5,233.7,17.7,232.1,17.7C230.4,17.7,229.4,17.7,228.1,17.7C226.8,17.7,225.3,16.7,224.0,16.7C222.7,16.7,221.9,16.7,221.2,16.7C220.6,16.7,220.2,17.2,218.9,16.7C217.6,16.3,217.4,16.1,216.3,15.7C215.3,15.3,215.7,14.6,213.8,14.6C211.8,14.6,212.9,14.6,211.2,14.6C209.5,14.6,206.9,14.6,206.9,14.6L204.3,14.6C204.3,14.6,203.5,15.5,203.5,16.1C203.5,16.7,203.9,18.7,201.9,17.7C199.9,16.7,199.9,16.7,199.0,16.7C198.1,16.7,198.1,16.7,197.7,16.7C197.3,16.7,195.8,16.7,195.8,16.7L195.8,19.5L194.4,18.1C194.4,18.1,194.9,18.7,194.0,17.7C193.0,16.7,193.9,17.4,192.6,16.7C191.3,16.1,190.9,16.3,190.2,15.7C189.6,15.1,187.7,15.3,187.0,14.6C186.4,14.0,186.4,12.9,183.6,12.9C180.8,12.9,182.3,12.3,180.4,12.9C178.5,13.6,179.3,13.8,177.6,13.8C175.9,13.8,174.0,14.6,172.7,13.8C171.4,12.9,171.2,12.5,168.2,12.5C165.2,12.5,169.0,12.1,164.8,12.5C160.5,12.9,160.5,12.9,160.5,12.9L162.4,11.0C162.4,11.0,168.0,9.5,158.3,8.9L155.6,8.9C155.6,8.9,153.0,9.8,152.6,8.9C152.1,8.1,149.6,6.6,149.6,6.6C149.6,6.6,149.2,6.9,148.5,5.5C147.7,4.1,147.0,2.8,145.3,2.8C143.6,2.8,145.5,2.8,142.7,2.8C139.9,2.8,137.4,2.8,137.4,2.8L131.0,.0C131.0,.0,129.7,.0,129.5,.6C129.2,1.3,127.7,1.3,128.6,2.8C129.5,4.2,129.9,4.9,133.3,5.5C136.7,6.1,137.2,6.1,138.2,6.1C139.3,6.1,140.6,6.1,141.9,6.1C143.1,6.1,143.6,6.1,144.0,7.2C144.4,8.3,145.8,7.7,144.4,8.9C143.5,10.1,143.1,10.0,140.8,9.8C138.4,9.5,137.6,9.8,136.5,9.3C135.4,8.9,136.1,8.1,133.9,8.9C131.8,9.8,131.0,8.5,131.0,9.8C131.0,11.0,133.1,13.1,132.2,13.1C131.4,13.1,126.9,13.1,126.9,13.1C126.9,13.1,125.2,12.5,124.7,12.5C124.3,12.5,124.7,15.5,125.8,15.5C126.9,15.5,128.6,16.7,128.6,16.7C128.6,16.7,130.5,18.0,126.9,16.7C123.2,15.5,121.1,14.8,121.1,14.8C121.1,14.8,121.5,14.8,120.0,14.8C118.5,14.8,117.9,14.8,117.5,14.8C117.0,14.8,115.5,14.4,115.5,14.4C115.5,14.4,115.3,13.1,113.8,13.1C112.3,13.1,111.9,12.7,111.1,13.6C110.2,14.4,110.2,16.7,110.2,16.7C110.2,16.7,112.1,19.5,113.2,20.6C114.3,21.6,114.9,21.0,113.8,21.0C112.8,21.0,109.7,21.5,109.7,21.5C109.7,21.5,108.3,20.1,105.7,19.5C103.1,18.9,101.4,18.4,101.4,18.4L101.0,20.6C101.0,20.6,97.4,20.6,95.9,20.6C94.4,20.6,92.9,18.7,90.1,20.6C87.3,22.5,87.9,21.8,86.7,23.1C85.4,24.4,84.5,25.0,84.3,24.6C84.1,24.2,81.7,20.6,81.3,20.6C80.9,20.6,80.0,19.5,80.0,21.0C80.0,22.5,81.3,23.1,81.3,24.2C81.3,25.2,82.6,25.0,81.3,25.2C80.0,25.4,78.1,25.9,77.7,25.2C77.2,24.6,79.4,23.1,77.2,22.7C75.1,22.3,74.0,21.5,73.4,21.5C72.8,21.5,75.3,22.5,71.3,21.5C67.2,20.6,65.5,20.1,65.5,20.1C65.5,20.1,64.4,19.1,62.9,18.4C61.4,17.8,62.1,15.7,59.1,16.7C56.1,17.8,53.9,18.4,53.5,18.4C53.1,18.4,52.9,17.8,52.2,18.4C52.2,18.4,44.1,17.8,41.9,22.3C41.9,22.3,34.4,31.0,29.3,33.1C29.3,33.1,23.5,39.6,29.3,41.1C29.3,41.1,32.7,42.6,34.7,39.9C34.7,39.9,39.6,41.1,39.2,44.3C39.2,44.3,34.8,46.7,35.7,44.3C35.7,44.3,28.0,40.9,31.9,48.5C31.9,48.5,33.0,50.8,29.6,50.8C29.6,50.8,26.0,50.6,24.0,54.5C24.0,54.5,19.3,59.8,12.4,59.8C12.4,59.8,4.7,58.3,15.4,64.2C15.4,64.2,17.5,70.0,13.7,70.9z"/><path fill="#f29952" transform="translate(232.597783,220.049236)" fill-rule="nonzero" id="shape5" stroke="#f29952" stroke-width="1" d="M.0,.0L3.2,3.7C3.2,3.7,4.1,5.1,4.3,5.4C4.4,5.8,4.3,6.0,5.3,6.9C6.2,7.9,6.0,7.6,6.7,8.3C7.3,9.0,6.7,9.7,7.3,10.3C8.0,11.0,8.6,11.6,9.2,12.2C9.8,12.8,9.9,13.0,10.4,14.4C10.9,15.8,11.4,17.0,12.0,17.6C12.6,18.2,12.7,18.4,13.7,19.3C14.6,20.3,14.8,20.4,15.6,21.2C16.3,21.9,19.2,22.5,19.0,22.9C18.8,23.2,19.0,24.7,19.0,25.1C19.0,25.4,22.7,27.6,23.8,27.6C24.8,27.6,24.5,27.6,26.8,28.2C29.1,28.8,29.3,29.0,30.5,29.0C31.6,29.0,32.2,29.9,34.2,29.9C36.3,29.9,38.0,29.9,37.6,29.9C37.6,29.9,40.0,29.5,39.7,29.0C39.4,28.5,39.5,28.3,37.3,27.6C35.1,27.0,35.0,26.9,34.7,26.6C34.5,26.4,33.2,25.1,33.2,25.1C33.2,25.1,32.2,25.1,31.3,25.1C30.5,25.1,29.1,24.2,28.7,24.3C28.2,24.4,26.3,25.1,26.3,25.1C26.3,25.1,27.5,26.5,24.8,25.1C22.1,23.6,21.5,23.6,21.5,23.6C21.5,23.6,20.9,22.5,20.9,21.9C20.9,21.2,20.9,19.3,20.9,19.5L20.9,17.6C20.9,17.6,21.0,17.7,20.4,17.1C19.8,16.5,19.5,16.3,19.5,15.8C19.5,15.2,20.6,16.4,19.0,14.7C17.4,13.1,16.9,12.7,16.9,12.7C16.9,12.7,17.6,11.0,16.4,10.3C15.2,9.7,13.3,10.2,13.3,9.7C13.3,9.1,13.0,8.8,12.5,8.3C12.0,7.8,11.8,7.6,11.1,6.9C10.4,6.3,9.7,5.9,8.5,5.4C7.3,4.9,6.7,3.7,6.7,3.7C6.7,3.7,7.3,3.7,6.7,1.9C6.0,.0,7.3,.0,5.3,.0C3.2,.0,2.4,.0,2.4,.0L1.4,.0L.0,.0z"/><path fill="#f29952" transform="translate(299.879639,232.132131)" fill-rule="nonzero" id="shape6" stroke="#f29952" stroke-width="1" d="M.0,1.3L3.1,2.8C3.1,2.8,3.1,2.8,3.1,3.3C3.1,3.8,2.7,4.4,2.7,4.9C2.7,5.4,1.4,4.8,2.7,6.0C4.0,7.3,3.4,7.2,4.4,7.2C5.5,7.2,6.5,7.2,6.0,7.2L7.7,6.7C7.7,6.7,7.6,6.6,8.2,7.2C8.8,7.8,11.3,9.1,11.3,9.1C11.3,9.1,15.6,11.3,12.0,14.4C12.0,14.4,9.2,17.6,15.4,16.6C15.4,16.6,22.4,20.1,22.4,17.1C22.4,17.1,25.5,12.3,27.5,16.4C27.5,16.4,31.8,21.8,35.3,21.8C35.3,21.8,38.1,21.1,33.4,17.9C33.4,17.9,27.2,12.7,31.3,13.2C31.3,13.2,35.2,10.6,28.0,11.1C28.0,11.1,33.5,7.2,12.3,2.1C12.3,2.1,9.2,2.8,9.2,4.0C9.2,4.0,6.3,7.4,6.7,1.6C6.7,1.6,6.5,-1.0,1.5,.3L.0,1.3z"/><path fill="#f29952" transform="translate(258.756447,216.392832)" fill-rule="nonzero" id="shape7" stroke="#f29952" stroke-width="1" d="M8.1,5.7C8.1,5.7,7.3,6.4,6.9,6.8C6.6,7.1,6.2,7.0,5.8,7.9C5.5,8.7,6.5,8.9,4.8,8.9C3.1,8.9,2.4,8.9,2.4,8.9L2.4,10.3C2.4,10.3,3.1,11.3,2.4,11.1C1.7,10.9,.7,11.1,.7,11.1C.7,11.1,.4,9.5,.2,11.1C-0.1,12.7,.2,12.0,.2,13.3C.2,14.7,-0.3,15.2,.2,16.2C.7,17.2,-0.2,17.0,.7,17.9C1.6,18.7,2.4,19.2,2.4,19.6C2.4,19.9,4.3,20.9,4.8,20.8C5.3,20.6,6.5,19.6,7.3,20.3C8.1,21.1,6.9,20.6,8.1,21.1C9.3,21.6,9.6,21.6,10.8,21.6C12.0,21.6,12.7,21.1,12.9,21.6C13.0,22.1,13.2,21.6,13.9,21.6C14.6,21.6,14.6,21.1,14.7,20.3C14.9,19.6,14.7,19.8,14.7,19.1C14.7,18.4,14.6,17.9,15.2,17.9C15.9,17.9,16.2,17.6,16.6,17.2C17.0,16.8,17.0,17.9,17.0,16.2C17.0,14.5,17.3,12.8,18.0,12.8C18.7,12.8,17.5,12.3,19.0,12.8C20.6,13.3,20.4,13.1,20.4,14.2C20.4,15.2,21.4,14.2,20.4,15.2C19.4,16.2,21.9,13.6,19.4,16.2C16.8,18.7,17.6,18.8,17.0,19.6C16.4,20.3,16.8,20.8,16.8,20.8C16.8,20.8,16.3,19.9,17.1,21.1C18.0,22.3,18.6,21.5,18.0,23.3C17.4,25.1,16.8,23.7,17.4,25.1C18.0,26.5,17.6,26.7,19.0,26.7C20.4,26.7,20.9,26.7,21.2,26.7C21.4,26.7,21.9,25.2,21.9,24.5C21.9,23.8,21.2,22.6,21.9,22.5C22.6,22.3,22.2,21.9,22.6,22.3C23.0,22.7,22.6,26.2,24.6,25.1C26.5,24.0,26.5,23.3,26.5,23.3C26.5,23.3,26.7,23.5,26.5,22.3C26.4,21.1,26.0,21.1,25.4,20.3C24.8,19.6,22.4,22.0,24.8,19.6C27.2,17.2,27.2,17.2,27.2,17.2C27.2,17.2,27.6,16.2,27.2,16.2C26.9,16.2,25.5,16.2,24.0,16.2C22.4,16.2,22.4,16.2,22.4,16.2C22.4,16.2,20.9,14.0,23.5,14.0C26.0,14.0,28.8,14.5,28.8,14.5L29.6,14.0C29.6,14.0,31.1,13.7,31.0,13.3C30.9,12.9,31.6,11.7,31.4,11.9L31.6,11.3L29.8,10.9C29.8,10.9,30.3,10.8,28.8,11.1C27.2,11.4,27.9,10.8,27.0,11.7C26.0,12.6,25.7,13.3,25.4,13.3C25.0,13.3,23.5,12.3,23.5,12.3L23.0,12.3C23.0,12.3,22.4,12.3,21.8,12.3C21.1,12.3,20.6,12.3,20.2,12.3C19.9,12.3,18.3,10.9,18.3,10.9L17.4,10.0C17.4,10.0,16.5,9.2,16.3,8.9C16.0,8.6,16.3,7.0,16.3,7.2C16.3,7.2,16.4,6.4,17.4,5.9C18.3,5.5,18.8,5.0,18.8,5.0L19.5,4.3C19.5,4.3,21.1,4.0,19.7,3.6C18.3,3.3,17.8,3.0,17.8,3.0C17.8,3.0,16.3,2.5,16.3,1.9C16.3,1.4,16.3,.8,16.3,.8C16.3,.8,16.4,.2,15.8,.3C15.2,.3,14.3,.0,14.3,.0L12.0,.0C11.1,1.4,11.3,1.6,11.3,1.6C11.3,1.6,11.3,1.4,11.3,2.3C11.3,3.1,9.3,2.8,9.4,3.5L8.1,5.7z"/><path fill="#f29952" transform="translate(275.887901,191.748814)" fill-rule="nonzero" id="shape8" stroke="#f29952" stroke-width="1" d="M.7,.3L.0,2.3C.0,2.3,.3,2.6,.7,3.0C1.1,3.4,.7,5.7,.7,5.7C.7,5.7,-0.2,6.6,.7,7.1C1.5,7.6,1.5,8.4,2.7,9.1C3.9,9.8,3.9,9.8,4.6,10.5C5.3,11.2,4.6,11.5,7.3,12.3C9.9,13.0,11.0,13.0,11.0,13.0C11.0,13.0,11.0,11.0,9.8,10.5C8.6,10.0,6.0,9.1,6.0,9.1L6.0,7.1C6.0,7.1,5.5,6.9,6.2,5.7C6.8,4.5,7.7,4.9,6.8,3.4C6.0,1.8,3.9,1.0,3.9,1.0L2.2,-0.0L.7,.3z"/><path fill="#f29952" transform="translate(281.905087,209.993127)" fill-rule="nonzero" id="shape9" stroke="#f29952" stroke-width="1" d="M2.5,2.8C2.5,2.8,.8,2.6,.8,3.3C.8,3.9,-0.1,4.4,-0.0,4.8C.1,5.2,-0.0,5.3,.1,5.2L1.5,4.8L.8,6.8C.8,6.8,.5,6.3,1.5,6.8C2.5,7.3,3.6,5.5,3.6,5.5L4.4,6.8C4.4,6.8,5.5,7.8,6.1,8.5C6.8,9.2,9.0,9.2,9.0,9.2L7.8,6.8C7.8,6.8,7.3,5.1,9.0,6.0C10.8,6.8,10.8,8.9,10.8,6.8C10.8,4.8,10.4,3.8,10.1,3.3C9.7,2.8,7.2,.5,7.2,.5C7.2,.5,8.4,-0.6,7.2,.5C6.1,1.6,5.3,2.8,4.4,2.8C3.6,2.8,4.6,2.8,3.6,2.8C2.5,2.8,3.1,2.8,2.5,2.8C2.0,2.8,2.0,2.8,2.5,2.8z"/><g transform="translate(669.043814,264.251223)" id="shape10"><path fill="none" stroke="#868686" stroke-width="2" d="M.0,.0C-42.1,.2,-84.2,.4,-120.3,1.6C-156.4,2.9,-186.4,5.1,-222.5,6.3C-256.4,7.5,-295.6,7.7,-335.2,7.9"/><path fill="#868686" stroke-linecap="round" stroke-width="1" stroke="#868686" d="M-342.8,8.0L-333.0,13.6C-334.0,11.9,-334.5,10.0,-334.6,7.9C-334.6,5.9,-334.0,3.9,-333.1,2.3L-342.8,8.0"/></g><g transform="translate(506.562549,232.132131)" id="shape11"><path fill="#7c6124" fill-rule="nonzero" stroke="#7c6124" stroke-width="1" d="M.0,.0L87.4,.0L87.4,27.7L.0,27.7L.0,.0z"/><text style="fill:#ffffff;font-family:Delius;font-size:10.50pt;font-weight:bold" xml:space="preserve"><tspan x="11.2" y="18.8">warm air</tspan></text></g><g transform="matrix(0.000000,-1.000000,1.000000,0.000000,623.311500,466.000000)" id="shape12"><path fill="#cfd7ff" fill-rule="nonzero" stroke="#254694" stroke-width="2.333329916000366" d="M.0,.0L87.4,.0L87.4,27.7L.0,27.7L.0,.0z"/><text style="fill:#191919;font-family:Delius;font-size:10.50pt;font-weight:bold" xml:space="preserve"><tspan x="5.2" y="19.0">cold water</tspan></text></g><g transform="translate(275.887901,126.517058)" id="group13"><path fill="#7991ff" fill-rule="nonzero" id="shape14" stroke="#7991ff" stroke-width="1" d="M40.6,18.7C40.6,14.9,37.8,11.8,34.2,11.3C34.2,11.2,34.2,11.1,34.2,11.0C34.2,4.9,29.4,.0,23.5,.0C19.2,.0,15.5,2.6,13.8,6.3C12.9,5.7,11.9,5.3,10.7,5.3C7.8,5.3,5.5,7.6,5.2,10.5C2.2,11.6,.0,14.6,.0,18.1C.0,22.4,3.4,25.9,7.5,26.1L7.5,26.1L33.7,26.1L33.7,26.1C37.5,25.9,40.6,22.7,40.6,18.7L40.6,18.7"/><g transform="translate(8.971569,28.235115)" id="group15"><path fill="#7991ff" transform="translate(0.006021,0.012254)" fill-rule="nonzero" id="shape16" stroke="#7991ff" stroke-width="1" d="M1.0,-0.0L1.3,-0.0C1.9,-0.0,2.3,.4,2.3,1.0L2.3,5.0C2.3,5.6,1.9,6.1,1.3,6.1L1.0,6.1C.4,6.1,-0.0,5.6,-0.0,5.0L-0.0,1.0C-0.0,.4,.4,-0.0,1.0,-0.0z"/><path fill="#7991ff" transform="translate(0.006021,8.385649)" fill-rule="nonzero" id="shape17" stroke="#7991ff" stroke-width="1" d="M1.0,-0.0L1.3,-0.0C1.9,-0.0,2.3,.4,2.3,1.0L2.3,5.0C2.3,5.6,1.9,6.1,1.3,6.1L1.0,6.1C.4,6.1,-0.0,5.6,-0.0,5.0L-0.0,1.0C-0.0,.4,.4,-0.0,1.0,-0.0z"/></g><g transform="translate(29.282339,28.235115)" id="group18"><path fill="#7991ff" transform="translate(0.005808,0.012312)" fill-rule="nonzero" id="shape19" stroke="#7991ff" stroke-width="1" d="M1.0,-0.0L1.3,-0.0C1.9,-0.0,2.3,.4,2.3,1.0L2.3,5.0C2.3,5.6,1.9,6.1,1.3,6.1L1.0,6.1C.4,6.1,-0.0,5.6,-0.0,5.0L-0.0,1.0C-0.0,.4,.4,-0.0,1.0,-0.0z"/><path fill="#7991ff" transform="translate(0.005808,8.385764)" fill-rule="nonzero" id="shape20" stroke="#7991ff" stroke-width="1" d="M1.0,-0.0L1.3,-0.0C1.9,-0.0,2.3,.4,2.3,1.0L2.3,5.0C2.3,5.6,1.9,6.1,1.3,6.1L1.0,6.1C.4,6.1,-0.0,5.6,-0.0,5.0L-0.0,1.0C-0.0,.4,.4,-0.0,1.0,-0.0z"/></g><g transform="translate(19.150230,28.235115)" id="group21"><path fill="#7991ff" transform="translate(0.006021,0.012254)" fill-rule="nonzero" id="shape22" stroke="#7991ff" stroke-width="1" d="M1.0,-0.0L1.3,-0.0C1.9,-0.0,2.3,.4,2.3,1.0L2.3,5.0C2.3,5.6,1.9,6.1,1.3,6.1L1.0,6.1C.4,6.1,-0.0,5.6,-0.0,5.0L-0.0,1.0C-0.0,.4,.4,-0.0,1.0,-0.0z"/><path fill="#7991ff" transform="translate(0.006021,8.385649)" fill-rule="nonzero" id="shape23" stroke="#7991ff" stroke-width="1" d="M1.0,-0.0L1.3,-0.0C1.9,-0.0,2.3,.4,2.3,1.0L2.3,5.0C2.3,5.6,1.9,6.1,1.3,6.1L1.0,6.1C.4,6.1,-0.0,5.6,-0.0,5.0L-0.0,1.0C-0.0,.4,.4,-0.0,1.0,-0.0z"/></g></g><g transform="translate(613.000000,419.000000)" id="shape24"><path fill="none" stroke="#868686" stroke-width="1.333333373069763" d="M.0,.0L.0,-125.2"/><path fill="#868686" stroke-linecap="round" stroke-width="1" stroke="#868686" d="M.0,-132.0L-4.6,-124.0C-3.3,-124.8,-1.7,-125.2,.0,-125.2C1.7,-125.2,3.3,-124.8,4.6,-124.0L.0,-132.0"/></g><g transform="translate(632.000000,410.000000)" id="shape25"><path fill="none" stroke="#868686" stroke-width="1.333330035209656" d="M.0,.0L.0,-116.2"/><path fill="#868686" stroke-linecap="round" stroke-width="1" stroke="#868686" d="M.0,-123.0L-4.6,-115.0C-3.3,-115.8,-1.7,-116.2,.0,-116.2C1.7,-116.2,3.3,-115.8,4.6,-115.0L.0,-123.0"/></g><g transform="translate(651.000000,410.000000)" id="shape26"><path fill="none" stroke="#868686" stroke-width="1.333330035209656" d="M.0,.0L.0,-116.2"/><path fill="#868686" stroke-linecap="round" stroke-width="1" stroke="#868686" d="M.0,-123.0L-4.6,-115.0C-3.3,-115.8,-1.7,-116.2,.0,-116.2C1.7,-116.2,3.3,-115.8,4.6,-115.0L.0,-123.0"/></g><g transform="translate(623.311500,266.556092)" id="group27"><path fill="#e38522" transform="translate(7.773186,0.000013)" fill-rule="nonzero" id="shape28" stroke="#e95026" stroke-width="4" d="M.0,3.4C.0,3.4,-0.1,1.3,1.1,.5C2.2,-0.3,3.2,-0.0,4.2,.5C5.3,1.1,5.5,1.4,6.3,1.6C7.1,1.8,10.3,1.4,11.6,1.8C13.0,2.2,13.4,3.6,13.7,3.8C14.0,4.1,.0,3.4,.0,3.4z"/><path fill="#ea5026" transform="translate(0.000000,2.814330)" fill-rule="nonzero" id="shape29" stroke="#ef8122" stroke-width="4" d="M.0,9.2C.0,9.2,1.6,4.8,3.0,3.3C4.4,1.8,6.8,.7,8.2,.4C9.6,.1,12.6,.1,14.9,.1C17.1,.1,19.2,-0.2,20.6,.2C22.0,.6,22.6,1.4,22.8,2.3C22.9,3.2,23.0,3.4,22.5,4.5C22.1,5.6,21.6,5.9,21.5,6.2C21.5,6.5,21.9,6.8,22.3,6.3C22.6,5.8,23.6,4.6,24.1,3.5C24.7,2.4,25.5,1.6,25.9,1.7C26.4,1.8,26.4,1.7,27.1,3.2C27.8,4.8,27.9,7.2,27.4,8.6C26.9,10.0,26.0,11.1,25.5,11.6C25.0,12.1,24.8,11.0,24.2,10.3C23.6,9.6,21.8,8.7,21.6,8.9C21.5,9.0,22.0,9.5,22.7,10.5C23.4,11.6,23.7,12.6,22.6,14.1C21.5,15.7,20.2,16.0,18.6,16.0C17.0,16.0,15.7,14.7,15.5,14.7C15.2,14.7,13.0,14.4,13.1,14.7C13.2,15.0,13.2,15.7,13.2,16.4C13.3,17.1,13.1,17.8,12.3,18.0C11.4,18.3,10.8,17.1,10.7,16.3C10.6,15.5,10.8,14.7,10.5,14.6C10.2,14.6,9.0,14.0,9.2,14.9C9.5,15.7,9.6,16.8,9.4,17.3C9.1,17.9,7.7,18.1,7.3,17.3C6.8,16.4,6.9,15.4,7.0,14.7C7.0,14.0,6.2,14.4,4.4,13.4C2.5,12.4,.0,9.2,.0,9.2z"/><path fill="#191919" transform="translate(4.689158,4.006440)" fill-rule="nonzero" id="shape30" stroke="#000000" stroke-width="1" d="M1.4,.0C3.0,1.3,3.8,3.5,3.7,5.6C3.5,7.8,2.5,11.3,.0,12.3C2.0,10.9,2.8,8.1,2.8,5.1C2.8,3.1,2.4,1.4,1.4,.0z"/><path fill="#dee5be" transform="translate(4.591224,4.006335)" fill-rule="nonzero" id="shape31" stroke="#dee5be" stroke-width="1" d="M1.5,.0C3.1,1.5,3.2,3.7,3.2,5.5C2.9,8.1,2.1,11.2,.0,12.2C1.2,10.6,1.9,6.7,2.0,5.1C2.1,3.5,2.3,1.6,1.5,.0z"/><path fill="#191919" transform="translate(14.215747,3.289633)" fill-rule="nonzero" id="shape32" stroke="#000000" stroke-width="1" d="M1.6,.0L3.2,.0C3.2,.0,4.5,3.0,4.4,6.4C4.2,9.8,2.7,14.8,2.4,14.7C2.2,14.6,2.0,14.3,1.5,14.2C.9,13.9,.0,13.8,.0,13.8C.0,13.8,1.8,8.4,1.9,6.5C2.1,4.7,1.6,.0,1.6,.0z"/><path fill="#dee5be" transform="translate(13.945368,3.278364)" fill-rule="nonzero" id="shape33" stroke="#dee5be" stroke-width="1" d="M1.5,.0L3.1,.0C3.1,.0,4.2,3.0,4.0,6.4C3.9,9.8,2.3,13.7,2.3,14.2C2.3,14.5,1.9,14.2,1.3,14.0C.8,13.9,.0,13.9,.0,13.9C.0,13.9,1.8,8.5,1.9,6.6C2.1,4.7,1.5,.0,1.5,.0z"/><path fill="#191919" transform="translate(2.263594,8.994027)" fill-rule="nonzero" id="shape34" stroke="#000000" stroke-width="1" d="M.0,1.0C.0,.4,.4,.0,1.0,.0C1.6,.0,2.0,.4,2.0,1.0C2.0,1.5,1.6,2.0,1.0,2.0C.4,2.0,.0,1.5,.0,1.0z"/><path fill="#ffffff" transform="translate(2.879550,9.606576)" fill-rule="nonzero" id="shape35" stroke="#000000" stroke-width="1" d="M.0,.4C.0,.2,.2,.0,.4,.0C.6,.0,.8,.2,.8,.4C.8,.6,.6,.8,.4,.8C.2,.8,.0,.6,.0,.4z"/><path fill="none" transform="translate(1.031139,12.147084)" id="shape36" stroke="#000000" stroke-width="1" d="M.0,.4C.0,.4,.4,1.1,1.6,1.0C2.8,.8,3.0,.0,3.0,.0"/><path fill="#191919" transform="translate(22.392471,7.759709)" fill-rule="nonzero" id="shape37" stroke="#000000" stroke-width="1" d="M.2,1.1C.2,1.1,.5,2.3,.4,2.7C.2,3.1,.0,4.0,.0,4.0L.9,4.5C.9,4.5,1.3,3.6,1.3,2.7C1.3,1.8,.9,.0,.9,.0L.2,1.1z"/><path fill="#dee5be" transform="translate(22.031357,8.284682)" fill-rule="nonzero" id="shape38" stroke="#dee5be" stroke-width="1" d="M.2,.9C.2,.9,.5,1.9,.4,2.2C.2,2.5,.0,3.3,.0,3.3L.9,3.7C.9,3.7,1.3,3.0,1.3,2.2C1.3,1.5,.9,.0,.9,.0L.2,.9z"/></g><g transform="translate(623.311500,300.203536)" id="group39"><path fill="#fde9d0" transform="translate(0.000000,1.433812)" fill-rule="nonzero" id="shape40" stroke="#4c4c4c" stroke-width="1" d="M.7,8.1C5.5,8.5,9.1,8.9,20.9,8.5C25.0,8.4,24.4,7.0,29.6,7.2C34.5,7.4,39.1,11.5,38.8,10.0C38.4,8.0,36.3,7.8,35.7,5.6C35.2,3.7,37.7,2.3,38.6,1.1C39.6,-0.1,35.9,1.8,30.8,2.3C25.7,2.8,25.9,2.4,21.8,1.4C17.7,.3,12.4,-0.2,9.7,.0C7.1,.2,5.6,.9,.7,2.1C.7,2.1,-0.9,5.6,.7,8.1z"/><path fill="#4558b5" transform="translate(21.273022,6.811705)" fill-rule="nonzero" id="shape41" stroke="#0b1d43" stroke-width="1" d="M1.9,.0C1.9,.0,3.1,.8,2.4,2.8C1.9,3.0,.1,3.1,.1,3.1L.0,1.7L1.9,.0z"/><path fill="#4558b5" transform="translate(28.628697,4.922842)" fill-rule="nonzero" id="shape42" stroke="#0b1d43" stroke-width="1" d="M.8,.0C1.7,1.0,1.5,1.7,.3,2.4L.0,1.3L.0,.5L.8,.0z"/><path fill="#0e2350" transform="translate(30.327542,3.637720)" fill-rule="nonzero" id="shape43" stroke="#0e2350" stroke-width="1" d="M5.8,.0C4.4,.9,.4,1.0,.0,.6C1.8,1.0,5.4,.2,5.8,.0z"/><path fill="#0e2350" transform="translate(30.513404,4.375132)" fill-rule="nonzero" id="shape44" stroke="#0e2350" stroke-width="1" d="M5.0,.0C4.1,.6,.1,.7,.0,.5C2.2,.6,4.4,.2,5.0,.0z"/><path fill="#0e2350" transform="translate(30.513404,5.196587)" fill-rule="nonzero" id="shape45" stroke="#0e2350" stroke-width="1" d="M.0,.6C1.3,.6,4.2,.0,4.2,.0C4.2,.0,.7,1.4,.0,.6z"/><path fill="#0e2350" transform="translate(30.646085,5.826212)" fill-rule="nonzero" id="shape46" stroke="#0e2350" stroke-width="1" d="M.0,.0C.0,.0,3.9,.0,3.9,.0C3.9,.0,.8,.9,.0,.0z"/><path fill="#0e2350" transform="translate(30.486853,7.637092)" fill-rule="nonzero" id="shape47" stroke="#0e2350" stroke-width="1" d="M4.9,1.6C4.8,.6,.7,-0.3,.0,.1C1.5,.1,4.2,.7,4.9,1.6z"/><path fill="#0e2350" transform="translate(30.672715,7.124737)" fill-rule="nonzero" id="shape48" stroke="#0e2350" stroke-width="1" d="M.0,.0C1.8,.0,4.0,.8,4.0,.8C4.0,.8,2.2,-0.1,.0,.0z"/><path fill="#0e2350" transform="translate(30.805470,6.582499)" fill-rule="nonzero" id="shape49" stroke="#0e2350" stroke-width="1" d="M.0,.0C1.1,.0,3.6,.3,3.6,.3C3.6,.3,1.6,-0.1,.0,.0z"/><path fill="#0e2350" transform="translate(12.776772,0.000000)" fill-rule="nonzero" id="shape50" stroke="#0e2350" stroke-width="1" d="M.0,1.4C1.2,.3,1.5,-0.2,3.9,.1C6.3,.3,10.3,2.2,10.6,3.2L.0,1.4z"/><path fill="#1a429a" transform="translate(14.024722,0.405983)" fill-rule="nonzero" id="shape51" stroke="#1b45a2" stroke-width="1" d="M.0,1.0C.8,.4,1.7,.0,1.7,.0C1.7,.0,.5,.3,.0,1.0z" stroke-opacity="0.00"/><path fill="#1a429a" transform="translate(15.591276,0.735621)" fill-rule="nonzero" id="shape52" stroke="#1b45a2" stroke-width="1" d="M1.1,.0C.8,-0.1,.0,.5,.0,.8C.2,.6,.7,.1,1.1,.0z" stroke-opacity="0.00"/><path fill="#1a429a" transform="translate(16.892312,0.871361)" fill-rule="nonzero" id="shape53" stroke="#1b45a2" stroke-width="1" d="M.0,.9C.3,.4,.9,.0,.9,.0C.9,.0,.3,.1,.0,.9z" stroke-opacity="0.00"/><path fill="#1a429a" transform="translate(18.113693,1.117736)" fill-rule="nonzero" id="shape54" stroke="#1b45a2" stroke-width="1" d="M.0,.8C.0,.7,.5,.0,1.0,.0C.5,.2,.3,.4,.0,.8z" stroke-opacity="0.00"/><path fill="#1a429a" transform="translate(19.388179,1.610474)" fill-rule="nonzero" id="shape55" stroke="#1b45a2" stroke-width="1" d="M.0,.6C.1,.3,.8,.0,.8,.0C.8,.0,.2,.0,.0,.6z" stroke-opacity="0.00"/><path fill="#1a429a" transform="translate(20.583008,2.031075)" fill-rule="nonzero" id="shape56" stroke="#1b45a2" stroke-width="1" d="M.0,.3C.2,.1,.7,.0,.7,.0C.7,.0,.4,-0.2,.0,.3z" stroke-opacity="0.00"/><path fill="#4558b5" transform="translate(28.017778,3.800467)" fill-rule="nonzero" id="shape57" stroke="#0b1d43" stroke-width="1" d="M1.0,.0C1.9,.8,1.1,2.3,.4,2.5L.0,.9L.3,.1L1.0,.0z"/><path fill="#4558b5" transform="translate(27.938652,6.072592)" fill-rule="nonzero" id="shape58" stroke="#0b1d43" stroke-width="1" d="M.9,.0C1.7,1.2,.7,2.2,.7,2.2L.0,1.0L.7,-0.2L.9,.0z"/><path fill="#4558b5" transform="translate(27.698472,4.813342)" fill-rule="nonzero" id="shape59" stroke="#0b1d43" stroke-width="1" d="M.8,.0C.8,.0,1.6,1.6,.5,2.7L.0,2.1L.0,.7L.8,.0z"/><path fill="#4558b5" transform="translate(27.061674,7.030705)" fill-rule="nonzero" id="shape60" stroke="#0b1d43" stroke-width="1" d="M1.0,.0C1.6,.7,1.7,1.5,1.7,1.5L.3,1.6L.0,.7L1.0,.0z"/><path fill="#4558b5" transform="translate(26.662159,5.661967)" fill-rule="nonzero" id="shape61" stroke="#0b1d43" stroke-width="1" d="M1.2,.0C1.8,1.2,1.1,2.5,.5,2.6L.0,1.5L.3,.7L.6,.0L1.2,.0z"/><path fill="#4558b5" transform="translate(26.848095,3.881848)" fill-rule="nonzero" id="shape62" stroke="#0b1d43" stroke-width="1" d="M1.5,.0C2.0,.8,1.5,2.0,.4,1.9L.0,1.0L.5,.0C.5,.0,1.5,.0,1.5,.0z"/><path fill="#4558b5" transform="translate(26.078797,7.249699)" fill-rule="nonzero" id="shape63" stroke="#0b1d43" stroke-width="1" d="M.7,.0C1.4,.3,1.2,1.4,1.2,1.4L.3,1.5L.0,1.1L.3,.2L.7,.0z"/><path fill="#4558b5" transform="translate(26.424533,4.950217)" fill-rule="nonzero" id="shape64" stroke="#0b1d43" stroke-width="1" d="M.7,.1C1.1,.9,.8,1.9,.4,2.1L.0,1.1L.2,.0L.7,.1z"/><path fill="#4558b5" transform="translate(25.999838,3.821379)" fill-rule="nonzero" id="shape65" stroke="#0b1d43" stroke-width="1" d="M1.3,.1C1.8,1.0,.5,1.7,.5,1.7L.0,.3L.3,.0C.3,.0,.8,.0,1.3,.1z"/><path fill="#4558b5" transform="translate(25.893129,5.963092)" fill-rule="nonzero" id="shape66" stroke="#0b1d43" stroke-width="1" d="M.7,.0C1.4,.9,.9,1.9,.5,2.1L.0,1.4L.1,.7L.7,.0z"/><path fill="#4558b5" transform="translate(25.573366,4.566967)" fill-rule="nonzero" id="shape67" stroke="#0b1d43" stroke-width="1" d="M.8,.0C1.4,.9,1.0,1.8,.4,2.0L.0,.5L.8,.0z"/><path fill="#4558b5" transform="translate(24.565155,3.499354)" fill-rule="nonzero" id="shape68" stroke="#0b1d43" stroke-width="1" d="M1.8,.3C2.2,1.5,.9,2.1,.9,2.1L.0,.3L.3,.0C.3,.0,.9,.2,1.8,.3z"/><path fill="#4558b5" transform="translate(24.060434,5.415592)" fill-rule="nonzero" id="shape69" stroke="#0b1d43" stroke-width="1" d="M1.6,.1C2.2,1.2,2.3,2.3,1.2,2.9L.0,1.3L.6,.7L1.3,.0L1.6,.1z"/><path fill="#4558b5" transform="translate(25.070451,7.331830)" fill-rule="nonzero" id="shape70" stroke="#0b1d43" stroke-width="1" d="M1.0,.0C1.5,.6,1.3,1.4,1.3,1.4L.3,1.7L.0,1.1L1.0,.0z"/><path fill="#4558b5" transform="translate(23.529943,7.304455)" fill-rule="nonzero" id="shape71" stroke="#0b1d43" stroke-width="1" d="M1.1,.0C2.0,.5,1.9,1.7,1.9,1.7C1.9,1.7,.7,2.1,.1,2.3L.0,2.0L.4,.3L1.1,.0z"/><path fill="#4558b5" transform="translate(23.849951,8.099121)" fill-rule="nonzero" id="shape72" stroke="#0e2350" stroke-width="1" d="M.6,.0C.6,.0,2.0,.5,1.4,1.2C.8,1.8,.0,.5,.0,.5L.0,.1L.6,.0z"/><path fill="#4558b5" transform="translate(24.087879,8.563701)" fill-rule="nonzero" id="shape73" stroke="#0b1d43" stroke-width="1" d="M.0,.0L.7,.8C.7,.8,.2,.1,.0,.0z" stroke-opacity="0.00"/><path fill="#4558b5" transform="translate(24.326843,8.399450)" fill-rule="nonzero" id="shape74" stroke="#0b1d43" stroke-width="1" d="M.0,.0L1.0,.6C1.0,.6,.6,.5,.0,.0z" stroke-opacity="0.00"/><path fill="#4558b5" transform="translate(23.768509,3.882592)" fill-rule="nonzero" id="shape75" stroke="#0b1d43" stroke-width="1" d="M1.1,.0C2.5,1.0,1.4,2.7,.8,3.0L.0,.7L1.1,.0z"/><path fill="#4558b5" transform="translate(22.521094,5.196592)" fill-rule="nonzero" id="shape76" stroke="#0b1d43" stroke-width="1" d="M1.7,.0C2.6,1.1,2.3,2.8,1.2,3.4L.0,.8L1.7,.0z"/><path fill="#4558b5" transform="translate(22.840189,2.978367)" fill-rule="nonzero" id="shape77" stroke="#0b1d43" stroke-width="1" d="M2.0,.5C2.3,1.7,.8,2.8,.8,2.8L.0,.0C.0,.0,1.2,.3,2.0,.5z"/><path fill="#4558b5" transform="translate(22.282022,4.101592)" fill-rule="nonzero" id="shape78" stroke="#0b1d43" stroke-width="1" d="M1.1,.0C2.3,1.1,.9,2.5,.9,2.5L.0,.7L1.1,.0z"/><path fill="#4558b5" transform="translate(21.538510,2.623354)" fill-rule="nonzero" id="shape79" stroke="#0b1d43" stroke-width="1" d="M1.7,.5C2.3,1.9,.6,3.1,.6,3.1L.0,.0L1.7,.5z"/><path fill="#4558b5" transform="translate(21.192819,5.251342)" fill-rule="nonzero" id="shape80" stroke="#0b1d43" stroke-width="1" d="M1.5,.0C2.5,1.6,1.8,2.9,.7,3.3L.0,1.4L1.1,.1L1.5,.0z"/><path fill="#4558b5" transform="translate(20.264193,7.058080)" fill-rule="nonzero" id="shape81" stroke="#0b1d43" stroke-width="1" d="M1.4,.2C2.2,1.3,1.9,2.2,1.1,2.9L.6,2.9L.3,2.0L.0,.8L.8,.0L1.4,.2z"/><path fill="#4558b5" transform="translate(20.343157,3.663592)" fill-rule="nonzero" id="shape82" stroke="#0b1d43" stroke-width="1" d="M1.5,.0C2.7,1.8,2.0,3.8,.4,4.0L.0,1.3L1.5,.0z"/><path fill="#4558b5" transform="translate(18.964028,8.098330)" fill-rule="nonzero" id="shape83" stroke="#0b1d43" stroke-width="1" d="M1.6,.0C2.2,1.0,1.9,1.8,1.9,1.8L.1,1.9L.0,1.5L1.2,.1L1.6,.0z"/><path fill="#4558b5" transform="translate(19.176205,5.531174)" fill-rule="nonzero" id="shape84" stroke="#0b1d43" stroke-width="1" d="M1.5,.0C2.4,2.0,.7,3.4,.7,3.4L.0,.8C.0,.8,.8,-0.2,1.5,.0z"/><path fill="#4558b5" transform="translate(19.334561,2.294854)" fill-rule="nonzero" id="shape85" stroke="#0b1d43" stroke-width="1" d="M2.2,.3C3.0,1.7,2.0,3.3,.5,3.5L.0,1.1L.7,.0L2.2,.3z"/><path fill="#4558b5" transform="translate(17.874880,1.911604)" fill-rule="nonzero" id="shape86" stroke="#0b1d43" stroke-width="1" d="M2.2,.4C2.8,2.2,.8,3.0,.8,3.0L.0,.0L2.2,.4z"/><path fill="#4558b5" transform="translate(16.919324,6.784330)" fill-rule="nonzero" id="shape87" stroke="#0b1d43" stroke-width="1" d="M2.5,.1C2.5,.1,3.9,1.7,2.2,3.2L.2,3.3L.0,2.4L2.2,.0L2.5,.1z"/><path fill="#4558b5" transform="translate(18.008200,4.101592)" fill-rule="nonzero" id="shape88" stroke="#0b1d43" stroke-width="1" d="M1.7,.0C1.7,.0,2.7,2.0,.8,3.3L.0,.6L1.7,.0z"/><path fill="#4558b5" transform="translate(16.944272,5.306092)" fill-rule="nonzero" id="shape89" stroke="#0b1d43" stroke-width="1" d="M1.4,.0C2.5,1.4,1.9,2.8,.7,3.6L.0,1.0L1.4,.0z"/><path fill="#4558b5" transform="translate(17.315919,2.322229)" fill-rule="nonzero" id="shape90" stroke="#0b1d43" stroke-width="1" d="M.9,.0C2.2,1.3,2.0,2.4,.7,3.3L.0,1.1L.9,.0z"/><path fill="#4558b5" transform="translate(14.582076,6.565330)" fill-rule="nonzero" id="shape91" stroke="#0b1d43" stroke-width="1" d="M2.5,.0C4.0,2.1,2.6,3.4,2.6,3.4L.4,3.5L.0,1.8L2.5,.0z"/><path fill="#4558b5" transform="translate(16.069929,3.773092)" fill-rule="nonzero" id="shape92" stroke="#0b1d43" stroke-width="1" d="M1.5,.0C1.5,.0,2.9,2.0,.9,3.0L.0,.7L1.5,.0z"/><path fill="#4558b5" transform="translate(14.741379,5.169217)" fill-rule="nonzero" id="shape93" stroke="#0b1d43" stroke-width="1" d="M1.6,.0C2.7,1.6,2.2,2.7,1.0,3.4L.0,1.6L1.6,.0z"/><path fill="#4558b5" transform="translate(12.563207,6.729580)" fill-rule="nonzero" id="shape94" stroke="#0b1d43" stroke-width="1" d="M2.4,.0C4.2,1.6,2.4,3.4,2.4,3.4L.0,3.3L.0,2.1L2.4,.0z"/><path fill="#4558b5" transform="translate(15.618505,1.583268)" fill-rule="nonzero" id="shape95" stroke="#0b1d43" stroke-width="1" d="M2.5,.4C2.8,1.9,1.2,3.3,.6,3.1L.0,.0L2.5,.4z"/><path fill="#4558b5" transform="translate(14.874105,1.911604)" fill-rule="nonzero" id="shape96" stroke="#0b1d43" stroke-width="1" d="M1.1,.0C2.6,1.6,2.0,3.3,.6,4.1L.0,1.9L.1,.8L1.1,.0z"/><path fill="#4558b5" transform="translate(13.465780,3.061342)" fill-rule="nonzero" id="shape97" stroke="#0b1d43" stroke-width="1" d="M1.5,.2C2.9,2.0,2.3,3.4,1.1,4.1L.0,1.9L1.0,.0L1.5,.2z"/><path fill="#4558b5" transform="translate(12.244526,4.758592)" fill-rule="nonzero" id="shape98" stroke="#0b1d43" stroke-width="1" d="M1.6,.0C3.2,1.5,2.6,3.1,1.1,3.9L.0,.8L1.6,.0z"/><path fill="#4558b5" transform="translate(13.095408,1.418854)" fill-rule="nonzero" id="shape99" stroke="#0b1d43" stroke-width="1" d="M1.2,2.3C2.8,1.3,2.9,.2,2.9,.2L.6,.0L.0,.5L1.2,2.3z"/><path fill="#4558b5" transform="translate(11.210321,1.719979)" fill-rule="nonzero" id="shape100" stroke="#0b1d43" stroke-width="1" d="M2.4,.0C3.7,1.7,3.1,4.1,1.0,4.3L.0,2.7L1.1,1.0L2.4,.0z"/><path fill="#4558b5" transform="translate(10.626836,5.853580)" fill-rule="nonzero" id="shape101" stroke="#0b1d43" stroke-width="1" d="M1.7,.0C3.7,1.3,3.3,3.2,2.0,4.2L.0,4.2C.0,4.2,1.3,2.9,1.1,1.6C1.1,1.6,1.3,.1,1.7,.0z"/><path fill="#0e2350" transform="translate(11.475945,8.152102)" fill-rule="nonzero" id="shape102" stroke="#0e2350" stroke-width="1" d="M.8,.0C.5,.4,.0,.9,.0,.9C.0,.9,.7,3.3,1.8,2.7C2.9,2.1,.8,.0,.8,.0z"/><path fill="#1a429a" transform="translate(11.714721,9.248074)" fill-rule="nonzero" id="shape103" stroke="#1b45a2" stroke-width="1" d="M.0,.0C.0,.1,.9,1.3,.9,1.3C.9,1.3,.3,.2,.0,.0z" stroke-opacity="0.00"/><path fill="#1a429a" transform="translate(11.953685,8.919574)" fill-rule="nonzero" id="shape104" stroke="#1b45a2" stroke-width="1" d="M.0,.0C.7,.7,1.0,1.5,1.0,1.5C1.0,1.5,.9,.6,.0,.0z" stroke-opacity="0.00"/><path fill="#1a429a" transform="translate(12.537825,8.727949)" fill-rule="nonzero" id="shape105" stroke="#1b45a2" stroke-width="1" d="M.0,.0C.5,.4,.8,1.3,.8,1.3C.8,1.3,.4,.5,.0,.0z" stroke-opacity="0.00"/><path fill="#4558b5" transform="translate(11.474963,1.309354)" fill-rule="nonzero" id="shape106" stroke="#0b1d43" stroke-width="1" d="M.9,2.3C2.2,1.6,2.3,.5,2.2,.1L.1,.0L.0,.8L.9,2.3z"/><path fill="#4558b5" transform="translate(10.095068,1.938979)" fill-rule="nonzero" id="shape107" stroke="#0b1d43" stroke-width="1" d="M1.6,.0C2.7,.9,2.4,2.0,1.7,2.4L1.2,2.5L.0,1.3L1.6,.0z"/><path fill="#4558b5" transform="translate(8.662303,3.581479)" fill-rule="nonzero" id="shape108" stroke="#0b1d43" stroke-width="1" d="M2.2,.0C4.5,.8,4.2,5.7,.0,4.6L.3,1.5L2.2,.0z"/><path fill="#0e2350" transform="translate(1.328442,1.308955)" fill-rule="nonzero" id="shape109" stroke="#0e2350" stroke-width="1" d="M1.5,5.9C3.8,6.7,7.0,7.6,7.9,6.5C8.1,6.3,8.9,5.3,7.8,3.9C8.3,4.1,9.6,2.7,9.5,1.8C10.3,1.4,10.5,.0,10.2,.0C9.6,.0,9.1,.0,8.6,.1C6.3,.2,4.9,.8,.9,1.8C.7,1.9,-1.4,4.8,1.5,5.9z"/><path fill="#163882" transform="translate(7.812632,5.278717)" fill-rule="nonzero" id="shape110" stroke="#293b79" stroke-width="1" d="M.0,3.0C1.6,3.0,1.8,.4,.6,.0C1.8,1.0,1.2,2.7,.0,3.0z" stroke-opacity="0.00"/><path fill="#15377f" transform="translate(1.901090,7.589069)" fill-rule="nonzero" id="shape111" stroke="#15377f" stroke-width="1" d="M2.6,.9C1.3,.1,.8,.3,.3,.4C-0.1,.4,-0.1,.1,.4,.0C.7,.0,1.3,-0.1,2.6,.9z"/><path fill="#15377f" transform="translate(3.271221,7.254019)" fill-rule="nonzero" id="shape112" stroke="#15377f" stroke-width="1" d="M.0,.3C.6,-0.3,1.4,.2,1.6,.6C2.0,1.1,2.5,1.1,2.5,1.1C2.5,1.1,2.1,1.2,1.6,.8C1.3,.5,1.1,.4,.8,.3C.5,.2,.0,.6,.0,.3z"/><path fill="#fde9d0" transform="translate(4.650861,4.230363)" fill-rule="nonzero" id="shape113" stroke="#fde9d0" stroke-width="1" d="M.7,1.8C.5,1.6,.0,1.7,.0,1.7C.0,1.7,.5,1.4,.7,1.1C1.6,-0.5,3.5,-0.3,3.5,1.3C3.6,2.9,1.5,3.1,.7,1.8z"/><path fill="#ffffff" transform="translate(5.846781,4.566967)" fill-rule="nonzero" id="shape114" stroke="#fde9d0" stroke-width="1" d="M.0,1.1C.0,.5,.5,.0,1.0,.0C1.6,.0,2.0,.5,2.0,1.1C2.0,1.6,1.6,2.1,1.0,2.1C.4,2.1,.0,1.6,.0,1.1z"/><path fill="#454545" transform="translate(6.032645,5.553905)" fill-rule="nonzero" id="shape115" stroke="#000000" stroke-width="1" d="M.0,.4C.0,.2,.2,.0,.4,.0C.7,.0,.8,.2,.8,.4C.8,.7,.7,.9,.4,.9C.2,.9,.0,.7,.0,.4z"/><path fill="#ffffff" transform="translate(6.085748,5.798837)" fill-rule="nonzero" id="shape116" stroke="#ffffff" stroke-width="1" d="M.0,.2C.0,.1,.1,.0,.2,.0C.2,.0,.3,.1,.3,.2C.3,.2,.2,.3,.2,.3C.1,.3,.0,.2,.0,.2z"/></g><g transform="translate(296.395365,253.966628)" id="shape117"><path fill="none" stroke="#868686" stroke-width="2.666666746139526" d="M.0,.0L-0.2,-75.2"/><path fill="#868686" stroke-linecap="round" stroke-width="1" stroke="#868686" d="M-0.2,-84.8L-6.7,-73.4C-4.8,-74.6,-2.6,-75.2,-0.2,-75.2C2.2,-75.2,4.4,-74.6,6.4,-73.5L-0.2,-84.8"/></g><g transform="translate(293.804797,128.124768)" id="shape118"><path fill="none" stroke="#4ed7c5" stroke-width="2.666666746139526" d="M.0,.0L-1.5,-48.6"/><path fill="#4ed7c5" stroke-linecap="round" stroke-width="1" stroke="#4ed7c5" d="M-1.8,-58.1L-8.0,-46.6C-6.1,-47.8,-3.9,-48.5,-1.5,-48.6C.9,-48.6,3.1,-48.1,5.1,-47.0L-1.8,-58.1"/></g><g transform="translate(676.252459,293.131538)" id="shape119"><path fill="#7c3a37" fill-rule="nonzero" stroke="#7c3a37" stroke-width="1" d="M.0,.0L119.5,.0L119.5,28.5L.0,28.5L.0,.0z"/><text style="fill:#ffffff;font-family:Delius;font-size:10.50pt;font-weight:bold" xml:space="preserve"><tspan x="8.3" y="19.3">south america</tspan></text></g><g transform="translate(236.641365,324.500000)" id="shape120"><path fill="#21675e" fill-rule="nonzero" stroke="#21675e" stroke-width="1" d="M.0,.0L119.5,.0L119.5,28.5L.0,28.5L.0,.0z"/><text style="fill:#ffffff;font-family:Delius;font-size:10.50pt;font-weight:bold" xml:space="preserve"><tspan x="27.3" y="19.3">Australia</tspan></text></g><g transform="translate(387.061559,126.517058)" id="shape121"><text style="fill:#868686;font-family:Delius;font-size:10.50pt;font-weight:bold" xml:space="preserve"><tspan x="19.7" y="21.8">pacific </tspan><tspan x="21.7" y="39.8">ocean</tspan></text></g><g transform="translate(258.756447,98.311500)" id="shape122"><path fill="#ffd8d7" fill-rule="nonzero" stroke="#954744" stroke-width="2.333329916000366" d="M.0,.0L63.8,.0L63.8,27.7L.0,27.7L.0,.0z"/><text style="fill:#191919;font-family:Delius;font-size:10.50pt;font-weight:bold" xml:space="preserve"><tspan x="7.4" y="18.8">dry air</tspan></text></g><g transform="translate(292.000000,70.000000)" id="shape123"><path fill="none" stroke="#000000" stroke-width="2.666666746139526" d="M.0,.0L334.0,.0C354.4,.0,371.0,16.6,371.0,37.0L371.0,115.4"/><path fill="#000000" stroke-linecap="round" stroke-width="1" stroke="#000000" d="M371.0,125.0L377.5,113.7C375.6,114.8,373.4,115.4,371.0,115.4C368.6,115.4,366.4,114.8,364.5,113.7L371.0,125.0"/></g><g transform="translate(412.562500,56.155750)" id="shape124"><path fill="#ffd8d7" fill-rule="nonzero" stroke="#954744" stroke-width="2.333329916000366" d="M.0,.0L58.4,.0L58.4,27.7L.0,27.7L.0,.0z"/><text style="fill:#191919;font-family:Delius;font-size:10.50pt;font-weight:bold" xml:space="preserve"><tspan x="4.7" y="18.8">dry air</tspan></text></g><g transform="translate(632.000000,122.995101)" id="shape125"><path fill="#ffd8d7" fill-rule="nonzero" stroke="#954744" stroke-width="2.333329916000366" d="M.0,.0L64.7,.0L64.7,27.7L.0,27.7L.0,.0z"/><text style="fill:#191919;font-family:Delius;font-size:10.50pt;font-weight:bold" xml:space="preserve"><tspan x="7.8" y="18.8">dry air</tspan></text></g><g transform="translate(292.000000,70.000000)" id="shape126"><path fill="none" stroke="#44bdad" stroke-width="2.666666746139526" d="M.0,.0L.0,5.0C.0,7.8,-2.2,10.0,-5.0,10.0L-30.0,10.0C-46.6,10.0,-60.0,23.4,-60.0,40.0L-60.0,140.4"/><path fill="#44bdad" stroke-linecap="round" stroke-width="1" stroke="#44bdad" d="M-60.0,150.0L-53.5,138.7C-55.4,139.8,-57.6,140.4,-60.0,140.4C-62.4,140.4,-64.6,139.8,-66.5,138.7L-60.0,150.0"/></g><g transform="translate(203.083506,141.515770)" id="shape127"><path fill="#ffd8d7" fill-rule="nonzero" stroke="#954744" stroke-width="2.333329916000366" d="M.0,.0L63.8,.0L63.8,27.7L.0,27.7L.0,.0z"/><text style="fill:#191919;font-family:Delius;font-size:10.50pt;font-weight:bold" xml:space="preserve"><tspan x="7.4" y="18.8">dry air</tspan></text></g><g transform="translate(506.000000,248.000000)" id="shape128"><path fill="none" stroke="#868686" stroke-width="2.666666746139526" d="M.0,.0L-44.4,.0"/><path fill="#868686" stroke-linecap="round" stroke-width="1" stroke="#868686" d="M-54.0,.0L-42.7,6.5C-43.8,4.6,-44.4,2.4,-44.4,.0C-44.4,-2.4,-43.8,-4.6,-42.7,-6.5L-54.0,.0"/></g><g transform="translate(698.627158,172.214843)" id="shape129"><path fill="#ff7e79" fill-rule="nonzero" stroke="#954744" stroke-width="2.333329916000366" d="M.0,.0L54.7,.0L54.7,32.4L.0,32.4L.0,.0z"/><text style="fill:#191919;font-family:Delius;font-size:7.00pt;font-weight:bold" xml:space="preserve"><tspan x="16.4" y="14.2">High </tspan><tspan x="5.4" y="25.2">pressure</tspan></text></g><g transform="translate(232.597774,232.132130)" id="shape130"><path fill="#c2c2c2" fill-rule="nonzero" stroke="#954744" stroke-width="2.333329916000366" d="M.0,.0L54.7,.0L54.7,32.4L.0,32.4L.0,.0z"/><text style="fill:#191919;font-family:Delius;font-size:7.00pt;font-weight:bold" xml:space="preserve"><tspan x="17.4" y="14.5">Low </tspan><tspan x="5.4" y="25.5">pressure</tspan></text></g><g transform="translate(623.311500,338.750000)" id="shape131"><path fill="#1a255e" fill-rule="nonzero" stroke="#1a255e" stroke-width="1" d="M.0,13.8C.0,6.2,6.2,.0,13.8,.0C21.5,.0,27.7,6.2,27.7,13.8C27.7,21.5,21.5,27.7,13.8,27.7C6.2,27.7,.0,21.5,.0,13.8z"/><text style="fill:#ffffff;font-family:Delius;font-size:18.00pt;font-weight:bold" xml:space="preserve"><tspan x="6.8" y="22.8">2</tspan></text></g><g transform="translate(464.749000,284.233786)" id="shape132"><path fill="#1a255e" fill-rule="nonzero" stroke="#1a255e" stroke-width="1" d="M.0,13.8C.0,6.2,6.2,.0,13.8,.0C21.5,.0,27.7,6.2,27.7,13.8C27.7,21.5,21.5,27.7,13.8,27.7C6.2,27.7,.0,21.5,.0,13.8z"/><text style="fill:#ffffff;font-family:Delius;font-size:18.00pt;font-weight:bold" xml:space="preserve"><tspan x="8.3" y="22.8">1</tspan></text></g><g transform="translate(324.711571,209.993127)" id="shape133"><path fill="#1a255e" fill-rule="nonzero" stroke="#1a255e" stroke-width="1" d="M.0,11.8C.0,5.3,5.2,.0,11.6,.0C18.0,.0,23.2,5.3,23.2,11.8C23.2,18.3,18.0,23.6,11.6,23.6C5.2,23.6,.0,18.3,.0,11.8z"/><text style="fill:#ffffff;font-family:Delius;font-size:18.00pt;font-weight:bold" xml:space="preserve"><tspan x="4.1" y="20.8">3</tspan></text></g><g transform="translate(279.443759,44.466282)" id="shape134"><path fill="#1a255e" fill-rule="nonzero" stroke="#1a255e" stroke-width="1" d="M.0,12.8C.0,5.7,5.6,.0,12.6,.0C19.5,.0,25.1,5.7,25.1,12.8C25.1,19.8,19.5,25.5,12.6,25.5C5.6,25.5,.0,19.8,.0,12.8z"/><text style="fill:#ffffff;font-family:Delius;font-size:18.00pt;font-weight:bold" xml:space="preserve"><tspan x="5.1" y="21.8">4</tspan></text></g><g transform="translate(776.096445,191.748814)" id="shape135"><path fill="#1a255e" fill-rule="nonzero" stroke="#1a255e" stroke-width="1" d="M.0,10.0C.0,4.5,4.4,.0,9.8,.0C15.3,.0,19.7,4.5,19.7,10.0C19.7,15.6,15.3,20.0,9.8,20.0C4.4,20.0,.0,15.6,.0,10.0z"/><text style="fill:#ffffff;font-family:Delius;font-size:18.00pt;font-weight:bold" xml:space="preserve"><tspan x="2.3" y="19.0">5</tspan></text></g><path fill="#ffffff" transform="matrix(0.447214,0.894427,-0.894427,0.447214,378.028645,283.985678)" fill-rule="nonzero" id="shape136" stroke="#101843" stroke-width="1" d="M.0,6.7L8.8,12.8L6.7,8.8L35.3,13.5L31.3,6.7L35.3,.0L6.7,4.7L8.8,.7L.0,6.7z"/><path fill="#ffffff" transform="matrix(0.447214,0.894427,-0.894427,0.447214,411.028645,283.985678)" fill-rule="nonzero" id="shape137" stroke="#101843" stroke-width="1" d="M.0,6.7L8.8,12.8L6.7,8.8L35.3,13.5L31.3,6.7L35.3,.0L6.7,4.7L8.8,.7L.0,6.7z"/><path fill="#ffffff" transform="matrix(0.447214,0.894427,-0.894427,0.447214,435.028645,283.985678)" fill-rule="nonzero" id="shape138" stroke="#101843" stroke-width="1" d="M.0,6.7L8.8,12.8L6.7,8.8L35.3,13.5L31.3,6.7L35.3,.0L6.7,4.7L8.8,.7L.0,6.7z"/><path fill="#ffffff" transform="matrix(0.306009,-0.952029,0.952029,0.306009,360.583109,256.937428)" fill-rule="nonzero" id="shape139" stroke="#101843" stroke-width="1" d="M.0,6.7L8.8,12.8L6.7,8.8L33.5,13.5L29.4,6.7L33.5,.0L6.7,4.7L8.8,.7L.0,6.7z"/><path fill="#ffffff" transform="matrix(0.306009,-0.952029,0.952029,0.306009,389.583109,256.937428)" fill-rule="nonzero" id="shape140" stroke="#101843" stroke-width="1" d="M.0,6.7L8.8,12.8L6.7,8.8L33.5,13.5L29.4,6.7L33.5,.0L6.7,4.7L8.8,.7L.0,6.7z"/><path fill="#ffffff" transform="matrix(0.306009,-0.952029,0.952029,0.306009,417.583109,256.937428)" fill-rule="nonzero" id="shape141" stroke="#101843" stroke-width="1" d="M.0,6.7L8.8,12.8L6.7,8.8L33.5,13.5L29.4,6.7L33.5,.0L6.7,4.7L8.8,.7L.0,6.7z"/><g transform="translate(370.492872,315.561500)" id="shape142"><text style="fill:#868686;font-family:Delius;font-size:10.50pt;font-weight:bold" xml:space="preserve"><tspan x="23.2" y="22.0">Trade </tspan><tspan x="25.7" y="40.0">Wind</tspan></text></g><g transform="translate(94.000000,44.466282)" id="shape143"><text style="fill:#868686;font-family:Delius;font-size:10.50pt;font-weight:bold" xml:space="preserve"><tspan x="10.2" y="31.0">Nh-emon</tspan></text></g></g></svg>