<svg xmlns="http://www.w3.org/2000/svg" height="638" viewBox="0 0 672 638" xmlns:ev="http://www.w3.org/2001/xml-events" xmlns:xlink="http://www.w3.org/1999/xlink" width="672"><defs/><g transform="translate(5.5,5.5)" id="page1"><rect x="0" fill="none" height="628" y="0" width="662"/><path fill="none" transform="translate(49.449170,307.479107)" id="shape1" stroke="#002060" stroke-width="4" d="M.0,.0L563.2,.9" stroke-dasharray="11,5"/><g transform="translate(49.449170,323.667153)" id="group2"><path fill="#cfd7ff" transform="translate(0.000000,0.000000)" fill-rule="nonzero" id="shape3" stroke="#254694" stroke-width="2.333329916000366" d="M.0,19.6C.0,8.8,8.8,.0,19.6,.0C30.4,.0,39.2,8.8,39.2,19.6C39.2,30.5,30.4,39.3,19.6,39.3C8.8,39.3,.0,30.5,.0,19.6z"/><g transform="translate(5.180774,6.273940)" id="shape4"><text style="fill:#000000;font-family:Delius;font-size:18.00pt;font-weight:bold" xml:space="preserve"><tspan x="6.4" y="22.4">A</tspan></text></g></g><path fill="#e16e6a" transform="translate(266.283780,323.667173)" fill-rule="nonzero" id="shape5" stroke="#254694" stroke-width="2.333329916000366" d="M.0,19.6C.0,8.8,8.8,.0,19.6,.0C30.4,.0,39.2,8.8,39.2,19.6C39.2,30.5,30.4,39.3,19.6,39.3C8.8,39.3,.0,30.5,.0,19.6z"/><g transform="translate(573.440356,323.667166)" id="group6"><path fill="#cfd7ff" fill-rule="nonzero" id="shape7" stroke="#254694" stroke-width="2.333329916000366" d="M.0,19.6C.0,8.8,8.8,.0,19.6,.0C30.4,.0,39.2,8.8,39.2,19.6C39.2,30.5,30.4,39.3,19.6,39.3C8.8,39.3,.0,30.5,.0,19.6z"/><g transform="translate(5.180775,6.273939)" id="shape8"><text style="fill:#000000;font-family:Delius;font-size:18.00pt;font-weight:bold" xml:space="preserve"><tspan x="5.9" y="22.4">C</tspan></text></g></g><path fill="none" transform="translate(303.993272,49.262671)" id="shape9" stroke="#6a7fe1" stroke-width="4" d="M.0,115.9C.0,52.1,98.9,.0,219.8,.0" stroke-dasharray="11,5"/><g transform="translate(329.358388,264.142284)" id="shape10"><text style="fill:#868686;font-family:Delius;font-size:10.50pt;font-weight:bold" xml:space="preserve"><tspan x="16.6" y="20.6">Isobar-100mb</tspan></text></g><g transform="translate(562.146468,363.778999)" id="shape11"><text style="fill:#868686;font-family:Delius;font-size:10.00pt;font-weight:bold" xml:space="preserve"><tspan x="7.9" y="20.3">100mb</tspan></text></g><g transform="translate(254.989892,363.779020)" id="shape12"><text style="fill:#868686;font-family:Delius;font-size:10.00pt;font-weight:bold" xml:space="preserve"><tspan x="7.9" y="20.3">100mb</tspan></text></g><g transform="translate(38.155271,363.779020)" id="shape13"><text style="fill:#868686;font-family:Delius;font-size:10.00pt;font-weight:bold" xml:space="preserve"><tspan x="7.9" y="20.3">100mb</tspan></text></g><g transform="translate(271.464579,38.000000)" id="shape14"><text style="fill:#868686;font-family:Delius;font-size:10.50pt;font-weight:bold" xml:space="preserve"><tspan x="25.2" y="23.2">Isobar-30mb</tspan></text></g><g transform="translate(283.753261,291.472600)" id="shape15"><path fill="none" stroke="#868686" stroke-width="2.666666746139526" d="M.0,.0L13.7,-103.9"/><path fill="#868686" stroke-linecap="round" stroke-width="1" stroke="#868686" d="M14.9,-113.4L7.0,-103.1C9.0,-103.9,11.3,-104.3,13.7,-103.9C16.0,-103.6,18.2,-102.7,19.9,-101.4L14.9,-113.4"/></g><g transform="translate(254.989892,133.610908)" id="shape16"><text style="fill:#868686;font-family:Delius;font-size:10.00pt;font-weight:bold" xml:space="preserve"><tspan x="11.9" y="20.3">30mb</tspan></text></g><path fill="none" transform="translate(49.448393,481.479582)" id="shape17" stroke="#002060" stroke-width="4" d="M.0,.0L563.2,.9" stroke-dasharray="11,5"/><g transform="translate(49.448193,497.667683)" id="group18"><path fill="#e16e6a" fill-rule="nonzero" id="shape19" stroke="#254694" stroke-width="2.333329916000366" d="M.0,19.6C.0,8.8,8.8,.0,19.6,.0C30.4,.0,39.2,8.8,39.2,19.6C39.2,30.5,30.4,39.3,19.6,39.3C8.8,39.3,.0,30.5,.0,19.6z"/><g transform="translate(5.180800,6.273950)" id="shape20"><text style="fill:#000000;font-family:Delius;font-size:18.00pt;font-weight:bold" xml:space="preserve"><tspan x="6.4" y="22.4">A</tspan></text></g></g><g transform="translate(266.283193,497.667683)" id="group21"><path fill="#e1b348" fill-rule="nonzero" id="shape22" stroke="#254694" stroke-width="2.333329916000366" d="M.0,19.6C.0,8.8,8.8,.0,19.6,.0C30.4,.0,39.2,8.8,39.2,19.6C39.2,30.5,30.4,39.3,19.6,39.3C8.8,39.3,.0,30.5,.0,19.6z"/><g transform="translate(5.181386,6.273900)" id="shape23"><text style="fill:#000000;font-family:Delius;font-size:18.00pt;font-weight:bold" xml:space="preserve"><tspan x="5.9" y="22.4">B</tspan></text></g></g><g transform="translate(573.439193,497.667683)" id="group24"><path fill="#e16e6a" fill-rule="nonzero" id="shape25" stroke="#254694" stroke-width="2.333329916000366" d="M.0,19.6C.0,8.8,8.8,.0,19.6,.0C30.4,.0,39.2,8.8,39.2,19.6C39.2,30.5,30.4,39.3,19.6,39.3C8.8,39.3,.0,30.5,.0,19.6z"/><g transform="translate(5.180800,6.273900)" id="shape26"><text style="fill:#000000;font-family:Delius;font-size:18.00pt;font-weight:bold" xml:space="preserve"><tspan x="5.9" y="22.4">C</tspan></text></g></g><g transform="translate(562.145293,537.779483)" id="shape27"><text style="fill:#868686;font-family:Delius;font-size:10.00pt;font-weight:bold" xml:space="preserve"><tspan x="7.9" y="20.3">100mb</tspan></text></g><g transform="translate(254.989293,537.779583)" id="shape28"><text style="fill:#868686;font-family:Delius;font-size:10.00pt;font-weight:bold" xml:space="preserve"><tspan x="12.4" y="20.5">65mb</tspan></text></g><g transform="translate(38.154293,537.779583)" id="shape29"><text style="fill:#868686;font-family:Delius;font-size:10.00pt;font-weight:bold" xml:space="preserve"><tspan x="7.9" y="20.3">100mb</tspan></text></g><g transform="translate(271.464579,320.441085)" id="shape30"><text style="fill:#000000;font-family:Delius;font-size:18.00pt;font-weight:bold" xml:space="preserve"><tspan x="5.9" y="31.9">B</tspan></text></g><g transform="translate(51.364903,579.850648)" id="shape31"><path fill="none" stroke="#868686" stroke-width="2.666666746139526" d="M.0,.0L217.4,.0"/><path fill="#868686" stroke-linecap="round" stroke-width="1" stroke="#868686" d="M227.0,.0L215.7,-6.5C216.8,-4.6,217.4,-2.4,217.4,.0C217.4,2.4,216.8,4.6,215.7,6.5L227.0,.0"/></g><g transform="translate(580.364903,579.850648)" id="shape32"><path fill="none" stroke="#868686" stroke-width="2.666666746139526" d="M.0,.0L-269.4,.0"/><path fill="#868686" stroke-linecap="round" stroke-width="1" stroke="#868686" d="M-279.0,.0L-267.7,6.5C-268.8,4.6,-269.4,2.4,-269.4,.0C-269.4,-2.4,-268.8,-4.6,-267.7,-6.5L-279.0,.0"/></g></g></svg>