<svg viewBox="0 0 1518 1101" xmlns:ev="http://www.w3.org/2001/xml-events" xmlns="http://www.w3.org/2000/svg" height="1101" xmlns:xlink="http://www.w3.org/1999/xlink" width="1518"><defs/><g id="page1" transform="translate(5.5,5.5)"><rect fill="#ffecd1" height="1091" x="0" y="0" width="1508"/><g id="group1" transform="translate(39.750184,216.692308)"><path fill="#ffffff" d="M.0,.0L702.5,.0L702.5,379.0L.0,379.0L.0,.0z" fill-rule="nonzero" id="shape2"/><path fill="#ff7e79" d="M.0,149.1C.0,66.7,65.5,.0,146.2,.0C226.9,.0,292.4,66.7,292.4,149.1C292.4,231.4,226.9,298.2,146.2,298.2C65.5,298.2,.0,231.4,.0,149.1z" fill-rule="nonzero" stroke="#ff7e79" id="shape3" transform="translate(275.834808,49.500445)" stroke-opacity="0.40" fill-opacity="0.40" stroke-width="1"/><path fill="#ff7e79" d="M.0,149.1C.0,66.7,65.5,.0,146.2,.0C226.9,.0,292.4,66.7,292.4,149.1C292.4,231.4,226.9,298.2,146.2,298.2C65.5,298.2,.0,231.4,.0,149.1z" fill-rule="nonzero" stroke="#ff7e79" id="shape4" transform="translate(91.022596,49.500445)" stroke-opacity="0.40" fill-opacity="0.40" stroke-width="1"/><g id="shape5" transform="translate(591.853366,0.000000)"><text xml:space="preserve" style="fill:#000000;font-family:Arial;font-size:16.00pt;font-weight:bold"><tspan x="54.9" y="27.4">U</tspan></text></g><g id="shape6" transform="translate(35.475685,49.500445)"><text xml:space="preserve" style="fill:#000000;font-family:Arial;font-size:14.00pt"><tspan x="55.4" y="27.5">A</tspan></text></g><g id="shape7" transform="translate(519.704330,49.500445)"><text xml:space="preserve" style="fill:#000000;font-family:Arial;font-size:14.00pt"><tspan x="55.4" y="27.4">B</tspan></text></g></g><g id="group8" transform="translate(749.750095,216.692308)"><path fill="#ffffff" d="M.0,.0L716.5,.0L716.5,379.0L.0,379.0L.0,.0z" fill-rule="nonzero" id="shape9"/><path fill="#ff7e79" d="M.0,149.1C.0,66.7,65.5,.0,146.2,.0C226.9,.0,292.4,66.7,292.4,149.1C292.4,231.4,226.9,298.2,146.2,298.2C65.5,298.2,.0,231.4,.0,149.1z" fill-rule="nonzero" stroke="#ff7e79" id="shape10" transform="translate(275.835000,49.501000)" stroke-opacity="0.40" fill-opacity="0.40" stroke-width="1"/><path fill="#ff7e79" d="M.0,149.1C.0,66.7,65.5,.0,146.2,.0C226.9,.0,292.4,66.7,292.4,149.1C292.4,231.4,226.9,298.2,146.2,298.2C65.5,298.2,.0,231.4,.0,149.1z" fill-rule="nonzero" stroke="#ff7e79" id="shape11" transform="translate(91.022000,49.501000)" stroke-opacity="0.40" fill-opacity="0.40" stroke-width="1"/><g id="shape12" transform="translate(591.853800,0.000000)"><text xml:space="preserve" style="fill:#000000;font-family:Arial;font-size:16.00pt;font-weight:bold"><tspan x="54.9" y="27.4">U</tspan></text></g><g id="shape13" transform="translate(35.475700,49.500400)"><text xml:space="preserve" style="fill:#000000;font-family:Arial;font-size:14.00pt"><tspan x="55.4" y="27.5">B</tspan></text></g><g id="shape14" transform="translate(519.704800,49.500400)"><text xml:space="preserve" style="fill:#000000;font-family:Arial;font-size:14.00pt"><tspan x="55.4" y="27.5">A</tspan></text></g></g><g id="group15" transform="translate(39.749826,614.692308)"><path fill="#ffffff" d="M.0,.0L697.1,.0L697.1,361.0L.0,361.0L.0,.0z" fill-rule="nonzero" id="shape16" transform="translate(0.000029,0.000000)"/><g id="shape17" transform="translate(591.853558,0.000036)"><text xml:space="preserve" style="fill:#000000;font-family:Arial;font-size:16.00pt;font-weight:bold"><tspan x="54.9" y="26.5">U</tspan></text></g><g id="shape18" transform="translate(35.475455,47.149668)"><text xml:space="preserve" style="fill:#000000;font-family:Arial;font-size:14.00pt"><tspan x="55.4" y="26.5">A</tspan></text></g><g id="shape19" transform="translate(519.704544,47.149668)"><text xml:space="preserve" style="fill:#000000;font-family:Arial;font-size:14.00pt"><tspan x="55.4" y="26.5">B</tspan></text></g><path fill="#ffe2b3" d="M92.4,.0C173.1,.0,238.6,63.6,238.6,142.0C238.6,220.4,173.1,284.0,92.4,284.0C57.4,284.0,25.2,272.0,.0,252.0C32.8,226.0,53.8,186.4,53.8,142.0C53.8,97.6,32.8,58.0,.0,32.0C25.2,12.0,57.4,.0,92.4,.0z" fill-rule="nonzero" stroke="#ff7e79" id="shape20" transform="translate(329.626293,47.149488)" stroke-opacity="0.40" stroke-width="1"/><path fill="#ffe2b3" d="M.0,142.0C.0,63.6,65.5,.0,146.2,.0C181.2,.0,213.4,12.0,238.6,32.0C205.8,58.0,184.8,97.6,184.8,142.0C184.8,186.4,205.8,226.0,238.6,252.0C213.4,272.0,181.2,284.0,146.2,284.0C65.5,284.0,.0,220.4,.0,142.0z" fill-rule="nonzero" stroke="#ff7e79" id="shape21" transform="translate(91.022501,47.149488)" stroke-opacity="0.40" stroke-width="1"/><path fill="#ffa3a0" d="M.0,110.0C.0,65.7,21.0,26.0,53.8,.0C86.6,26.0,107.6,65.7,107.6,110.0C107.6,154.4,86.6,194.0,53.8,220.1C21.0,194.0,.0,154.4,.0,110.0z" fill-rule="nonzero" stroke="#ff7e79" id="shape22" transform="translate(275.834619,79.105570)" stroke-opacity="0.40" stroke-width="1"/></g><g id="group23" transform="translate(749.750274,614.692308)"><path fill="#ffffff" d="M.0,.0L715.7,.0L715.7,361.0L.0,361.0L.0,.0z" fill-rule="nonzero" id="shape24" transform="translate(-0.000000,0.000000)"/><g id="shape25" transform="translate(591.853527,0.000036)"><text xml:space="preserve" style="fill:#000000;font-family:Arial;font-size:16.00pt;font-weight:bold"><tspan x="54.9" y="26.5">U</tspan></text></g><g id="shape26" transform="translate(35.475424,47.149668)"><text xml:space="preserve" style="fill:#000000;font-family:Arial;font-size:14.00pt"><tspan x="55.4" y="26.5">B</tspan></text></g><g id="shape27" transform="translate(519.704513,47.149668)"><text xml:space="preserve" style="fill:#000000;font-family:Arial;font-size:14.00pt"><tspan x="55.4" y="26.5">A</tspan></text></g><path fill="#ffe2b3" d="M92.4,.0C173.1,.0,238.6,63.6,238.6,142.0C238.6,220.4,173.1,284.0,92.4,284.0C57.4,284.0,25.2,272.0,.0,252.0C32.8,226.0,53.8,186.4,53.8,142.0C53.8,97.6,32.8,58.0,.0,32.0C25.2,12.0,57.4,.0,92.4,.0z" fill-rule="nonzero" stroke="#ff7e79" id="shape28" transform="translate(329.626412,47.149488)" stroke-opacity="0.40" stroke-width="1"/><path fill="#ffe2b3" d="M.0,142.0C.0,63.6,65.5,.0,146.2,.0C181.2,.0,213.4,12.0,238.6,32.0C205.8,58.0,184.8,97.6,184.8,142.0C184.8,186.4,205.8,226.0,238.6,252.0C213.4,272.0,181.2,284.0,146.2,284.0C65.5,284.0,.0,220.4,.0,142.0z" fill-rule="nonzero" stroke="#ff7e79" id="shape29" transform="translate(91.022620,47.149488)" stroke-opacity="0.40" stroke-width="1"/><path fill="#ffa3a0" d="M.0,110.0C.0,65.7,21.0,26.0,53.8,.0C86.6,26.0,107.6,65.7,107.6,110.0C107.6,154.4,86.6,194.0,53.8,220.1C21.0,194.0,.0,154.4,.0,110.0z" fill-rule="nonzero" stroke="#ff7e79" id="shape30" transform="translate(275.834592,79.105569)" stroke-opacity="0.40" stroke-width="1"/></g><g id="shape31" transform="translate(309.072251,80.307692)"><path fill="#fff6e9" d="M.0,.0L1000.7,.0L1000.7,82.3L.0,82.3L.0,.0z" fill-rule="nonzero"/><text xml:space="preserve" style="fill:#191919;font-family:Delius;font-size:17.00pt;font-weight:bold"><tspan x="197.9" y="49.6">Verification of the two proposition of commutative law</tspan></text></g><g id="shape32" transform="translate(1007.533789,229.821881)"><text xml:space="preserve" style="fill:#000000;font-family:Delius;font-size:17.00pt;font-weight:bold"><tspan x="33.9" y="28.0">B∪A</tspan></text></g><g id="shape33" transform="translate(304.456866,775.744958)"><text xml:space="preserve" style="fill:#000000;font-family:Delius;font-size:17.00pt;font-weight:bold"><tspan x="37.4" y="28.0">A∩B</tspan></text></g><g id="shape34" transform="translate(1007.533789,775.744958)"><text xml:space="preserve" style="fill:#000000;font-family:Delius;font-size:17.00pt;font-weight:bold"><tspan x="37.4" y="28.0">B∩A</tspan></text></g><g id="shape35" transform="translate(309.072251,235.975727)"><text xml:space="preserve" style="fill:#000000;font-family:Delius;font-size:17.00pt;font-weight:bold"><tspan x="33.9" y="28.0">A∪B</tspan></text></g><path fill="none" d="M1505.7,1088.6L1505.7,.0L.0,.0L.0,1088.6L1505.7,1088.6z" stroke="#ffa3a0" id="shape36" transform="translate(1.071429,1.428571)" stroke-width="1"/></g></svg>