<svg height="228" viewBox="0 0 638 228" xmlns:xlink="http://www.w3.org/1999/xlink" xmlns:ev="http://www.w3.org/2001/xml-events" width="638" xmlns="http://www.w3.org/2000/svg"><defs/><g id="page1" transform="translate(5.5,5.5)"><rect height="218" y="0" fill="#fce9eb" x="0" width="628"/><g id="shape1" transform="translate(6.500000,5.500000)"><path fill-rule="nonzero" fill="#ffffff" d="M273.3,211.0L273.3,.0L.0,.0L.0,211.0L273.3,211.0z"/><path fill="none" stroke="#323232" d="M273.3,211.0L273.3,.0L.0,.0L.0,211.0L273.3,211.0zM.0,41.0L273.3,41.0L.0,41.0z" stroke-width="1.333330035209656"/></g><g id="shape2" transform="translate(382.000000,5.500000)"><path fill-rule="nonzero" fill="#ffffff" d="M244.0,139.4L244.0,7.0C244.0,3.1,240.9,.0,237.0,.0L7.0,.0C3.1,.0,.0,3.1,.0,7.0L.0,139.4C.0,143.3,3.1,146.4,7.0,146.4L237.0,146.4C240.9,146.4,244.0,143.3,244.0,139.4z"/><path fill="none" stroke="#323232" d="M244.0,139.4L244.0,7.0C244.0,3.1,240.9,.0,237.0,.0L7.0,.0C3.1,.0,.0,3.1,.0,7.0L.0,139.4C.0,143.3,3.1,146.4,7.0,146.4L237.0,146.4C240.9,146.4,244.0,143.3,244.0,139.4zM.0,41.0L244.0,41.0L.0,41.0z" stroke-width="1.333330035209656"/></g><g id="shape3" transform="translate(57.166667,5.000000)"><text xml:space="preserve" style="fill:#454545;font-family:Arial;font-size:12.00pt"><tspan y="24.5" x="30.0">Employess</tspan></text></g><g id="shape4" transform="translate(435.500000,0.000048)"><text xml:space="preserve" style="fill:#454545;font-family:Arial;font-size:12.00pt"><tspan y="29.5" x="48.0">Cities</tspan></text></g><g id="shape5" transform="translate(15.500000,60.248300)"><text xml:space="preserve" style="fill:#454545;font-family:Arial;font-size:14.00pt"><tspan y="25.5" x="79.2">EmployeeID</tspan></text></g><g id="shape6" transform="translate(9.625000,93.548300)"><text xml:space="preserve" style="fill:#454545;font-family:Arial;font-size:14.00pt"><tspan y="25.0" x="93.2">FirstName</tspan></text></g><g id="shape7" transform="translate(3.375000,115.496600)"><text xml:space="preserve" style="fill:#454545;font-family:Arial;font-size:14.00pt"><tspan y="25.5" x="115.7">Field</tspan></text></g><g id="shape8" transform="translate(0.250000,144.048300)"><text xml:space="preserve" style="fill:#454545;font-family:Arial;font-size:14.00pt"><tspan y="32.5" x="75.7">PhoneNumber</tspan></text></g><g id="shape9" transform="translate(9.625000,180.596600)"><text xml:space="preserve" style="fill:#454545;font-family:Arial;font-size:14.00pt"><tspan y="25.5" x="110.7">CityID</tspan></text></g><g id="shape10" transform="translate(374.500000,51.000000)"><text xml:space="preserve" style="fill:#454545;font-family:Arial;font-size:14.00pt"><tspan y="25.5" x="99.8">CityID</tspan></text></g><g id="shape11" transform="translate(374.500000,108.000000)"><text xml:space="preserve" style="fill:#454545;font-family:Arial;font-size:14.00pt"><tspan y="25.5" x="108.5">Zip</tspan></text></g><g id="shape12" transform="translate(374.500000,79.500000)"><text xml:space="preserve" style="fill:#454545;font-family:Arial;font-size:14.00pt"><tspan y="25.5" x="97.0">Name</tspan></text></g><path fill="none" stroke="#000000" d="M.0,.0L162.0,.0L162.0,-130.0L190.0,-130.0" stroke-width="1" id="shape13" transform="translate(184.000000,198.000000)"/></g></svg>