<svg width="688" xmlns:xlink="http://www.w3.org/1999/xlink" xmlns:ev="http://www.w3.org/2001/xml-events" height="631" viewBox="0 0 688 631" xmlns="http://www.w3.org/2000/svg"><defs/><g id="page1" transform="translate(5.5,5.5)"><rect width="678" height="621" x="0" y="0" fill="#ffffff"/><g id="group1" transform="translate(39.259826,371.350399)"><path d="M24.8,20.8C24.0,21.4,20.9,27.0,20.3,27.4C19.7,27.9,18.3,26.0,18.3,26.0C18.3,26.0,18.6,29.0,17.5,29.6C16.4,30.2,13.7,31.2,13.0,31.4C12.3,31.6,11.1,29.1,11.1,29.1C11.1,29.1,11.6,32.0,11.0,32.3C10.5,32.6,6.4,33.9,5.9,34.0C5.5,34.1,5.1,32.4,5.1,32.4C5.1,32.4,4.8,34.4,3.8,34.6C2.9,34.9,.0,35.8,.0,35.8C.0,35.8,1.3,31.7,2.0,30.9C2.7,30.1,4.5,30.4,4.5,30.4L2.3,29.3C2.3,29.3,3.6,27.3,5.1,26.5C6.5,25.8,9.5,27.0,9.5,27.0L7.0,25.4C7.0,25.4,6.6,25.1,7.5,24.4C8.5,23.6,10.3,22.8,10.3,22.8C10.3,22.8,12.4,23.3,13.2,23.5C14.0,23.7,12.2,21.5,12.2,21.5C12.2,21.5,12.0,21.1,13.2,20.7C14.3,20.4,17.2,18.8,20.6,19.6C23.2,20.2,24.4,20.7,24.8,20.8zM38.9,18.0C41.5,17.5,44.6,15.1,44.6,15.1L42.6,13.5C42.7,13.5,43.2,13.4,44.6,13.1C46.7,12.7,48.8,10.4,48.8,10.4C48.8,10.4,49.0,10.0,47.4,9.5C45.9,8.9,45.9,9.1,45.9,9.1C45.6,8.8,46.8,9.2,48.0,7.8C49.2,6.4,50.8,5.2,51.0,4.7C51.1,4.3,48.5,3.5,45.1,4.1C41.7,4.7,40.1,7.1,40.1,7.1L40.5,4.7C40.5,4.7,38.2,4.9,36.8,6.5C35.4,8.1,34.7,10.4,34.7,10.4L34.7,8.2C34.7,8.2,33.2,7.8,31.3,10.6C29.4,13.4,26.9,19.2,26.9,19.2C27.7,19.6,36.3,18.6,38.9,18.0zM25.0,20.8C24.9,20.8,24.9,20.8,24.8,20.8C25.0,20.9,25.0,20.8,25.0,20.8zM29.2,25.8C31.0,28.3,32.8,28.2,32.8,28.2L32.6,26.3C32.6,26.3,33.6,28.1,34.9,28.9C36.1,29.7,37.8,29.7,37.8,29.7L36.9,27.2C36.9,27.2,37.4,28.3,38.7,29.6C39.9,30.8,44.1,30.3,44.1,30.3C44.1,30.3,42.7,29.1,42.5,28.2C42.3,27.4,43.0,27.7,43.0,27.7C43.0,27.7,43.0,28.5,44.4,29.5C45.9,30.6,48.7,29.7,48.7,29.7C48.7,29.7,48.3,26.8,47.0,25.5C45.7,24.1,45.5,24.7,44.8,24.7C44.2,24.6,43.4,24.8,43.4,24.8L44.8,23.8C44.9,23.8,44.2,22.2,42.2,21.5C40.3,20.7,39.7,21.1,39.0,21.5C38.2,21.8,37.5,21.8,37.4,21.2C37.2,20.6,39.2,20.0,39.2,20.0C39.2,20.0,38.3,19.8,35.5,19.2C32.6,18.5,27.1,21.4,27.1,21.4C27.1,21.6,27.5,23.4,29.2,25.8zM25.5,19.4C25.2,15.3,23.0,12.6,21.8,11.3C20.5,10.1,19.6,9.7,19.6,9.7C19.6,9.7,19.5,13.1,18.7,12.2C17.9,11.3,17.6,9.2,17.6,9.2L13.8,8.5L13.8,10.4L12.4,8.5C12.4,8.5,8.7,8.5,7.3,9.5C5.9,10.6,3.9,10.8,6.5,11.3C9.2,11.9,11.6,12.9,12.0,13.3C12.4,13.7,11.4,14.6,11.4,14.6C11.4,14.6,14.2,17.4,14.8,17.1C15.4,16.7,16.7,15.4,16.7,15.4L17.4,18.0L25.5,19.4zM29.9,11.2L29.2,9.4C29.2,9.4,30.4,9.3,30.9,9.1C31.4,8.9,31.5,5.7,31.5,5.7C31.5,5.7,30.6,5.9,30.6,5.4C30.6,4.9,31.5,3.0,32.6,1.1C33.8,-0.8,32.6,.3,31.4,.6C30.1,.9,28.2,3.1,28.2,3.1L28.3,5.0L27.4,4.0L25.8,6.6C25.8,6.6,26.6,8.0,26.6,8.9C26.6,9.9,25.0,8.2,25.0,8.2C25.0,8.2,24.6,8.9,24.5,10.3C24.5,11.8,24.5,14.5,26.3,16.9L29.9,11.2z" fill-rule="nonzero" id="shape2" transform="translate(0.000033,0.000000)" stroke-width="1" fill="#199e83" stroke="#4c4c4c"/><path d="M33.0,21.5C38.3,23.2,43.8,27.7,43.8,27.7C43.8,27.7,36.3,23.1,33.0,22.3C29.6,21.4,23.9,20.3,23.9,20.3C23.9,20.3,27.7,19.7,33.0,21.5zM3.8,9.3C4.2,9.3,9.2,10.0,12.6,11.6C16.1,13.2,20.6,17.1,20.6,17.1C20.6,17.1,17.2,12.8,12.6,10.9C8.1,8.9,3.8,9.3,3.8,9.3zM23.9,6.2C22.4,10.0,22.6,14.4,22.6,14.4C22.6,14.4,23.2,9.5,24.2,6.6C25.3,3.7,27.6,.3,27.9,.0C27.9,.0,25.4,2.5,23.9,6.2zM34.9,9.8C38.3,7.5,44.8,4.0,44.8,4.0C44.8,4.0,38.6,6.0,33.8,9.4C28.9,12.7,25.0,16.6,25.0,16.6C25.0,17.2,31.5,12.0,34.9,9.8zM.0,30.7C.0,30.7,4.7,27.2,9.8,24.6C14.9,21.9,19.7,19.7,19.7,19.7C19.7,19.7,14.9,20.9,9.8,23.7C4.7,26.4,.2,30.3,.0,30.7z" fill-rule="nonzero" id="shape3" transform="translate(3.664023,1.440755)" fill="#75dad7"/><path d="M19.9,14.1C22.4,15.1,24.1,17.3,24.7,18.0C25.4,18.8,25.1,18.9,25.1,18.9C25.1,18.9,23.2,19.6,23.8,19.8C24.4,20.1,26.0,20.7,26.0,20.7C26.0,20.7,26.9,22.0,27.3,22.9C27.7,23.8,27.3,23.8,27.3,23.8L25.1,23.8C25.1,23.8,27.5,24.3,28.2,25.5C28.9,26.6,29.1,28.5,29.1,28.5L27.3,28.3C27.3,28.3,28.6,28.9,28.8,29.7C29.0,30.5,28.5,33.8,28.5,33.8C28.5,33.8,26.8,32.0,26.3,31.4C25.8,30.8,26.2,29.3,26.2,29.3C26.2,29.3,25.4,30.2,25.1,30.0C24.9,29.7,22.6,27.1,22.3,26.7C22.1,26.2,23.3,24.5,23.3,24.5C23.3,24.5,21.7,25.6,21.3,25.2C20.9,24.7,19.4,22.9,18.9,22.0C18.4,21.1,19.6,19.3,19.6,19.3C19.6,19.3,18.0,19.9,17.7,19.3C17.5,18.7,16.5,13.9,16.1,13.6C16.3,13.5,17.8,13.3,19.9,14.1zM14.6,13.3C14.6,13.3,10.0,12.5,8.0,13.6C6.0,14.7,5.4,15.1,5.4,15.1C5.4,15.1,7.0,15.1,7.0,15.6C7.0,16.0,6.5,16.2,5.8,16.1C5.2,16.0,4.7,15.8,3.4,16.9C2.1,17.9,1.8,19.2,1.9,19.2L3.1,19.6C3.1,19.6,2.5,19.6,2.0,19.8C1.6,20.0,1.3,19.6,.6,20.9C-0.1,22.2,.0,24.5,.0,24.5C.0,24.5,2.3,24.5,3.2,23.4C4.1,22.2,3.9,21.7,3.9,21.7C3.9,21.7,4.4,21.3,4.4,22.0C4.4,22.6,3.6,23.8,3.6,23.8C3.6,23.8,6.7,23.3,7.4,22.1C8.2,20.8,8.3,19.9,8.3,19.9L8.1,22.0C8.1,22.0,9.4,21.6,10.2,20.7C10.9,19.8,11.4,18.2,11.4,18.2L11.6,19.7C11.6,19.7,12.9,19.4,13.8,17.1C14.7,14.9,14.6,13.5,14.6,13.3zM22.3,13.7L23.3,12.1C23.3,12.1,24.0,13.3,24.4,13.7C24.8,14.1,27.3,12.6,27.3,12.6C27.3,12.6,26.8,11.8,27.1,11.5C27.5,11.3,29.5,11.1,31.5,11.3C33.6,11.5,32.1,10.9,31.2,9.8C30.4,8.7,27.6,7.8,27.6,7.8L26.2,9.0L26.6,7.5L23.7,7.2C23.7,7.2,23.1,8.7,22.4,9.2C21.6,9.7,22.1,7.1,22.1,7.1C22.1,7.1,21.3,7.2,20.2,7.8C19.1,8.5,17.0,10.0,16.0,12.9L22.3,13.7zM23.2,.1C21.1,-0.3,19.5,.7,18.7,1.3C17.9,1.9,17.6,2.4,17.6,2.4C17.6,2.4,19.2,3.0,18.7,3.4C18.1,3.8,17.1,3.6,17.1,3.6L16.2,5.9L17.1,6.2L16.0,6.8C16.0,6.8,15.4,9.2,15.7,10.2C16.0,11.3,15.8,12.6,16.5,11.0C17.1,9.4,17.9,8.0,18.2,7.8C18.5,7.6,18.7,8.4,18.7,8.4C18.7,8.4,20.5,7.0,20.4,6.6C20.4,6.1,19.9,5.2,19.9,5.2L21.3,5.0L23.2,.1zM16.1,13.6C16.1,13.6,16.1,13.5,16.1,13.5C16.0,13.6,16.0,13.6,16.1,13.6zM15.3,11.7C15.3,11.7,14.1,8.4,12.9,6.8C11.8,5.2,10.9,5.4,10.9,5.4L10.9,6.7C10.9,6.7,10.5,5.3,9.7,4.4C8.9,3.5,7.6,3.4,7.6,3.4L7.8,4.7C7.8,4.7,6.9,3.3,4.9,3.0C2.9,2.7,1.4,3.1,1.4,3.4C1.6,3.7,2.5,4.4,3.2,5.2C3.9,6.0,4.6,5.8,4.4,5.9C4.4,5.9,4.4,5.8,3.5,6.2C2.6,6.5,2.7,6.7,2.7,6.7C2.7,6.7,3.9,8.0,5.1,8.2C6.0,8.4,6.2,8.5,6.3,8.5L5.2,9.4C5.2,9.4,7.0,10.8,8.5,11.2C10.0,11.5,14.8,11.9,15.3,11.7zM6.4,8.5C6.4,8.5,6.4,8.5,6.4,8.5z" fill-rule="nonzero" id="shape4" transform="translate(33.438108,18.374079)" stroke-width="1" fill="#71d078" stroke="#4c4c4c"/><path d="M26.5,29.0C26.5,29.0,24.4,23.9,22.0,20.6C19.7,17.3,15.8,13.5,15.8,13.5C15.8,13.5,19.2,15.7,22.3,20.0C25.4,24.4,26.5,28.6,26.5,29.0zM13.5,13.1C13.5,13.1,10.6,13.5,6.9,16.0C3.3,18.5,.0,23.1,.0,23.1C.0,23.1,4.8,18.0,7.1,16.6C9.5,15.2,13.5,13.1,13.5,13.1zM15.6,9.5C15.7,9.2,16.8,6.2,18.1,4.2C19.3,2.3,21.9,.0,21.9,.0C21.9,.0,19.3,1.5,17.7,4.1C16.1,6.7,15.6,9.5,15.6,9.5zM23.3,9.0C19.6,9.5,16.3,11.9,16.3,11.9C16.3,11.9,20.4,10.0,23.2,9.6C26.0,9.2,29.8,9.8,30.2,9.9C30.2,9.9,27.0,8.6,23.3,9.0zM14.1,10.6C14.1,10.6,11.8,8.3,9.0,6.3C6.1,4.4,2.5,3.2,2.5,3.2C2.5,3.2,6.3,5.3,8.3,6.6C10.3,7.9,14.1,10.9,14.1,10.6z" fill-rule="nonzero" id="shape5" transform="translate(33.796224,18.854285)" fill="#8cdf8f"/><path d="M4.9,24.9C6.0,34.9,9.4,52.1,9.4,52.1L2.6,52.1C2.6,52.1,.3,43.2,.0,26.8C-0.2,10.4,1.9,.0,1.9,.0C2.6,.0,3.7,15.0,4.9,24.9zM22.3,31.2C21.5,38.9,18.9,52.1,18.9,52.1L24.1,52.1C24.1,52.1,25.9,45.3,26.1,32.7C26.3,20.1,24.7,12.1,24.7,12.1C24.1,12.1,23.2,23.6,22.3,31.2z" fill-rule="nonzero" id="shape6" transform="translate(24.067461,16.867050)" stroke-width="1" fill="#f38650" stroke="#4c4c4c"/></g><g id="group7" transform="translate(597.259826,381.350399)"><path d="M.5,1.2C.1,5.9,.0,10.0,.0,10.0L5.9,9.9C5.9,9.9,5.2,3.9,5.1,.5C5.1,-0.1,.6,-0.4,.5,1.2z" fill-rule="nonzero" id="shape8" transform="translate(17.549742,49.013778)" stroke-width="1" fill="#50ad76" stroke="#50ad76"/><path d="M16.7,12.1C19.1,9.6,15.8,11.8,15.8,11.5C15.9,11.2,16.9,10.6,17.2,10.4C17.5,10.1,16.6,10.8,16.2,10.9C15.3,11.2,14.2,11.0,13.4,10.5C13.0,10.2,14.3,10.0,14.8,9.8C15.6,9.2,16.4,8.6,17.1,7.8C19.1,5.7,20.2,3.0,21.0,.1C21.1,-0.4,21.2,1.0,21.4,1.5C21.7,2.4,22.0,3.3,22.5,4.2C23.7,6.6,24.8,8.1,27.1,9.5C29.8,11.1,26.4,10.8,25.1,10.7C24.2,10.7,28.4,13.5,28.8,13.7C29.3,14.0,30.4,14.3,31.3,14.4C30.6,15.2,28.7,14.6,29.2,15.0C29.6,15.4,31.1,15.4,30.6,15.6C29.4,16.0,28.2,15.9,27.7,15.8L29.9,16.8C29.3,17.6,28.3,17.3,27.4,17.1C26.9,17.1,15.3,18.2,14.4,18.3C14.1,18.4,13.5,18.4,13.3,18.4C13.0,18.3,15.2,17.5,14.7,17.5C14.6,17.5,11.3,17.9,11.3,17.9C11.7,17.5,12.9,17.4,13.1,16.8C13.5,15.7,10.6,17.4,9.5,16.9C9.2,16.8,11.2,16.4,12.0,16.0C13.8,15.1,15.2,14.0,16.5,12.5L16.7,12.1zM11.3,17.9C11.3,17.9,11.3,17.9,11.3,17.9zM27.7,11.6zM14.9,18.1C13.2,22.4,8.2,23.5,8.2,23.5C8.2,23.5,9.1,23.8,9.7,23.8C10.4,23.8,11.8,23.9,11.8,23.9C11.8,23.9,11.4,24.8,10.3,25.2C10.1,25.3,9.9,25.2,9.9,25.2C9.9,25.2,10.6,25.6,11.5,25.6C12.4,25.6,28.7,25.2,29.8,25.2C31.0,25.2,31.2,25.2,31.2,25.2C31.2,25.2,29.8,23.9,29.8,23.7C29.8,23.5,31.0,24.3,32.0,24.0C32.8,23.8,31.2,23.1,31.2,23.1C31.2,23.1,33.6,22.9,33.5,22.8C33.3,22.6,32.6,22.1,32.6,22.1C32.6,22.1,33.9,22.0,33.9,21.9C33.9,21.7,28.6,21.2,27.7,17.1C27.1,17.0,14.9,18.1,14.9,18.1zM5.1,41.9C3.1,43.3,2.3,45.4,.1,44.9C-0.4,44.8,1.2,45.7,1.8,45.8C2.8,46.0,3.7,45.8,4.4,45.6C5.0,45.3,2.5,46.8,2.2,46.8C1.8,46.8,2.9,47.8,4.7,46.8C5.2,46.5,4.6,47.9,3.4,47.9C3.0,47.9,4.1,48.6,5.0,48.6C6.0,48.6,9.4,47.9,9.6,47.7C9.8,47.5,9.1,48.4,8.4,48.5C7.8,48.6,9.1,49.0,9.9,48.5C10.7,48.1,10.8,48.0,10.8,48.0C10.8,48.0,9.3,49.6,8.7,49.7C8.2,49.8,9.6,50.3,10.1,50.3C10.7,50.3,14.0,49.5,14.4,49.3C14.8,49.0,13.8,50.2,13.7,50.2C13.5,50.2,14.0,50.4,14.7,50.1C15.5,49.7,15.6,49.5,15.6,49.5C15.6,49.5,15.1,51.1,14.4,51.3C13.7,51.5,15.1,51.6,15.6,51.4C16.1,51.2,18.4,50.6,19.2,49.7C20.1,48.8,20.2,49.3,20.2,49.3C20.2,49.3,19.7,50.7,19.4,50.8C19.1,51.0,20.8,50.2,21.0,49.6C21.3,49.1,21.3,51.6,21.3,51.8C21.3,51.8,22.2,49.3,22.7,49.5C23.2,49.7,24.1,51.1,25.1,51.5C26.0,52.0,24.1,49.1,25.3,49.9C26.5,50.7,27.8,50.7,28.7,50.7C29.5,50.7,29.8,50.7,29.8,50.7L28.5,49.3C28.5,49.3,30.9,50.3,31.2,50.3C31.5,50.3,30.5,49.1,30.5,49.1C30.5,49.1,32.3,49.9,34.0,49.7C35.7,49.5,35.7,49.5,35.7,49.5L33.8,48.2C33.8,48.2,35.8,48.4,36.6,48.4C38.5,48.2,39.2,47.4,39.2,47.4C39.2,47.4,36.3,46.7,36.6,46.7C38.2,46.8,38.6,45.8,38.6,45.8C38.6,45.8,36.5,45.3,36.4,45.1C36.2,44.9,38.3,45.8,39.9,44.9C40.8,44.5,41.4,43.7,41.4,43.7C41.4,43.7,38.5,43.6,37.7,43.0C37.1,42.7,37.1,42.5,37.1,42.5C37.1,42.5,39.3,43.0,40.2,42.9C41.0,42.7,42.0,41.6,42.0,41.6C42.0,41.6,40.7,42.0,38.6,41.4C36.6,40.7,35.6,39.0,35.6,39.0L5.1,41.9zM9.5,32.6C5.7,37.8,1.5,39.0,1.5,39.0C1.5,39.0,3.5,39.9,4.8,39.2C6.2,38.6,6.2,38.6,6.2,38.6C6.2,38.6,5.2,39.6,4.4,40.1C3.7,40.5,3.2,40.5,3.2,40.5C3.2,40.5,4.4,40.9,4.8,40.9C5.3,40.9,6.6,40.5,6.6,40.5C6.6,40.5,3.9,41.9,3.6,41.9C3.4,41.9,34.5,39.1,35.6,39.0C36.8,38.9,37.9,38.8,37.9,38.8C37.9,38.8,36.4,38.7,35.2,37.9C34.7,37.6,34.6,37.0,34.6,37.0L36.8,37.3C36.8,37.3,34.9,36.5,34.7,36.2C34.6,35.9,36.6,36.3,37.5,36.2C38.1,36.0,38.5,35.4,38.5,35.4C38.5,35.4,35.6,35.0,34.4,34.0C33.1,32.9,32.9,31.8,33.0,31.9L9.5,32.6zM12.5,25.6C10.4,29.5,5.7,30.7,5.7,30.7C5.7,30.7,6.5,31.3,7.0,31.3C7.4,31.3,9.0,30.8,9.0,30.8C9.0,30.8,6.4,32.1,6.0,32.0C5.5,31.8,6.7,32.8,8.3,32.6C9.9,32.3,32.2,31.9,32.9,31.9C33.6,31.9,34.2,31.9,34.2,31.9C34.2,31.9,33.0,31.2,32.8,30.7C32.5,30.1,32.5,30.0,32.5,30.0C32.5,30.0,33.8,30.2,34.3,30.2C34.8,30.2,36.3,29.7,36.3,29.7C36.3,29.7,30.9,28.8,29.8,25.2C29.1,25.2,12.5,25.6,12.5,25.6z" fill-rule="nonzero" id="shape9" transform="translate(0.000000,0.000029)" stroke-width="1" fill="#50ad76" stroke="#50ad76"/></g><path d="M.0,.0L576.0,.0L576.0,52.0L.0,52.0L.0,.0z" fill-rule="nonzero" id="shape10" transform="translate(63.259826,433.350399)" fill="#bb720e"/><path d="M.0,30.0C.0,30.0,29.0,95.1,91.1,76.7C153.3,58.4,149.1,34.4,190.1,45.5C231.0,56.7,260.0,22.2,260.0,22.2C260.0,22.2,99.6,-14.6,50.2,6.6C.7,27.7,.0,28.8,.0,30.0z" fill-rule="nonzero" id="shape11" transform="translate(126.259826,221.350399)" fill="#d0f0ea"/><path d="M.0,30.0C.0,30.0,29.0,95.1,91.1,76.7C153.3,58.4,149.1,34.4,190.1,45.5C231.0,56.7,260.0,22.2,260.0,22.2C260.0,22.2,99.6,-14.6,50.2,6.6C.7,27.7,.0,28.8,.0,30.0z" fill-rule="nonzero" id="shape12" transform="translate(237.519669,39.350399)" fill="#d0f0ea"/><path d="M.0,.0L2.0,143.0" id="shape13" transform="translate(237.519669,290.200793)" stroke-width="1" stroke="#000000" fill="none"/><path d="M3.0,.0L.0,138.9" id="shape14" transform="translate(237.519669,81.350399)" stroke-width="1" stroke="#000000" fill="none"/><g id="shape15" transform="translate(325.259826,395.200793)"><path d="M.0,.0L120.0,.0L120.0,38.0L.0,38.0L.0,.0z" fill-rule="nonzero" stroke-width="2.333329916000366" fill="#ffd8d7" stroke="#954744"/><text style="fill:#191919;font-family:Delius;font-size:18.00pt;font-weight:bold" xml:space="preserve"><tspan x="32.0" y="28.0">T 25'</tspan></text></g><g id="shape16" transform="translate(216.759826,326.350399)"><text style="fill:#000000;font-family:Delius;font-size:10.00pt;font-weight:bold" xml:space="preserve"><tspan x="26.5" y="23.5">1km</tspan></text></g><g id="shape17" transform="translate(226.759826,131.775596)"><text style="fill:#000000;font-family:Delius;font-size:10.00pt;font-weight:bold" xml:space="preserve"><tspan x="26.5" y="23.5">1km</tspan></text></g><g id="shape18" transform="translate(395.259826,238.275596)"><path d="M.0,.0L120.0,.0L120.0,38.0L.0,38.0L.0,.0z" fill-rule="nonzero" stroke-width="2.333329916000366" fill="#ffd8d7" stroke="#954744"/><text style="fill:#191919;font-family:Delius;font-size:18.00pt;font-weight:bold" xml:space="preserve"><tspan x="33.5" y="28.0">T 18'</tspan></text></g><g id="shape19" transform="translate(502.259826,39.350399)"><path d="M.0,.0L120.0,.0L120.0,38.0L.0,38.0L.0,.0z" fill-rule="nonzero" stroke-width="2.333329916000366" fill="#ffd8d7" stroke="#954744"/><text style="fill:#191919;font-family:Delius;font-size:18.00pt;font-weight:bold" xml:space="preserve"><tspan x="35.5" y="28.0">T 11'</tspan></text></g><g id="shape20" transform="translate(201.259826,507.350399)"><path d="M.0,.0L244.0,.0L244.0,75.0L.0,75.0L.0,.0z" fill-rule="nonzero" stroke-width="1" fill="#415b7c" stroke="#415b7c"/><text style="fill:#ffffff;font-family:Delius;font-size:18.00pt;font-weight:bold" xml:space="preserve"><tspan x="78.5" y="46.5">ELR = 7</tspan></text></g></g></svg>