<svg xmlns="http://www.w3.org/2000/svg" xmlns:xlink="http://www.w3.org/1999/xlink" xmlns:ev="http://www.w3.org/2001/xml-events" viewBox="0 0 759 622" width="759" height="622"><defs><linearGradient y1="0%" x2="0%" id="lg1" y2="100%" x1="0%"><stop stop-color="#abddf1" offset="0.00"/><stop stop-color="#9fd8ef" offset="1.00"/></linearGradient><linearGradient y1="0%" x2="0%" id="lg2" y2="100%" x1="0%"><stop stop-opacity="0.70" stop-color="#ffffff" offset="0.00"/><stop stop-opacity="0.90" stop-color="#ffffff" offset="1.00"/></linearGradient></defs><g id="page1" transform="translate(5.5,5.5)"><rect y="0" fill="#ffffff" x="0" width="749" height="612"/><path id="shape1" fill-rule="nonzero" d="M.0,.0L642.0,.0L642.0,29.0L.0,29.0L.0,.0z" stroke-width="1" transform="translate(57.999776,540.669897)" fill="#bb720e" stroke="#323232"/><g id="group2" transform="translate(633.999776,459.669897)"><path id="shape3" fill-rule="nonzero" d="M12.5,31.6C10.5,28.6,3.4,25.3,3.4,25.3C3.4,25.3,-1.6,20.7,.5,20.5C2.7,20.3,10.5,28.1,13.5,27.0C13.6,24.7,3.5,6.2,5.0,5.1C6.6,4.0,8.6,8.7,8.6,8.7C8.6,8.7,14.3,21.2,17.0,21.2C19.6,21.2,21.0,16.9,21.0,16.9C21.0,16.9,19.9,10.2,17.6,5.8C15.5,1.6,14.2,.1,16.6,.0C19.0,-0.1,23.7,15.4,23.7,15.4L29.5,15.0L34.4,12.1L31.4,16.3C31.4,16.3,24.2,16.7,21.7,20.1C19.3,23.6,18.0,32.0,18.0,32.0C18.0,32.0,16.4,45.4,19.6,54.7C17.0,57.2,10.9,54.7,10.9,54.7C10.9,54.7,14.4,34.7,12.5,31.6z" transform="translate(22.334300,32.193100)" fill="#7b4b23"/><path id="shape4" fill-rule="nonzero" d="M43.4,48.8C43.4,48.8,42.8,51.2,47.6,52.1C49.2,52.4,47.1,58.4,56.1,56.1C56.1,56.1,64.9,60.8,65.2,51.9C65.2,51.9,74.9,51.3,74.0,43.2C74.0,43.2,73.0,41.0,74.9,39.1C76.8,37.1,76.5,30.7,71.6,28.8C71.6,28.8,76.1,20.2,68.4,16.7C68.4,16.7,66.8,15.7,67.3,13.6C67.8,11.4,65.3,8.7,61.1,8.9C61.1,8.9,57.7,1.1,46.8,3.5C46.8,3.5,40.7,-4.8,31.8,4.1C31.8,4.1,23.1,-1.7,16.3,9.7C16.3,9.7,14.7,14.5,13.0,15.1C5.6,18.0,-0.3,18.6,1.1,30.3C1.1,30.3,1.3,31.3,2.9,35.0C2.9,35.0,-7.2,50.3,10.5,51.2C10.5,51.2,15.9,49.9,17.7,54.2C19.4,58.6,28.2,61.9,32.8,54.2C32.8,54.2,33.4,49.1,34.7,49.6C36.0,50.1,39.2,55.6,43.4,48.8z" transform="translate(0.000000,-0.028300)" fill="#094921"/><path id="shape5" fill-rule="nonzero" d="M41.2,46.3C41.2,46.3,40.6,48.6,45.2,49.4C46.7,49.7,44.7,55.4,53.3,53.2C53.3,53.2,61.6,57.7,61.9,49.2C61.9,49.2,71.1,48.7,70.2,40.9C70.2,40.9,69.3,38.9,71.1,37.0C73.0,35.2,72.6,29.1,68.0,27.3C68.0,27.3,72.3,19.1,64.9,15.9C64.9,15.9,63.4,14.9,63.9,12.9C64.4,10.9,62.0,8.2,58.0,8.5C58.0,8.5,54.8,1.1,44.4,3.3C44.4,3.3,38.6,-4.6,30.2,3.8C30.2,3.8,21.9,-1.6,15.5,9.2C15.5,9.2,14.0,13.7,12.4,14.4C5.3,17.1,-0.3,17.6,1.1,28.8C1.1,28.8,1.2,29.6,2.7,33.2C2.7,33.2,-6.9,47.7,9.9,48.6C9.9,48.6,15.1,47.3,16.8,51.4C18.4,55.6,26.8,58.7,31.2,51.4C31.2,51.4,31.7,46.6,32.9,47.1C34.2,47.6,37.2,52.7,41.2,46.3z" transform="translate(1.919400,1.379400)" fill="#007700"/><path id="shape6" fill-rule="nonzero" d="M24.4,43.4C24.4,43.4,23.9,45.7,28.4,46.5C30.0,46.8,27.9,52.4,36.5,50.3C36.5,50.3,44.9,54.8,45.1,46.3C45.1,46.3,54.4,45.8,53.5,38.0C53.5,38.0,52.5,35.9,54.4,34.1C56.2,32.3,55.9,26.2,51.2,24.4C51.2,24.4,55.5,16.2,48.2,13.0C48.2,13.0,46.6,11.9,47.1,9.9C47.7,7.9,45.3,5.3,41.2,5.5C41.2,5.5,38.0,-1.8,27.7,.4C27.7,.4,14.7,41.6,.0,48.5C1.6,52.7,10.0,55.8,14.4,48.5C14.4,48.5,14.9,43.6,16.2,44.1C17.4,44.6,20.4,49.8,24.4,43.4z" transform="translate(18.702400,4.299700)" fill="#006f00"/><path id="shape7" fill-rule="nonzero" d="M30.1,1.4C30.1,1.4,21.9,-4.1,15.5,6.8C15.5,6.8,13.9,11.3,12.3,11.9C5.3,14.7,-0.3,15.2,1.1,26.3C1.1,26.3,1.2,27.2,2.7,30.7C2.7,30.7,-6.9,45.2,9.9,46.1C9.9,46.1,14.7,44.6,16.7,48.7C26.7,45.4,17.3,40.8,21.8,33.6C21.8,33.6,25.5,31.5,26.5,25.5C27.5,19.3,25.1,19.9,28.1,14.6C32.6,6.8,31.9,4.0,30.1,1.4z" transform="translate(1.967700,3.845600)" fill="#008b00"/><path id="shape8" fill-rule="nonzero" d="M12.6,50.3C12.6,50.3,21.0,54.8,21.2,46.3C21.2,46.3,30.5,45.8,29.6,38.0C29.6,38.0,28.6,35.9,30.5,34.1C32.3,32.3,32.0,26.2,27.3,24.4C27.3,24.4,31.6,16.2,24.3,13.0C24.3,13.0,22.7,11.9,23.2,9.9C23.8,7.9,21.4,5.3,17.3,5.5C17.3,5.5,14.1,-1.8,3.7,.4C3.7,.4,6.2,3.4,8.8,10.3C13.3,22.4,.1,16.6,6.9,35.4C2.4,35.6,-5.1,45.2,5.0,46.6C6.0,49.8,6.8,52.4,12.6,50.3z" transform="translate(42.601900,4.299600)" fill="#006300"/><path id="shape9" fill-rule="nonzero" d="M30.1,1.4C30.1,1.4,21.9,-4.1,15.5,6.8C15.5,6.8,13.9,11.3,12.3,11.9C5.3,14.7,-0.3,15.2,1.1,26.3C1.1,26.3,1.2,27.2,2.7,30.7C2.7,30.7,-6.9,45.2,9.9,46.1C9.9,46.1,15.2,45.2,16.7,48.7C19.6,41.7,-1.9,39.3,7.5,30.9C7.5,30.9,11.5,28.9,11.7,18.4C11.8,12.3,16.4,11.5,19.4,6.2C23.9,-1.7,31.9,4.0,30.1,1.4z" transform="translate(1.967600,3.845600)" fill="#ffffff" fill-opacity="0.18"/></g><g id="group10" transform="translate(39.000076,459.669897)"><path id="shape11" fill-rule="nonzero" d="M11.2,28.8C9.4,26.0,3.1,23.0,3.1,23.0C3.1,23.0,-1.5,18.8,.5,18.6C2.4,18.5,9.4,25.5,12.1,24.5C12.2,22.5,3.1,5.6,4.5,4.6C5.9,3.6,7.7,7.9,7.7,7.9C7.7,7.9,12.8,19.3,15.2,19.3C17.6,19.3,18.8,15.4,18.8,15.4C18.8,15.4,17.8,9.2,15.8,5.3C13.9,1.4,12.7,.1,14.8,.0C17.0,-0.1,21.2,14.0,21.2,14.0L26.4,13.6L30.8,11.0L28.1,14.8C28.1,14.8,21.7,15.2,19.5,18.3C17.2,21.4,16.1,29.1,16.1,29.1C16.1,29.1,14.7,41.3,17.6,49.7C15.2,52.0,9.8,49.7,9.8,49.7C9.8,49.7,12.9,31.5,11.2,28.8z" transform="translate(19.983400,29.266500)" fill="#7b4b23"/><path id="shape12" fill-rule="nonzero" d="M38.8,44.4C38.8,44.4,38.3,46.6,42.6,47.4C44.0,47.7,42.1,53.1,50.2,51.0C50.2,51.0,58.1,55.3,58.3,47.1C58.3,47.1,67.0,46.7,66.2,39.2C66.2,39.2,65.3,37.2,67.0,35.5C68.7,33.8,68.4,27.9,64.0,26.1C64.0,26.1,68.1,18.3,61.2,15.2C61.2,15.2,59.8,14.2,60.2,12.3C60.7,10.4,58.4,7.9,54.6,8.1C54.6,8.1,51.7,1.0,41.9,3.2C41.9,3.2,36.4,-4.4,28.4,3.7C28.4,3.7,20.7,-1.6,14.6,8.8C14.6,8.8,13.1,13.2,11.7,13.8C5.0,16.4,-0.3,16.9,1.0,27.6C1.0,27.6,1.1,28.4,2.6,31.8C2.6,31.8,-6.5,45.7,9.4,46.5C9.4,46.5,14.2,45.3,15.8,49.3C17.3,53.3,25.2,56.3,29.4,49.3C29.4,49.3,29.9,44.6,31.0,45.1C32.2,45.6,35.0,50.5,38.8,44.4z" transform="translate(0.000000,-0.025800)" fill="#094921"/><path id="shape13" fill-rule="nonzero" d="M36.9,42.1C36.9,42.1,36.3,44.2,40.4,44.9C41.8,45.2,40.0,50.3,47.7,48.4C47.7,48.4,55.2,52.5,55.4,44.7C55.4,44.7,63.6,44.3,62.8,37.2C62.8,37.2,62.0,35.3,63.6,33.7C65.3,32.0,65.0,26.5,60.8,24.8C60.8,24.8,64.7,17.4,58.1,14.4C58.1,14.4,56.7,13.5,57.2,11.7C57.6,9.9,55.5,7.5,51.9,7.7C51.9,7.7,49.0,1.0,39.8,3.0C39.8,3.0,34.6,-4.1,27.0,3.5C27.0,3.5,19.6,-1.5,13.9,8.4C13.9,8.4,12.5,12.5,11.1,13.1C4.7,15.6,-0.2,16.0,1.0,26.2C1.0,26.2,1.1,26.9,2.4,30.1C2.4,30.1,-6.1,43.3,8.9,44.1C8.9,44.1,13.5,43.0,15.0,46.8C16.5,50.5,23.9,53.4,27.9,46.8C27.9,46.8,28.3,42.3,29.5,42.8C30.6,43.2,33.3,47.9,36.9,42.1z" transform="translate(1.717300,1.254000)" fill="#007700"/><path id="shape14" fill-rule="nonzero" d="M21.9,39.4C21.9,39.4,21.3,41.5,25.4,42.3C26.8,42.5,25.0,47.7,32.7,45.7C32.7,45.7,40.2,49.8,40.4,42.1C40.4,42.1,48.6,41.6,47.8,34.5C47.8,34.5,47.0,32.7,48.6,31.0C50.3,29.4,50.0,23.8,45.8,22.1C45.8,22.1,49.7,14.7,43.1,11.8C43.1,11.8,41.7,10.9,42.2,9.0C42.6,7.2,40.5,4.8,36.9,5.0C36.9,5.0,34.0,-1.7,24.8,.4C24.8,.4,13.2,37.8,.0,44.1C1.5,47.9,8.9,50.7,12.9,44.1C12.9,44.1,13.3,39.7,14.5,40.1C15.6,40.6,18.3,45.3,21.9,39.4z" transform="translate(16.733800,3.908800)" fill="#006f00"/><path id="shape15" fill-rule="nonzero" d="M27.0,1.3C27.0,1.3,19.6,-3.7,13.8,6.1C13.8,6.1,12.5,10.3,11.0,10.8C4.7,13.3,-0.3,13.8,.9,23.9C.9,23.9,1.1,24.7,2.4,27.9C2.4,27.9,-6.2,41.1,8.9,41.9C8.9,41.9,13.1,40.5,14.9,44.3C23.9,41.3,15.5,37.1,19.5,30.5C19.5,30.5,22.8,28.7,23.7,23.2C24.6,17.5,22.5,18.1,25.2,13.3C29.2,6.2,28.5,3.7,27.0,1.3z" transform="translate(1.760500,3.496000)" fill="#008b00"/><path id="shape16" fill-rule="nonzero" d="M11.3,45.7C11.3,45.7,18.8,49.8,19.0,42.1C19.0,42.1,27.3,41.6,26.5,34.5C26.5,34.5,25.6,32.7,27.2,31.0C28.9,29.4,28.6,23.8,24.4,22.1C24.4,22.1,28.3,14.7,21.7,11.8C21.7,11.8,20.3,10.9,20.8,9.0C21.3,7.2,19.1,4.8,15.5,5.0C15.5,5.0,12.7,-1.7,3.3,.4C3.3,.4,5.6,3.1,7.9,9.4C11.9,20.3,.1,15.1,6.2,32.2C2.2,32.3,-4.5,41.1,4.5,42.3C5.4,45.3,6.1,47.7,11.3,45.7z" transform="translate(38.117500,3.908700)" fill="#006300"/><path id="shape17" fill-rule="nonzero" d="M27.0,1.3C27.0,1.3,19.6,-3.7,13.8,6.1C13.8,6.1,12.5,10.3,11.0,10.8C4.7,13.3,-0.3,13.8,.9,23.9C.9,23.9,1.1,24.7,2.4,27.9C2.4,27.9,-6.2,41.1,8.9,41.9C8.9,41.9,13.6,41.1,14.9,44.3C17.6,37.9,-1.7,35.8,6.7,28.1C6.7,28.1,10.3,26.2,10.5,16.7C10.6,11.2,14.7,10.4,17.4,5.6C21.4,-1.5,28.5,3.7,27.0,1.3z" transform="translate(1.760500,3.496000)" fill="#ffffff" fill-opacity="0.18"/></g><g id="group18" transform="translate(95.999776,468.669897)"><path id="shape19" fill-rule="nonzero" d="M.6,2.1L.0,8.8L8.8,8.8L7.7,2.1C7.7,2.1,6.6,1.5,5.0,.0C1.9,.5,.6,2.1,.6,2.1z" transform="translate(22.583700,61.233510)" fill="#803900"/><path id="shape20" fill-rule="nonzero" d="M24.9,.0C24.9,.0,24.0,4.7,21.7,5.6C22.2,6.5,23.1,7.0,23.1,7.0C23.1,7.0,21.0,10.5,18.8,11.2C19.7,12.4,21.7,12.7,21.7,12.7C21.7,12.7,18.1,18.2,13.2,19.1C16.4,20.0,20.8,19.1,20.8,19.1C20.8,19.1,16.8,25.3,11.0,27.4C15.5,28.3,18.9,27.2,18.9,27.2C18.9,27.2,13.2,32.6,8.5,34.4C14.2,35.6,18.2,34.5,18.2,34.6C18.2,34.5,12.4,42.8,4.1,42.4C7.0,46.4,15.0,45.4,15.0,45.4C15.0,45.4,6.7,54.2,.0,53.7C2.4,57.7,10.0,56.2,10.0,56.2C10.0,56.2,8.6,60.1,1.2,59.0C2.3,60.5,5.0,62.3,8.5,62.6C12.0,63.0,17.1,60.5,17.1,60.5C17.1,60.5,18.9,62.2,17.1,64.2C18.7,64.0,20.1,63.2,22.1,64.5C23.5,62.6,27.6,61.2,27.6,61.2C27.6,61.2,31.4,65.8,36.4,64.5C33.8,62.4,33.8,60.3,33.8,60.3C33.8,60.3,38.5,61.7,46.8,60.2C43.1,57.7,43.2,55.1,43.2,55.1C43.2,55.1,47.1,54.2,50.0,52.3C43.2,51.5,35.4,45.7,35.4,45.7C35.4,45.7,42.1,47.2,47.3,44.6C39.1,42.5,31.8,34.2,31.8,34.2C31.8,34.2,36.3,36.2,42.5,35.3C37.2,33.4,31.7,26.3,31.7,26.3C31.7,26.3,34.4,27.8,40.0,27.2C33.7,26.5,30.1,19.1,30.1,19.1C30.1,19.1,32.1,20.7,37.2,19.7C32.0,18.5,29.0,12.8,29.0,12.8C29.0,12.8,31.0,13.1,32.7,11.5C30.3,11.7,27.2,7.0,27.2,7.0C27.2,7.0,28.5,7.0,29.0,5.5C27.2,5.1,24.9,.0,24.9,.0z" fill="#094921"/><path id="shape21" fill-rule="nonzero" d="M2.0,.0C2.0,.0,2.5,3.7,3.8,3.6C3.9,4.7,1.1,5.6,1.1,5.6C1.1,5.6,2.4,6.5,3.5,6.5C4.3,6.6,4.2,8.6,5.4,9.2C4.8,10.1,3.3,9.5,3.3,9.5L3.8,10.6C3.8,10.6,-0.5,9.0,.0,6.3C.6,3.5,2.0,.0,2.0,.0z" transform="translate(23.287550,1.774710)" fill="#20953c"/><path id="shape22" fill-rule="nonzero" d="M3.2,.0C3.2,.0,5.5,1.9,6.5,2.1C6.1,2.8,4.0,1.8,4.0,1.8C4.0,1.8,6.4,4.5,8.5,4.8C7.4,5.8,5.2,5.8,4.5,5.4C3.8,5.0,2.7,5.1,1.4,4.6C.2,4.1,3.0,5.8,4.2,6.1C5.3,6.5,7.2,5.9,7.2,5.9C7.2,5.9,8.4,9.0,9.8,10.0C7.7,10.8,6.2,9.8,6.2,9.8C6.2,9.8,5.6,11.1,7.7,12.8C3.5,12.7,.0,11.8,.0,11.8L.9,5.2L3.2,.0z" transform="translate(21.998870,13.361640)" fill="#20953c"/><path id="shape23" fill-rule="nonzero" d="M9.6,.5C10.3,-0.3,14.7,.0,16.5,.3C17.0,1.3,20.2,4.3,24.0,6.5C20.4,7.0,12.9,5.1,12.9,5.1C12.9,5.1,10.8,5.5,11.1,7.0C11.3,8.6,18.6,6.7,18.6,6.7C18.6,6.7,18.7,9.7,19.9,10.9C21.1,12.2,24.2,14.2,24.2,14.2C24.2,14.2,21.3,16.7,19.6,16.6C17.9,16.6,14.2,15.1,14.2,15.1C14.2,15.1,16.1,18.7,19.6,19.1C21.1,19.1,23.1,18.5,23.1,18.5C23.1,18.5,18.2,22.4,13.8,22.7C16.0,23.0,16.9,24.2,16.9,24.2C16.9,24.2,19.1,21.3,21.0,20.6C22.9,19.9,23.4,22.2,23.5,22.2C23.6,22.2,24.5,22.1,24.2,21.1C26.3,23.8,31.4,24.5,31.4,24.5C31.4,24.5,29.1,26.1,26.8,25.3C24.9,26.4,31.0,32.4,31.0,32.4C31.0,32.4,27.6,30.0,23.8,30.4C19.9,30.7,17.4,32.9,17.4,32.9C17.4,32.9,15.3,30.9,13.2,30.9C10.1,32.3,1.3,30.5,1.3,30.5C1.3,30.5,3.1,28.7,.0,27.5C6.4,27.6,11.3,23.6,11.3,23.6C11.3,23.6,5.0,25.2,1.3,24.2C5.0,21.6,7.6,18.8,7.6,18.8C7.6,18.8,8.3,19.5,10.0,19.7C11.8,19.9,13.5,18.2,13.5,18.2L9.6,13.9C9.6,13.9,6.4,10.8,8.1,8.6C9.8,6.4,8.8,1.2,9.6,.5z" transform="translate(11.665400,26.144300)" fill="#20953c"/><path id="shape24" fill-rule="nonzero" d="M.0,2.8C.0,2.8,3.6,-1.2,11.1,.3C10.8,1.4,9.9,1.6,9.9,1.6C9.9,1.6,10.1,3.6,12.6,5.1C10.1,6.7,6.2,5.7,6.2,5.7C6.2,5.7,5.3,6.0,6.2,8.3C1.1,6.2,.1,2.8,.0,2.8z" transform="translate(25.066300,49.906440)" fill="#69b532"/><path id="shape25" fill-rule="nonzero" d="M10.9,.0C10.9,.0,14.5,.7,15.0,3.2C14.3,3.0,13.2,3.0,12.8,3.4C12.3,4.4,13.4,5.4,13.6,5.6C12.3,5.8,10.2,4.2,10.2,4.2C10.2,4.2,8.3,7.4,5.5,8.3C6.9,7.0,7.5,5.4,7.5,5.4C7.5,5.4,2.5,7.7,.0,8.1C3.8,6.2,10.9,.0,10.9,.0z" transform="translate(13.240130,18.557050)" fill="#69b532"/><path id="shape26" fill-rule="nonzero" d="M9.8,.0C7.3,3.4,4.2,5.3,.0,7.1C7.2,6.5,7.7,4.3,7.7,4.3C7.7,4.3,9.4,4.1,13.2,6.7C11.8,4.0,9.4,2.7,9.4,2.7C9.4,2.7,10.8,1.8,9.8,.0z" transform="translate(11.946650,26.803350)" fill="#69b532"/><path id="shape27" fill-rule="nonzero" d="M11.8,.0C9.3,3.4,6.2,6.0,.0,8.3C4.4,10.4,11.1,8.6,11.1,8.6C11.1,8.6,14.3,7.6,17.9,10.4C17.6,7.0,13.5,5.6,13.5,5.6C13.5,5.6,12.8,1.8,11.8,.0z" transform="translate(8.347300,34.434170)" fill="#69b532"/><path id="shape28" fill-rule="nonzero" d="M14.8,.0C12.3,3.4,6.3,7.0,.0,8.4C4.4,10.5,13.0,6.4,13.0,6.4C13.0,6.4,16.3,8.1,19.4,6.7C16.7,4.6,16.7,2.8,16.7,2.8C16.7,2.8,14.8,3.7,14.8,.0z" transform="translate(3.083050,45.797200)" fill="#69b532"/><path id="shape29" fill-rule="nonzero" d="M6.2,.0C6.2,.0,6.6,2.2,.0,5.1C4.3,6.5,8.0,4.1,8.0,4.1C8.0,4.1,13.0,4.3,11.6,7.6C16.9,6.2,17.3,.6,17.3,.6C17.3,.6,12.0,-0.2,9.6,1.0C7.3,2.1,6.2,.0,6.2,.0z" transform="translate(6.869150,55.008230)" fill="#69b532"/><path id="shape30" fill-rule="nonzero" d="M8.0,.0C8.0,.0,9.8,2.5,11.3,4.0C10.1,4.2,8.0,3.7,8.0,3.7C8.0,3.7,6.9,5.3,4.9,6.5C5.3,5.1,4.9,3.9,4.9,3.9C4.9,3.9,2.5,5.2,.0,5.5C3.8,3.7,8.0,.0,8.0,.0z" transform="translate(16.132320,12.913110)" fill="#69b532"/><path id="shape31" fill-rule="nonzero" d="M5.1,.0C5.1,.0,5.8,1.7,7.1,3.1C6.0,3.2,5.0,2.2,5.0,2.2C5.0,2.2,4.9,3.6,3.1,4.6C3.5,3.4,3.1,2.7,3.1,2.7C3.1,2.7,2.2,3.2,.0,3.6C3.4,1.9,5.1,.0,5.1,.0z" transform="translate(19.209480,7.873090)" fill="#69b532"/><path id="shape32" fill-rule="nonzero" d="M2.2,.0C2.2,.0,3.1,3.0,2.6,3.9C2.1,4.8,.0,5.3,.0,5.3C.0,5.3,1.3,4.3,1.5,3.2C1.8,2.2,2.2,.0,2.2,.0z" transform="translate(22.808700,1.075930)" fill="#69b532"/><path id="shape33" fill-rule="nonzero" d="M2.1,.0C.7,.8,.0,3.1,.0,3.1C.0,3.1,5.1,4.3,6.7,3.4C7.8,3.0,3.7,1.6,2.1,.0z" transform="translate(23.708470,25.786950)" fill="#69b532"/></g><path id="shape34" fill-rule="nonzero" d="M.0,13.5L89.0,69.5C89.0,69.5,237.0,179.5,317.0,129.5C397.0,79.5,390.0,162.5,390.0,162.5C390.0,162.5,608.0,157.5,578.0,61.5C548.0,-34.5,3.0,9.5,.0,13.5z" transform="translate(95.999776,138.412297)" fill="#e9ecff"/><path id="shape35" stroke-width="4" d="M.0,.0L.0,132.2C.0,132.2,.0,132.2,.0,132.2L-0.7,132.2C-0.7,132.2,-0.7,132.2,-0.7,132.2L-0.7,264.4" transform="translate(395.086022,276.229218)" fill="none" stroke="#c2c2c2"/><g id="shape36" transform="translate(340.240591,301.830103)"><text xml:space="preserve" style="fill:#000000;font-family:Delius;font-size:18.00pt;font-weight:bold"><tspan y="28.0" x="37.0">1km</tspan></text></g><path id="shape37" stroke-width="1" d="M.0,.0L12.9,.0C17.9,.0,21.9,4.0,21.9,9.0L21.9,19.4" transform="translate(395.086022,276.229218)" fill="none" stroke="#c2c2c2"/><g id="shape38" transform="translate(579.999776,536.169897)"><text xml:space="preserve" style="fill:#afafaf;font-family:Delius;font-size:18.00pt;font-weight:bold"><tspan y="28.0" x="5.5" style="text-decoration:underline">Nh-emon</tspan></text></g><g id="shape39" transform="translate(529.240591,500.669897)"><path fill-rule="nonzero" d="M.0,.0L76.0,.0L76.0,38.0L.0,38.0L.0,.0z" stroke-width="1" fill="#21675e" stroke="#21675e"/><text xml:space="preserve" style="fill:#ffffff;font-family:Delius;font-size:18.00pt;font-weight:bold"><tspan y="28.0" x="19.0">30'</tspan></text></g><g id="shape40" transform="translate(529.240591,188.830103)"><path fill-rule="nonzero" d="M.0,.0L76.0,.0L76.0,38.0L.0,38.0L.0,.0z" stroke-width="1" fill="#21675e" stroke="#21675e"/><text xml:space="preserve" style="fill:#ffffff;font-family:Delius;font-size:18.00pt;font-weight:bold"><tspan y="28.0" x="20.5">25'</tspan></text></g><g id="group41" transform="translate(217.240607,459.669897)"><path id="shape42" fill-rule="nonzero" d="M21.9,.0C21.9,.0,14.2,17.1,11.1,22.6C8.0,28.2,.0,40.0,.0,48.9C.0,58.7,9.8,70.0,20.6,70.0C31.4,70.0,42.5,60.3,43.3,50.8C44.1,40.8,39.2,32.9,34.5,25.0C29.9,17.1,21.9,.0,21.9,.0z" stroke-width="1" fill="url(#lg1)" stroke="#9fd8ef"/><path id="shape43" fill-rule="nonzero" d="M5.0,.0L5.7,1.8C5.7,1.8,4.2,3.9,3.2,6.1C2.1,8.3,1.1,11.2,1.1,11.2L.0,10.1C.0,10.1,1.1,7.2,2.1,5.0C3.2,2.7,5.0,.0,5.0,.0z" transform="translate(6.118777,26.973730)" fill="url(#lg2)"/><path id="shape44" fill-rule="nonzero" d="M4.3,.0L1.9,4.2L.0,8.9L1.7,11.5C1.7,11.5,1.9,9.6,2.7,6.7C3.4,3.8,4.3,.3,4.3,.0z" transform="translate(7.728993,29.543850)" fill="url(#lg2)"/><path id="shape45" fill-rule="nonzero" d="M1.3,.0L2.2,1.3L1.3,6.8L.0,6.0L1.3,.0z" transform="translate(3.606844,40.438608)" fill="url(#lg2)"/><path id="shape46" fill-rule="nonzero" d="M1.0,.0L2.9,2.8L2.2,6.6L.0,5.4L1.0,.0z" transform="translate(5.463717,42.368448)" fill="url(#lg2)"/><path id="shape47" fill-rule="nonzero" d="M.0,36.1C.0,36.1,9.3,35.5,14.2,23.9C19.1,12.4,10.0,.0,10.0,.0C10.0,.0,21.6,1.6,26.8,10.0C32.3,19.0,33.0,28.4,28.6,34.7C23.6,42.0,7.2,47.1,.0,36.1z" transform="translate(8.759531,25.000010)" fill="#abddf1"/><path id="shape48" fill-rule="nonzero" d="M.0,.0C.0,.0,9.3,11.7,10.8,20.5C12.4,29.5,11.0,37.7,8.4,37.4C6.1,37.1,7.8,28.8,7.3,22.6C6.8,15.0,.0,.5,.0,.0z" transform="translate(28.339627,21.052605)" fill="url(#lg2)"/><text xml:space="preserve" style="fill:#236ea1;font-family:Delius;font-size:9.00pt;font-weight:bold"><tspan y="52.4" x="13.2">30</tspan></text></g><g id="group49" transform="matrix(-1.000000,0.000000,0.000000,-1.000000,264.934527,278.173103)"><path id="shape50" fill-rule="nonzero" d="M26.3,.0C26.3,.0,17.0,21.8,13.3,28.9C9.6,35.9,.0,51.1,.0,62.5C.0,74.9,11.7,89.3,24.7,89.3C37.7,89.3,51.0,76.9,51.9,64.8C52.9,52.1,47.0,42.0,41.4,31.9C35.8,21.8,26.3,.0,26.3,.0z" stroke-width="1" fill="url(#lg1)" stroke="#9fd8ef"/><path id="shape51" fill-rule="nonzero" d="M5.9,.0L6.9,2.4C6.9,2.4,5.0,4.9,3.8,7.8C2.5,10.6,1.3,14.3,1.3,14.3L.0,12.8C.0,12.8,1.3,9.2,2.5,6.3C3.8,3.5,5.9,.0,5.9,.0z" transform="translate(7.339634,34.427342)" fill="url(#lg2)"/><path id="shape52" fill-rule="nonzero" d="M5.2,.0L2.3,5.4L.0,11.4L2.1,14.7C2.1,14.7,2.3,12.3,3.2,8.6C4.1,4.9,5.2,.3,5.2,.0z" transform="translate(9.271131,37.707660)" fill="url(#lg2)"/><path id="shape53" fill-rule="nonzero" d="M1.5,.0L2.7,1.7L1.5,8.6L.0,7.6L1.5,.0z" transform="translate(4.326505,51.612951)" fill="url(#lg2)"/><path id="shape54" fill-rule="nonzero" d="M1.2,.0L3.4,3.6L2.6,8.4L.0,6.8L1.2,.0z" transform="translate(6.553872,54.076061)" fill="url(#lg2)"/><path id="shape55" fill-rule="nonzero" d="M.0,46.0C.0,46.0,11.1,45.3,17.0,30.6C22.9,15.8,12.1,.0,12.1,.0C12.1,.0,26.0,2.0,32.1,12.8C38.7,24.2,39.6,36.3,34.3,44.3C28.3,53.6,8.7,60.1,.0,46.0z" transform="translate(10.507287,31.908227)" fill="#abddf1"/><path id="shape56" fill-rule="nonzero" d="M.0,.0C.0,.0,11.1,14.9,13.0,26.2C14.8,37.6,13.2,48.1,10.0,47.7C7.3,47.4,9.3,36.8,8.8,28.9C8.2,19.1,.0,.7,.0,.0z" transform="translate(33.994128,26.870041)" fill="url(#lg2)"/><text xml:space="preserve" transform="matrix(-1.00,-0.00,0.00,-1.00,52.0,122.3)" style="fill:#236ea1;font-family:Delius;font-size:9.00pt;font-weight:bold"><tspan y="65.6" x="18.0">23</tspan></text></g><g id="group57" transform="translate(217.240607,377.830103)"><path id="shape58" fill-rule="nonzero" d="M21.9,.0C21.9,.0,14.2,17.1,11.1,22.6C8.0,28.2,.0,40.0,.0,48.9C.0,58.7,9.8,70.0,20.6,70.0C31.4,70.0,42.5,60.3,43.3,50.8C44.1,40.8,39.2,32.9,34.5,25.0C29.9,17.1,21.9,.0,21.9,.0z" stroke-width="1" fill="url(#lg1)" stroke="#9fd8ef"/><path id="shape59" fill-rule="nonzero" d="M5.0,.0L5.7,1.8C5.7,1.8,4.2,3.9,3.2,6.1C2.1,8.3,1.1,11.2,1.1,11.2L.0,10.1C.0,10.1,1.1,7.2,2.1,5.0C3.2,2.7,5.0,.0,5.0,.0z" transform="translate(6.118780,26.973710)" fill="url(#lg2)"/><path id="shape60" fill-rule="nonzero" d="M4.3,.0L1.9,4.2L.0,8.9L1.7,11.5C1.7,11.5,1.9,9.6,2.7,6.7C3.4,3.8,4.3,.3,4.3,.0z" transform="translate(7.729000,29.543860)" fill="url(#lg2)"/><path id="shape61" fill-rule="nonzero" d="M1.3,.0L2.2,1.3L1.3,6.8L.0,6.0L1.3,.0z" transform="translate(3.606840,40.438610)" fill="url(#lg2)"/><path id="shape62" fill-rule="nonzero" d="M1.0,.0L2.9,2.8L2.2,6.6L.0,5.4L1.0,.0z" transform="translate(5.463720,42.368430)" fill="url(#lg2)"/><path id="shape63" fill-rule="nonzero" d="M.0,36.1C.0,36.1,9.3,35.5,14.2,23.9C19.1,12.4,10.0,.0,10.0,.0C10.0,.0,21.6,1.6,26.8,10.0C32.3,19.0,33.0,28.4,28.6,34.7C23.6,42.0,7.2,47.1,.0,36.1z" transform="translate(8.759500,25.000000)" fill="#abddf1"/><path id="shape64" fill-rule="nonzero" d="M.0,.0C.0,.0,9.3,11.7,10.8,20.5C12.4,29.5,11.0,37.7,8.4,37.4C6.1,37.1,7.8,28.8,7.3,22.6C6.8,15.0,.0,.5,.0,.0z" transform="translate(28.339670,21.052600)" fill="url(#lg2)"/><text xml:space="preserve" style="fill:#236ea1;font-family:Delius;font-size:9.00pt;font-weight:bold"><tspan y="52.4" x="13.2">30</tspan></text></g><path id="shape65" fill-rule="nonzero" d="M.0,7.5L9.8,14.3L7.5,9.8L75.7,15.0L71.2,7.5L75.7,.0L7.5,5.3L9.8,.8L.0,7.5z" stroke-width="1" transform="matrix(0.014483,-0.999895,0.999895,0.014483,259.082689,327.129472)" fill="#ffffff" stroke="#101843"/><path id="shape66" fill-rule="nonzero" d="M.0,7.5L9.8,14.3L7.5,9.8L71.5,15.0L67.0,7.5L71.5,.0L7.5,5.3L9.8,.8L.0,7.5z" stroke-width="1" transform="matrix(0.000000,1.000000,-1.000000,0.000000,191.742881,442.830093)" fill="#ffffff" stroke="#101843"/><path id="shape67" fill-rule="nonzero" d="M.0,7.5L9.8,14.3L7.5,9.8L71.5,15.0L67.0,7.5L71.5,.0L7.5,5.3L9.8,.8L.0,7.5z" stroke-width="1" transform="matrix(0.000000,1.000000,-1.000000,0.000000,187.742881,339.830093)" fill="#ffffff" stroke="#101843"/><path id="shape68" stroke-width="1" d="M.0,.0L46.0,.0C54.3,.0,61.0,6.7,61.0,15.0L61.0,209.0C61.0,217.3,54.3,224.0,46.0,224.0L10.0,224.0C1.7,224.0,-5.0,230.7,-5.0,239.0L-5.0,293.0" transform="translate(572.240591,207.830103)" fill="none" stroke="#c2c2c2"/><g id="shape69" transform="translate(507.240591,352.580788)"><path fill-rule="nonzero" d="M.0,.0L120.0,.0L120.0,46.0L.0,46.0L.0,.0z" stroke-width="2.333329916000366" fill="#dbe8ff" stroke="#506f95"/><text xml:space="preserve" style="fill:#191919;font-family:Delius;font-size:18.00pt;font-weight:bold"><tspan y="32.0" x="15.5">ELR = 5</tspan></text></g><g id="shape70" transform="translate(39.000076,339.830093)"><path fill-rule="nonzero" d="M.0,.0L120.0,.0L120.0,46.0L.0,46.0L.0,.0z" stroke-width="1" fill="#ffecec" stroke="#ff7e79"/><text xml:space="preserve" style="fill:#191919;font-family:Delius;font-size:18.00pt;font-weight:bold"><tspan y="32.0" x="6.0">MALR = 7</tspan></text></g><g id="shape71" transform="translate(129.417276,37.830103)"><text xml:space="preserve" style="fill:#000000;font-family:Delius;font-size:18.00pt;font-weight:bold"><tspan y="37.5" x="37.5">Denser and cooler moist air sink back</tspan></text></g></g></svg>